<?xml version="1.0"?>
<svg xmlns="http://www.w3.org/2000/svg" xmlns:xlink="http://www.w3.org/1999/xlink" xmlns:svgjs="http://svgjs.com/svgjs" version="1.1" width="512" height="512" x="0" y="0" viewBox="0 0 36 36" style="enable-background:new 0 0 512 512" xml:space="preserve" class=""><g><g xmlns="http://www.w3.org/2000/svg"><path d="m4.167 8.377c0 6.917-3.583 11.667-3.583 15s1.916 10.333 17.249 10.333 17.583-9.417 17.583-13.083c.001-17.167-31.249-24.5-31.249-12.25z" fill="#efefef" data-original="#efefef" style="" class=""/></g><g xmlns="http://www.w3.org/2000/svg"><path d="m29.625 2.25h1v2h-1z" fill="#a4afc1" data-original="#a4afc1" style=""/></g><g xmlns="http://www.w3.org/2000/svg"><path d="m31.875 5.25h2v1h-2z" fill="#a4afc1" data-original="#a4afc1" style=""/></g><g xmlns="http://www.w3.org/2000/svg"><path d="m27.25 28.25h-18.5c-1.105 0-2-.895-2-2v-15h22.5v15c0 1.105-.895 2-2 2z" fill="#f3f3f1" data-original="#f3f3f1" style="" class=""/></g><g xmlns="http://www.w3.org/2000/svg"><path d="m29.25 11.25h-22.5v-1.5c0-1.105.895-2 2-2h18.5c1.105 0 2 .895 2 2z" fill="#2f53df" data-original="#2fdf84" style="" class=""/></g><g xmlns="http://www.w3.org/2000/svg"><path d="m12.25 19.75 1.772 4.816c.136.408.518.684.949.684h6.058c.43 0 .813-.275.949-.684l1.772-4.816z" fill="#2f53df" data-original="#2fdf84" style="" class=""/></g><g xmlns="http://www.w3.org/2000/svg"><path d="m8.75 26.25v-15h-2v15c0 1.105.895 2 2 2h2c-1.105 0-2-.895-2-2z" fill="#d5dbe1" data-original="#d5dbe1" style="" class=""/></g><g xmlns="http://www.w3.org/2000/svg"><path d="m10.75 7.75h-2c-1.105 0-2 .895-2 2v1.5h2v-1.5c0-1.105.895-2 2-2z" fill="#003fb8" data-original="#00b871" style="" class=""/></g><g xmlns="http://www.w3.org/2000/svg"><path d="m16.022 24.566-1.772-4.816h-2l1.772 4.816c.136.408.518.684.949.684h2c-.431 0-.813-.275-.949-.684z" fill="#003fb8" data-original="#00b871" style="" class=""/></g><g xmlns="http://www.w3.org/2000/svg"><path d="m2.75 27.5h30.5v1.5h-30.5z" fill="#000000" data-original="#000000" style="" class=""/></g><g xmlns="http://www.w3.org/2000/svg"><path d="m21.029 26h-6.059c-.755 0-1.422-.481-1.66-1.197l-1.765-4.794c-.084-.229-.052-.486.089-.688s.371-.321.616-.321h11.5c.245 0 .475.12.615.321s.173.458.089.688l-1.772 4.816c-.231.694-.898 1.175-1.653 1.175zm-7.704-5.5 1.401 3.808c.041.124.137.192.244.192h6.059c.107 0 .203-.068.236-.17l1.409-3.83z" fill="#000000" data-original="#000000" style="" class=""/></g><g xmlns="http://www.w3.org/2000/svg"><path d="m21.048 20.014-1.318-3.514h-3.46l-1.317 3.514-1.404-.527 1.5-4c.108-.293.388-.487.701-.487h4.5c.312 0 .593.194.702.486l1.5 4z" fill="#000000" data-original="#000000" style="" class=""/></g><g xmlns="http://www.w3.org/2000/svg"><path d="m27.25 29h-18.5c-1.517 0-2.75-1.233-2.75-2.75v-16.5c0-1.517 1.233-2.75 2.75-2.75h18.5c1.517 0 2.75 1.233 2.75 2.75v16.5c0 1.517-1.233 2.75-2.75 2.75zm-18.5-20.5c-.689 0-1.25.561-1.25 1.25v16.5c0 .689.561 1.25 1.25 1.25h18.5c.689 0 1.25-.561 1.25-1.25v-16.5c0-.689-.561-1.25-1.25-1.25z" fill="#000000" data-original="#000000" style="" class=""/></g><g xmlns="http://www.w3.org/2000/svg"><path d="m6.75 10.5h22.5v1.5h-22.5z" fill="#000000" data-original="#000000" style="" class=""/></g></g></svg>
