<?xml version="1.0"?>
<svg xmlns="http://www.w3.org/2000/svg" xmlns:xlink="http://www.w3.org/1999/xlink" xmlns:svgjs="http://svgjs.com/svgjs" version="1.1" width="512" height="512" x="0" y="0" viewBox="0 0 36 36" style="enable-background:new 0 0 512 512" xml:space="preserve" class=""><g><path xmlns="http://www.w3.org/2000/svg" d="m4.167 27.623c0-6.917-3.583-11.667-3.583-15s1.916-10.333 17.249-10.333 17.583 9.417 17.583 13.083c.001 17.167-31.249 24.5-31.249 12.25z" fill="#f3f3f1" data-original="#f3f3f1" style="" class=""/><g xmlns="http://www.w3.org/2000/svg" fill="#a4afc1"><path d="m25.612 1.467h1v2h-1z" transform="matrix(.707 -.707 .707 .707 5.904 19.187)" fill="#a4afc1" data-original="#a4afc1" style=""/><path d="m29.678 5.533h1v2h-1z" transform="matrix(.707 -.707 .707 .707 4.219 23.252)" fill="#a4afc1" data-original="#a4afc1" style=""/><path d="m29.001 1.967h2v1h-2z" transform="matrix(.707 -.707 .707 .707 7.043 21.936)" fill="#a4afc1" data-original="#a4afc1" style=""/></g><path xmlns="http://www.w3.org/2000/svg" d="m24.25 29.25h-12.5c-1.105 0-2-.895-2-2v-18.5c0-1.105.895-2 2-2h12.5c1.105 0 2 .895 2 2v18.5c0 1.105-.895 2-2 2z" fill="#efefef" data-original="#efefef" style="" class=""/><path xmlns="http://www.w3.org/2000/svg" d="m20 14.75c0-1.105-.895-2-2-2s-2 .895-2 2h-.75v5.75c0 1.519 1.231 2.75 2.75 2.75s2.75-1.231 2.75-2.75v-5.75z" fill="#1f83db" data-original="#2fdf84" style="" class=""/><path xmlns="http://www.w3.org/2000/svg" d="m12 27.25v-18.5c0-1.105.895-2 2-2h-2.25c-1.105 0-2 .895-2 2v18.5c0 1.105.895 2 2 2h2.25c-1.105 0-2-.895-2-2z" fill="#d5dbe1" data-original="#d5dbe1" style="" class=""/><path xmlns="http://www.w3.org/2000/svg" d="m17.5 20.5v-5.75h.75c0-.687.347-1.293.875-1.653-.321-.219-.708-.347-1.125-.347-1.105 0-2 .895-2 2h-.75v5.75c0 1.519 1.231 2.75 2.75 2.75.402 0 .781-.091 1.125-.246-.956-.43-1.625-1.387-1.625-2.504z" fill="#045aa5" data-original="#00b871" style="" class=""/><path xmlns="http://www.w3.org/2000/svg" d="m20 15.5h-4c-.414 0-.75-.336-.75-.75 0-1.517 1.233-2.75 2.75-2.75s2.75 1.233 2.75 2.75c0 .414-.336.75-.75.75zm-2.999-1.5h1.998c-.228-.304-.591-.5-.999-.5s-.771.196-.999.5z" fill="#000000" data-original="#000000" style="" class=""/><path xmlns="http://www.w3.org/2000/svg" d="m19.6 14.3c-.068 0-.139-.01-.208-.029-.398-.115-.628-.531-.513-.929.398-1.379 1.683-2.342 3.121-2.342.414 0 .75.336.75.75s-.336.75-.75.75c-.774 0-1.466.518-1.68 1.258-.094.329-.394.542-.72.542z" fill="#000000" data-original="#000000" style="" class=""/><path xmlns="http://www.w3.org/2000/svg" d="m16.4 14.3c-.326 0-.626-.213-.721-.542-.213-.74-.905-1.258-1.679-1.258-.414 0-.75-.336-.75-.75s.336-.75.75-.75c1.438 0 2.723.963 3.121 2.342.115.397-.114.813-.513.929-.069.019-.139.029-.208.029z" fill="#000000" data-original="#000000" style="" class=""/><path xmlns="http://www.w3.org/2000/svg" d="m20.749 18c-.336 0-.642-.228-.727-.568-.101-.401.144-.809.546-.909l1.665-.416.846-1.691c.186-.37.637-.52 1.006-.336.371.186.521.636.336 1.006l-1 2c-.098.196-.276.34-.489.393l-2 .5c-.061.014-.122.021-.183.021z" fill="#000000" data-original="#000000" style="" class=""/><path xmlns="http://www.w3.org/2000/svg" d="m23.751 23c-.275 0-.54-.151-.672-.415l-.886-1.771-1.771-.858c-.373-.181-.528-.629-.348-1.002s.627-.527 1.002-.348l2 .97c.148.072.27.191.344.34l1 2c.186.37.035.82-.336 1.006-.106.053-.221.078-.333.078z" fill="#000000" data-original="#000000" style="" class=""/><path xmlns="http://www.w3.org/2000/svg" d="m15.251 18c-.061 0-.122-.007-.183-.022l-2-.5c-.213-.053-.392-.196-.489-.393l-1-2c-.186-.37-.035-.82.336-1.006.371-.185.82-.035 1.006.336l.846 1.691 1.665.416c.402.101.646.508.546.909-.085.341-.391.569-.727.569z" fill="#000000" data-original="#000000" style="" class=""/><path xmlns="http://www.w3.org/2000/svg" d="m12.249 23c-.112 0-.227-.025-.334-.079-.371-.186-.521-.636-.336-1.006l1-2c.074-.148.195-.268.344-.34l2-.97c.375-.181.822-.024 1.002.348.181.373.025.821-.348 1.002l-1.771.858-.886 1.771c-.131.265-.396.416-.671.416z" fill="#000000" data-original="#000000" style="" class=""/><path xmlns="http://www.w3.org/2000/svg" d="m18 24c-1.93 0-3.5-1.57-3.5-3.5v-5.75c0-.414.336-.75.75-.75h5.5c.414 0 .75.336.75.75v5.75c0 1.93-1.57 3.5-3.5 3.5zm-2-8.5v5c0 1.103.897 2 2 2s2-.897 2-2v-5z" fill="#000000" data-original="#000000" style="" class=""/><path xmlns="http://www.w3.org/2000/svg" d="m18 24c-.414 0-.75-.336-.75-.75v-8.5c0-.414.336-.75.75-.75s.75.336.75.75v8.5c0 .414-.336.75-.75.75z" fill="#000000" data-original="#000000" style="" class=""/><path xmlns="http://www.w3.org/2000/svg" d="m24.25 30h-12.5c-1.517 0-2.75-1.233-2.75-2.75v-18.5c0-1.517 1.233-2.75 2.75-2.75h12.5c1.517 0 2.75 1.233 2.75 2.75v18.5c0 1.517-1.233 2.75-2.75 2.75zm-12.5-22.5c-.689 0-1.25.561-1.25 1.25v18.5c0 .689.561 1.25 1.25 1.25h12.5c.689 0 1.25-.561 1.25-1.25v-18.5c0-.689-.561-1.25-1.25-1.25z" fill="#000000" data-original="#000000" style="" class=""/></g></svg>
