<svg xmlns="http://www.w3.org/2000/svg" version="1.1" xmlns:xlink="http://www.w3.org/1999/xlink" xmlns:svgjs="http://svgjs.com/svgjs" width="512" height="512" x="0" y="0" viewBox="0 0 36 36" style="enable-background:new 0 0 512 512" xml:space="preserve" class=""><g><path xmlns="http://www.w3.org/2000/svg" d="m4.1666665 8.3767748c0 6.916666-3.5833333 11.666667-3.5833333 14.999999s1.9166668 10.3333359 17.2500008 10.3333359 17.583334-9.4166679 17.583334-13.0833359c-.0000001-17.166666-31.2500015-24.4999993-31.2500015-12.249999z" fill="#efefef" data-original="#efefef" class=""></path><path xmlns="http://www.w3.org/2000/svg" d="m27.5 6.809082c-.8271484 0-1.5-.6728516-1.5-1.5s.6728516-1.5 1.5-1.5 1.5.6728516 1.5 1.5-.6728516 1.5-1.5 1.5zm0-2c-.2758789 0-.5.2241211-.5.5s.2241211.5.5.5.5-.2241211.5-.5-.2241211-.5-.5-.5z" fill="#a4afc1" data-original="#a4afc1"></path><path xmlns="http://www.w3.org/2000/svg" d="m8.5 25.5v-11.5c0-.8284273.6715727-1.5 1.5-1.5h16c.8284264 0 1.5.6715727 1.5 1.5v11.5z" fill="#f3f3f1" data-original="#f3f3f1" class=""></path><path xmlns="http://www.w3.org/2000/svg" d="m13.5 15.5v2.9429436c0 .3463173.1762228.678791.4736452.8562031 2.6842375 1.6011372 5.3684721 1.6011372 8.0527086 0 .2974244-.1774121.4736462-.5098858.4736462-.8562031v-2.9429436z" fill="#2f74df" data-original="#2fdf84" class=""></path><path xmlns="http://www.w3.org/2000/svg" d="m11.5 14.5 6.5-3 6.5 3-6.5 3z" fill="#2f74df" data-original="#2fdf84" class=""></path><path xmlns="http://www.w3.org/2000/svg" d="m12 12.5h-2c-.8284302 0-1.5.6715698-1.5 1.5v11.5h2v-11.5c0-.8284302.6715698-1.5 1.5-1.5z" fill="#d5dbe1" data-original="#d5dbe1" class=""></path><path xmlns="http://www.w3.org/2000/svg" d="m15.9736328 19.2993603c-.2974243-.1774292-.4736328-.5098877-.4736328-.8562012v-2.9429312h-2v2.9429312c0 .3463135.1762085.678772.4736328.8562012 1.6754761.9993896 3.3509522 1.3745117 5.0263672 1.1262817-1.0087891-.149414-2.0175781-.5245361-3.0263672-1.1262817z" fill="#115dbd" data-original="#00b871" class=""></path><path xmlns="http://www.w3.org/2000/svg" d="m13.5 14.5 5.5-2.5384521-1-.4615479-6.5 3 6.5 3 1-.4615479z" fill="#115dbd" data-original="#00b871" class=""></path><path xmlns="http://www.w3.org/2000/svg" d="m29.5 26h-23c-.2763672 0-.5-.2236328-.5-.5s.2236328-.5.5-.5h23c.2763672 0 .5.2236328.5.5s-.2236328.5-.5.5z" fill="#000000" data-original="#000000" class=""></path><path xmlns="http://www.w3.org/2000/svg" d="m27.5 26c-.2763672 0-.5-.2236328-.5-.5v-11.5c0-.5512695-.4487305-1-1-1-.2763672 0-.5-.2236328-.5-.5s.2236328-.5.5-.5c1.1030273 0 2 .8969727 2 2v11.5c0 .2763672-.2236328.5-.5.5z" fill="#000000" data-original="#000000" class=""></path><path xmlns="http://www.w3.org/2000/svg" d="m8.5 26c-.2763672 0-.5-.2236328-.5-.5v-11.5c0-1.1030273.8969727-2 2-2 .2763672 0 .5.2236328.5.5s-.2236328.5-.5.5c-.5512695 0-1 .4487305-1 1v11.5c0 .2763672-.2236328.5-.5.5z" fill="#000000" data-original="#000000" class=""></path><path xmlns="http://www.w3.org/2000/svg" d="m18 21c-1.4311523 0-2.8618164-.4238281-4.2827148-1.2714844-.4423829-.2641601-.7172852-.7568359-.7172852-1.2856445v-2.9428711c0-.2763672.2236328-.5.5-.5s.5.2236328.5.5v2.9428711c0 .1757813.090332.34375.2299805.4272461 2.5371094 1.5126953 5.0029297 1.5126953 7.5400391 0 .1396484-.0834961.2299804-.2514649.2299804-.4272461v-2.9428711c0-.2763672.2236328-.5.5-.5s.5.2236328.5.5v2.9428711c0 .5288086-.2749023 1.0214844-.7172852 1.2856445-1.4208984.8476563-2.8520507 1.2714844-4.2827148 1.2714844z" fill="#000000" data-original="#000000" class=""></path><path xmlns="http://www.w3.org/2000/svg" d="m18 18c-.0712891 0-.1430664-.0151367-.2094727-.0458984l-6.5-3c-.177246-.0820313-.2905273-.2592774-.2905273-.4541016s.1132813-.3720703.2905273-.4541016l6.5-3c.1328125-.0615234.2861328-.0615234.4189453 0l6.5 3c.1772462.0820313.2905274.2592774.2905274.4541016s-.1132813.3720703-.2905273.4541016l-6.5 3c-.0664063.0307617-.1381836.0458984-.2094727.0458984zm-5.3066406-3.5 5.3066406 2.4492188 5.3066406-2.4492188-5.3066406-2.4492187z" fill="#000000" data-original="#000000" class=""></path></g></svg>