<?xml version="1.0"?>
<svg xmlns="http://www.w3.org/2000/svg" xmlns:xlink="http://www.w3.org/1999/xlink" xmlns:svgjs="http://svgjs.com/svgjs" version="1.1" width="512" height="512" x="0" y="0" viewBox="0 0 36 36" style="enable-background:new 0 0 512 512" xml:space="preserve" class=""><g><path xmlns="http://www.w3.org/2000/svg" d="m8.377 4.167c6.917 0 11.667-3.583 15-3.583s10.333 1.916 10.333 17.249-9.417 17.583-13.083 17.583c-17.167.001-24.5-31.249-12.25-31.249z" fill="#efefef" data-original="#efefef" style="" class=""/><g xmlns="http://www.w3.org/2000/svg" fill="#a4afc1"><path d="m2.644 1.967h1v2h-1z" transform="matrix(.707 -.707 .707 .707 -1.177 3.092)" fill="#a4afc1" data-original="#a4afc1" style=""/><path d="m1.967 6.533h2v1h-2z" transform="matrix(.707 -.707 .707 .707 -4.104 4.158)" fill="#a4afc1" data-original="#a4afc1" style=""/><path d="m6.033 2.467h2v1h-2z" transform="matrix(.707 -.707 .707 .707 -.038 5.842)" fill="#a4afc1" data-original="#a4afc1" style=""/></g><path xmlns="http://www.w3.org/2000/svg" d="m8.75 9.75h18.5v13.5h-18.5z" fill="#f3f3f1" data-original="#f3f3f1" style="" class=""/><path xmlns="http://www.w3.org/2000/svg" d="m21.25 15.075c0-2.093-1.89-3.734-4.02-3.235-1.177.276-2.13 1.258-2.395 2.464-.325 1.477.313 2.825 1.391 3.545.248.166.381.462.381.765v1.161c0 .262.208.475.464.475h1.857c.256 0 .464-.213.464-.475v-1.161c0-.304.135-.6.384-.767.886-.593 1.474-1.609 1.474-2.772z" fill="#2f74df" data-original="#2fdf84" style="" class=""/><path xmlns="http://www.w3.org/2000/svg" d="m28.25 9.75h-20.5c-.552 0-1-.448-1-1v-1c0-.552.448-1 1-1h20.5c.552 0 1 .448 1 1v1c0 .552-.448 1-1 1z" fill="#2f74df" data-original="#2fdf84" style="" class=""/><path xmlns="http://www.w3.org/2000/svg" d="m8.75 9.75h2.25v13.5h-2.25z" fill="#d5dbe1" data-original="#d5dbe1" style=""/><path xmlns="http://www.w3.org/2000/svg" d="m18.857 19.775v-1.161c0-.303-.133-.6-.381-.765-1.078-.72-1.716-2.068-1.391-3.545.235-1.068 1.012-1.959 2.005-2.341-.567-.208-1.197-.279-1.86-.123-1.177.276-2.13 1.259-2.395 2.464-.325 1.477.313 2.825 1.391 3.545.248.166.381.462.381.765v1.161c0 .262.208.475.464.475h1.857c.071 0 .136-.019.196-.048-.156-.076-.267-.237-.267-.427z" fill="#0059b8" data-original="#00b871" style="" class=""/><path xmlns="http://www.w3.org/2000/svg" d="m9 8.75v-1c0-.552.448-1 1-1h-2.25c-.552 0-1 .448-1 1v1c0 .552.448 1 1 1h2.25c-.552 0-1-.448-1-1z" fill="#0059b8" data-original="#00b871" style="" class=""/><path xmlns="http://www.w3.org/2000/svg" d="m18.929 21h-1.857c-.669 0-1.214-.55-1.214-1.225v-1.161c0-.078-.031-.131-.047-.142-1.409-.941-2.079-2.64-1.707-4.33.33-1.499 1.491-2.689 2.957-3.033 1.203-.282 2.44-.01 3.395.746.981.78 1.544 1.953 1.544 3.22 0 1.369-.675 2.638-1.806 3.395-.021.014-.051.068-.051.144v1.161c0 .675-.545 1.225-1.214 1.225zm-1.572-1.5h1.286v-.886c0-.571.268-1.09.717-1.391.714-.478 1.14-1.281 1.14-2.148 0-.806-.356-1.551-.978-2.043-.603-.478-1.358-.642-2.121-.462-.894.21-1.631.972-1.834 1.896-.238 1.081.184 2.164 1.075 2.759.447.299.714.818.714 1.39v.885z" fill="#000000" data-original="#000000" style="" class=""/><path xmlns="http://www.w3.org/2000/svg" d="m28.25 10.5h-20.5c-.965 0-1.75-.785-1.75-1.75v-1c0-.965.785-1.75 1.75-1.75h20.5c.965 0 1.75.785 1.75 1.75v1c0 .965-.785 1.75-1.75 1.75zm-20.5-3c-.138 0-.25.112-.25.25v1c0 .138.112.25.25.25h20.5c.138 0 .25-.112.25-.25v-1c0-.138-.112-.25-.25-.25z" fill="#000000" data-original="#000000" style="" class=""/><path xmlns="http://www.w3.org/2000/svg" d="m7 22.5h22v1.5h-22z" fill="#000000" data-original="#000000" style="" class=""/><path xmlns="http://www.w3.org/2000/svg" d="m17.25 23.5h1.5v5.75h-1.5z" fill="#000000" data-original="#000000" style="" class=""/><path xmlns="http://www.w3.org/2000/svg" d="m21.647 29.696-3.647-4.934-3.647 4.934-1.206-.892 4.25-5.75c.282-.383.924-.383 1.206 0l4.25 5.75z" fill="#000000" data-original="#000000" style="" class=""/><path xmlns="http://www.w3.org/2000/svg" d="m2 28.5h32v1.5h-32z" fill="#000000" data-original="#000000" style="" class=""/><path xmlns="http://www.w3.org/2000/svg" d="m26.5 9.75h1.5v13.5h-1.5z" fill="#000000" data-original="#000000" style="" class=""/><path xmlns="http://www.w3.org/2000/svg" d="m8 9.75h1.5v13.5h-1.5z" fill="#000000" data-original="#000000" style="" class=""/></g></svg>
