<?xml version="1.0"?>
<svg xmlns="http://www.w3.org/2000/svg" xmlns:xlink="http://www.w3.org/1999/xlink" xmlns:svgjs="http://svgjs.com/svgjs" version="1.1" width="512" height="512" x="0" y="0" viewBox="0 0 36 36" style="enable-background:new 0 0 512 512" xml:space="preserve" class=""><g><g xmlns="http://www.w3.org/2000/svg" id="bg"><g><path d="m8.377 31.833c6.917 0 11.667 3.583 15 3.583s10.333-1.916 10.333-17.249-9.417-17.584-13.083-17.584c-17.167 0-24.5 31.25-12.25 31.25z" fill="#efefef" data-original="#efefef" style="" class=""/></g></g><g xmlns="http://www.w3.org/2000/svg" id="effect"><g><g><path d="m2.748 27.511h1v2.169h-1z" fill="#a4afc1" transform="matrix(.707 -.707 .707 .707 -19.269 10.672)" data-original="#a4afc1" style="" class=""/></g><g><path d="m7.157 31.92h1v2.168h-1z" fill="#a4afc1" transform="matrix(.707 -.707 .707 .707 -21.095 15.081)" data-original="#a4afc1" style="" class=""/></g><g><path d="m1.973 32.504h2.168v1h-2.168z" fill="#a4afc1" transform="matrix(.707 -.707 .707 .707 -22.442 11.828)" data-original="#a4afc1" style="" class=""/></g></g><g><path d="m33.71 16.05c-.827 0-1.5-.673-1.5-1.5s.673-1.5 1.5-1.5 1.5.673 1.5 1.5-.673 1.5-1.5 1.5zm0-2c-.276 0-.5.224-.5.5s.224.5.5.5.5-.224.5-.5-.224-.5-.5-.5z" fill="#a4afc1" data-original="#a4afc1" style="" class=""/></g></g><g xmlns="http://www.w3.org/2000/svg" id="color"><g><path d="m28.25 11.25h-20.5c-.552 0-1-.448-1-1v-2.5c0-.552.448-1 1-1h20.5c.552 0 1 .448 1 1v2.5c0 .552-.448 1-1 1z" fill="#f3f3f1" data-original="#f3f3f1" style="" class=""/></g><g><path d="m15.25 29.25h-7.5c-.552 0-1-.448-1-1v-12.5c0-.552.448-1 1-1h7.5c.552 0 1 .448 1 1v12.5c0 .552-.448 1-1 1z" fill="#2f7cdf" data-original="#2fdf84" style="" class=""/></g><g><path d="m28.25 20.25h-7.5c-.552 0-1-.448-1-1v-3.5c0-.552.448-1 1-1h7.5c.552 0 1 .448 1 1v3.5c0 .552-.448 1-1 1z" fill="#2f7cdf" data-original="#2fdf84" style="" class=""/></g><g><path d="m28.25 29.25h-7.5c-.552 0-1-.448-1-1v-3.5c0-.552.448-1 1-1h7.5c.552 0 1 .448 1 1v3.5c0 .552-.448 1-1 1z" fill="#2f7cdf" data-original="#2fdf84" style="" class=""/></g><g><path d="m28.25 11.25h-20.5c-.552 0-1-.448-1-1v-2.5c0-.552.448-1 1-1h20.5c.552 0 1 .448 1 1v2.5c0 .552-.448 1-1 1z" fill="#f3f3f1" data-original="#f3f3f1" style="" class=""/></g><g><path d="m15.25 29.25h-7.5c-.552 0-1-.448-1-1v-12.5c0-.552.448-1 1-1h7.5c.552 0 1 .448 1 1v12.5c0 .552-.448 1-1 1z" fill="#2f7cdf" data-original="#2fdf84" style="" class=""/></g><g><path d="m28.25 20.25h-7.5c-.552 0-1-.448-1-1v-3.5c0-.552.448-1 1-1h7.5c.552 0 1 .448 1 1v3.5c0 .552-.448 1-1 1z" fill="#2f7cdf" data-original="#2fdf84" style="" class=""/></g><g><path d="m28.25 29.25h-7.5c-.552 0-1-.448-1-1v-3.5c0-.552.448-1 1-1h7.5c.552 0 1 .448 1 1v3.5c0 .552-.448 1-1 1z" fill="#2f7cdf" data-original="#2fdf84" style="" class=""/></g><g><path d="m9 10.25v-2.5c0-.552.448-1 1-1h-2.25c-.552 0-1 .448-1 1v2.5c0 .552.448 1 1 1h2.25c-.552 0-1-.448-1-1z" fill="#d5dbe1" data-original="#d5dbe1" style="" class=""/></g><g><path d="m9 28.25v-12.5c0-.552.448-1 1-1h-2.25c-.552 0-1 .448-1 1v12.5c0 .552.448 1 1 1h2.25c-.552 0-1-.448-1-1z" fill="#0062b8" data-original="#00b871" style="" class=""/></g><g><path d="m22 19.25v-3.5c0-.552.448-1 1-1h-2.25c-.552 0-1 .448-1 1v3.5c0 .552.448 1 1 1h2.25c-.552 0-1-.448-1-1z" fill="#0062b8" data-original="#00b871" style="" class=""/></g><g><path d="m22 28.25v-3.5c0-.552.448-1 1-1h-2.25c-.552 0-1 .448-1 1v3.5c0 .552.448 1 1 1h2.25c-.552 0-1-.448-1-1z" fill="#0062b8" data-original="#00b871" style="" class=""/></g></g><g xmlns="http://www.w3.org/2000/svg" id="shadow"><g><path d="m9 10.25v-2.5c0-.552.448-1 1-1h-2.25c-.552 0-1 .448-1 1v2.5c0 .552.448 1 1 1h2.25c-.552 0-1-.448-1-1z" fill="#d5dbe1" data-original="#d5dbe1" style="" class=""/></g><g><path d="m9 28.25v-12.5c0-.552.448-1 1-1h-2.25c-.552 0-1 .448-1 1v12.5c0 .552.448 1 1 1h2.25c-.552 0-1-.448-1-1z" fill="#0062b8" data-original="#00b871" style="" class=""/></g><g><path d="m22 19.25v-3.5c0-.552.448-1 1-1h-2.25c-.552 0-1 .448-1 1v3.5c0 .552.448 1 1 1h2.25c-.552 0-1-.448-1-1z" fill="#0062b8" data-original="#00b871" style="" class=""/></g><g><path d="m22 28.25v-3.5c0-.552.448-1 1-1h-2.25c-.552 0-1 .448-1 1v3.5c0 .552.448 1 1 1h2.25c-.552 0-1-.448-1-1z" fill="#0062b8" data-original="#00b871" style="" class=""/></g></g><g xmlns="http://www.w3.org/2000/svg" id="regular"><g><path d="m28.25 12h-20.5c-.965 0-1.75-.785-1.75-1.75v-2.5c0-.965.785-1.75 1.75-1.75h20.5c.965 0 1.75.785 1.75 1.75v2.5c0 .965-.785 1.75-1.75 1.75zm-20.5-4.5c-.138 0-.25.112-.25.25v2.5c0 .138.112.25.25.25h20.5c.138 0 .25-.112.25-.25v-2.5c0-.138-.112-.25-.25-.25z" fill="#000000" data-original="#000000" style="" class=""/></g><g><path d="m15.25 30h-7.5c-.965 0-1.75-.785-1.75-1.75v-12.5c0-.965.785-1.75 1.75-1.75h7.5c.965 0 1.75.785 1.75 1.75v12.5c0 .965-.785 1.75-1.75 1.75zm-7.5-14.5c-.138 0-.25.112-.25.25v12.5c0 .138.112.25.25.25h7.5c.138 0 .25-.112.25-.25v-12.5c0-.138-.112-.25-.25-.25z" fill="#000000" data-original="#000000" style="" class=""/></g><g><path d="m28.25 21h-7.5c-.965 0-1.75-.785-1.75-1.75v-3.5c0-.965.785-1.75 1.75-1.75h7.5c.965 0 1.75.785 1.75 1.75v3.5c0 .965-.785 1.75-1.75 1.75zm-7.5-5.5c-.138 0-.25.112-.25.25v3.5c0 .138.112.25.25.25h7.5c.138 0 .25-.112.25-.25v-3.5c0-.138-.112-.25-.25-.25z" fill="#000000" data-original="#000000" style="" class=""/></g><g><path d="m28.25 30h-7.5c-.965 0-1.75-.785-1.75-1.75v-3.5c0-.965.785-1.75 1.75-1.75h7.5c.965 0 1.75.785 1.75 1.75v3.5c0 .965-.785 1.75-1.75 1.75zm-7.5-5.5c-.138 0-.25.112-.25.25v3.5c0 .138.112.25.25.25h7.5c.138 0 .25-.112.25-.25v-3.5c0-.138-.112-.25-.25-.25z" fill="#000000" data-original="#000000" style="" class=""/></g></g></g></svg>
