<?xml version="1.0"?>
<svg xmlns="http://www.w3.org/2000/svg" xmlns:xlink="http://www.w3.org/1999/xlink" xmlns:svgjs="http://svgjs.com/svgjs" version="1.1" width="512" height="512" x="0" y="0" viewBox="0 0 36 36" style="enable-background:new 0 0 512 512" xml:space="preserve" class=""><g><g xmlns="http://www.w3.org/2000/svg" id="bg"><g><path d="m13.411 34.999c6.298-2.859 12.105-1.559 15.14-2.936 3.035-1.378 8.617-6.016 2.28-19.978s-15.841-12.12-19.18-10.605c-15.632 7.095-9.395 38.582 1.76 33.519z" fill="#efefef" data-original="#efefef" style="" class=""/></g></g><g xmlns="http://www.w3.org/2000/svg" id="effect"><g><path d="m33.229 14.924c-.827 0-1.5-.673-1.5-1.5s.673-1.5 1.5-1.5 1.5.673 1.5 1.5-.673 1.5-1.5 1.5zm0-2c-.275 0-.5.224-.5.5s.225.5.5.5.5-.224.5-.5-.225-.5-.5-.5z" fill="#a4afc1" data-original="#a4afc1" style=""/></g><g><g><path d="m3.5 28.25h1v2h-1z" fill="#a4afc1" data-original="#a4afc1" style=""/></g><g><path d="m3.5 34h1v2h-1z" fill="#a4afc1" data-original="#a4afc1" style=""/></g><g><path d="m0 31.5h2v1h-2z" fill="#a4afc1" data-original="#a4afc1" style=""/></g><g><path d="m5.75 31.5h2v1h-2z" fill="#a4afc1" data-original="#a4afc1" style=""/></g></g></g><g xmlns="http://www.w3.org/2000/svg" id="color"><g><path d="m28.25 29.25h-12.5c-.552 0-1-.448-1-1v-2.5c0-.552.448-1 1-1h12.5c.552 0 1 .448 1 1v2.5c0 .552-.448 1-1 1z" fill="#2f3adf" data-original="#2fdf84" style="" class=""/></g><g><path d="m28.25 11.25h-12.5c-.552 0-1-.448-1-1v-2.5c0-.552.448-1 1-1h12.5c.552 0 1 .448 1 1v2.5c0 .552-.448 1-1 1z" fill="#f3f3f1" data-original="#f3f3f1" style=""/></g><g><path d="m9 11.25c-1.243 0-2.25-1.007-2.25-2.25s1.007-2.25 2.25-2.25 2.25 1.007 2.25 2.25-1.007 2.25-2.25 2.25z" fill="#f3f3f1" data-original="#f3f3f1" style=""/></g><g><path d="m9 29.25c-1.243 0-2.25-1.007-2.25-2.25s1.007-2.25 2.25-2.25 2.25 1.007 2.25 2.25-1.007 2.25-2.25 2.25z" fill="#2f3adf" data-original="#2fdf84" style="" class=""/></g><g><path d="m7.75 20.25h12.5c.552 0 1-.448 1-1v-2.5c0-.552-.448-1-1-1h-12.5c-.552 0-1 .448-1 1v2.5c0 .552.448 1 1 1z" fill="#2f3adf" data-original="#2fdf84" style="" class=""/></g><g><path d="m27 20.25c1.243 0 2.25-1.007 2.25-2.25s-1.007-2.25-2.25-2.25-2.25 1.007-2.25 2.25 1.007 2.25 2.25 2.25z" fill="#2f3adf" data-original="#2fdf84" style="" class=""/></g></g><g xmlns="http://www.w3.org/2000/svg" id="shadow"><g><path d="m17 28.25v-2.5c0-.552.448-1 1-1h-2.25c-.552 0-1 .448-1 1v2.5c0 .552.448 1 1 1h2.25c-.552 0-1-.448-1-1z" fill="#346abf" data-original="#00b871" style="" class=""/></g><g><path d="m17 10.25v-2.5c0-.552.448-1 1-1h-2.25c-.552 0-1 .448-1 1v2.5c0 .552.448 1 1 1h2.25c-.552 0-1-.448-1-1z" fill="#d5dbe1" data-original="#d5dbe1" style=""/></g><g><path d="m9 9c0-.831.455-1.548 1.125-1.938-.332-.193-.713-.312-1.125-.312-1.243 0-2.25 1.007-2.25 2.25s1.007 2.25 2.25 2.25c.412 0 .793-.119 1.125-.312-.67-.39-1.125-1.107-1.125-1.938z" fill="#d5dbe1" data-original="#d5dbe1" style=""/></g><g><path d="m9 27c0-.831.455-1.548 1.125-1.938-.332-.193-.713-.312-1.125-.312-1.243 0-2.25 1.007-2.25 2.25s1.007 2.25 2.25 2.25c.412 0 .793-.119 1.125-.312-.67-.39-1.125-1.107-1.125-1.938z" fill="#346abf" data-original="#00b871" style="" class=""/></g><g><path d="m9 19.25v-2.5c0-.552.448-1 1-1h-2.25c-.552 0-1 .448-1 1v2.5c0 .552.448 1 1 1h2.25c-.552 0-1-.448-1-1z" fill="#346abf" data-original="#00b871" style="" class=""/></g><g><path d="m27 18c0-.831.455-1.548 1.125-1.938-.332-.193-.713-.312-1.125-.312-1.243 0-2.25 1.007-2.25 2.25s1.007 2.25 2.25 2.25c.412 0 .793-.119 1.125-.312-.67-.39-1.125-1.107-1.125-1.938z" fill="#346abf" data-original="#00b871" style="" class=""/></g></g><g xmlns="http://www.w3.org/2000/svg" id="regular"><g><path d="m28.25 30h-12.5c-.965 0-1.75-.785-1.75-1.75v-2.5c0-.965.785-1.75 1.75-1.75h12.5c.965 0 1.75.785 1.75 1.75v2.5c0 .965-.785 1.75-1.75 1.75zm-12.5-4.5c-.138 0-.25.112-.25.25v2.5c0 .138.112.25.25.25h12.5c.138 0 .25-.112.25-.25v-2.5c0-.138-.112-.25-.25-.25z" fill="#000000" data-original="#000000" style="" class=""/></g><g><path d="m28.25 12h-12.5c-.965 0-1.75-.785-1.75-1.75v-2.5c0-.965.785-1.75 1.75-1.75h12.5c.965 0 1.75.785 1.75 1.75v2.5c0 .965-.785 1.75-1.75 1.75zm-12.5-4.5c-.138 0-.25.112-.25.25v2.5c0 .138.112.25.25.25h12.5c.138 0 .25-.112.25-.25v-2.5c0-.138-.112-.25-.25-.25z" fill="#000000" data-original="#000000" style="" class=""/></g><g><path d="m9 12c-1.654 0-3-1.346-3-3s1.346-3 3-3 3 1.346 3 3-1.346 3-3 3zm0-4.5c-.827 0-1.5.673-1.5 1.5s.673 1.5 1.5 1.5 1.5-.673 1.5-1.5-.673-1.5-1.5-1.5z" fill="#000000" data-original="#000000" style="" class=""/></g><g><path d="m9 30c-1.654 0-3-1.346-3-3s1.346-3 3-3 3 1.346 3 3-1.346 3-3 3zm0-4.5c-.827 0-1.5.673-1.5 1.5s.673 1.5 1.5 1.5 1.5-.673 1.5-1.5-.673-1.5-1.5-1.5z" fill="#000000" data-original="#000000" style="" class=""/></g><g><path d="m20.25 21h-12.5c-.965 0-1.75-.785-1.75-1.75v-2.5c0-.965.785-1.75 1.75-1.75h12.5c.965 0 1.75.785 1.75 1.75v2.5c0 .965-.785 1.75-1.75 1.75zm-12.5-4.5c-.138 0-.25.112-.25.25v2.5c0 .138.112.25.25.25h12.5c.138 0 .25-.112.25-.25v-2.5c0-.138-.112-.25-.25-.25z" fill="#000000" data-original="#000000" style="" class=""/></g><g><path d="m27 21c-1.654 0-3-1.346-3-3s1.346-3 3-3 3 1.346 3 3-1.346 3-3 3zm0-4.5c-.827 0-1.5.673-1.5 1.5s.673 1.5 1.5 1.5 1.5-.673 1.5-1.5-.673-1.5-1.5-1.5z" fill="#000000" data-original="#000000" style="" class=""/></g></g></g></svg>
