<?xml version="1.0"?>
<svg xmlns="http://www.w3.org/2000/svg" xmlns:xlink="http://www.w3.org/1999/xlink" xmlns:svgjs="http://svgjs.com/svgjs" version="1.1" width="512" height="512" x="0" y="0" viewBox="0 0 36 36" style="enable-background:new 0 0 512 512" xml:space="preserve" class=""><g><path xmlns="http://www.w3.org/2000/svg" d="m34.904 20.355c-3.782-5.791-3.38-11.727-5.203-14.518s-7.256-7.603-20.093.782-9.572 17.5-7.566 20.569c9.388 14.372 39.561 3.423 32.862-6.833z" fill="#efefef" data-original="#efefef" style="" class=""/><g xmlns="http://www.w3.org/2000/svg" fill="#a4afc1"><path d="m27.664 30.023h2v1h-2z" transform="matrix(.707 -.707 .707 .707 -13.188 29.209)" fill="#a4afc1" data-original="#a4afc1" style=""/><path d="m31.73 25.957h2v1h-2z" transform="matrix(.707 -.707 .707 .707 -9.122 30.893)" fill="#a4afc1" data-original="#a4afc1" style=""/><path d="m32.23 29.699h1v2h-1z" transform="matrix(.707 -.707 .707 .707 -12.122 32.12)" fill="#a4afc1" data-original="#a4afc1" style=""/><path d="m14.127 5.312c-.827 0-1.5-.673-1.5-1.5s.673-1.5 1.5-1.5 1.5.673 1.5 1.5-.673 1.5-1.5 1.5zm0-2c-.276 0-.5.225-.5.5s.224.5.5.5.5-.225.5-.5-.224-.5-.5-.5z" fill="#a4afc1" data-original="#a4afc1" style=""/></g><circle xmlns="http://www.w3.org/2000/svg" cx="26" cy="21" fill="#f3f3f1" r="1.25" data-original="#f3f3f1" style=""/><circle xmlns="http://www.w3.org/2000/svg" cx="10" cy="21" fill="#f3f3f1" r="1.25" data-original="#f3f3f1" style=""/><circle xmlns="http://www.w3.org/2000/svg" cx="18" cy="20.5" fill="#2f63df" r="2.25" data-original="#2fdf84" style="" class=""/><path xmlns="http://www.w3.org/2000/svg" d="m13.25 29.25v-1.5c0-1.105.895-2 2-2h5.5c1.105 0 2 .895 2 2v1.5z" fill="#2f63df" data-original="#2fdf84" style="" class=""/><path xmlns="http://www.w3.org/2000/svg" d="m18.013 13.791-2.622 1.459.491-3.074-2.132-2.168 2.935-.458 1.304-2.8 1.323 2.791 2.938.438-2.118 2.183.513 3.07z" fill="#2f63df" data-original="#2fdf84" style="" class=""/><path xmlns="http://www.w3.org/2000/svg" d="m25.043 9.891.997-2.141 1.011 2.134 2.247.335-1.619 1.669.392 2.348-2.013-1.102-2.005 1.116.376-2.351z" fill="#f3f3f1" data-original="#f3f3f1" style=""/><path xmlns="http://www.w3.org/2000/svg" d="m10.957 9.891-.997-2.141-1.011 2.134-2.247.335 1.619 1.669-.392 2.348 2.013-1.102 2.005 1.116-.376-2.351z" fill="#f3f3f1" data-original="#f3f3f1" style=""/><path xmlns="http://www.w3.org/2000/svg" d="m17.25 25.75h-2c-1.105 0-2 .895-2 2v1.5h2v-1.5c0-1.105.895-2 2-2z" fill="#002eb8" data-original="#00b871" style="" class=""/><path xmlns="http://www.w3.org/2000/svg" d="m17.75 20.5c0-.882.512-1.637 1.25-2.006-.302-.151-.639-.244-1-.244-1.243 0-2.25 1.007-2.25 2.25s1.007 2.25 2.25 2.25c.361 0 .698-.093 1-.244-.738-.369-1.25-1.125-1.25-2.006z" fill="#002eb8" data-original="#00b871" style="" class=""/><path xmlns="http://www.w3.org/2000/svg" d="m9.942 13.134.157.087.222-1.333-1.619-1.669 2.247-.335.002-.006-.991-2.128-1.011 2.134-2.247.335 1.619 1.669-.392 2.348z" fill="#d5dbe1" data-original="#d5dbe1" style=""/><path xmlns="http://www.w3.org/2000/svg" d="m10.934 13.686 1.013.564-.165-1.029z" fill="#d5dbe1" data-original="#d5dbe1" style=""/><path xmlns="http://www.w3.org/2000/svg" d="m24.218 13.221-.165 1.029 1.013-.564z" fill="#d5dbe1" data-original="#d5dbe1" style=""/><path xmlns="http://www.w3.org/2000/svg" d="m29.298 10.219-2.247-.335-1.011-2.134-.991 2.128.002.006 2.247.335-1.619 1.669.222 1.333.157-.087 2.013 1.102-.392-2.348z" fill="#d5dbe1" data-original="#d5dbe1" style=""/><path xmlns="http://www.w3.org/2000/svg" d="m17.586 14.028.296-1.852-2.132-2.168 2.935-.458.313-.672-1.009-2.128-1.304 2.8-2.935.458 2.132 2.168-.491 3.074z" fill="#002eb8" data-original="#00b871" style="" class=""/><path xmlns="http://www.w3.org/2000/svg" d="m20.013 13.791-.992.552 1.624.889-.202-1.206z" fill="#002eb8" data-original="#00b871" style="" class=""/><path xmlns="http://www.w3.org/2000/svg" d="m26 23c-1.103 0-2-.897-2-2s.897-2 2-2 2 .897 2 2-.897 2-2 2zm0-2.5c-.276 0-.5.225-.5.5s.224.5.5.5.5-.225.5-.5-.224-.5-.5-.5z" fill="#000000" data-original="#000000" style="" class=""/><path xmlns="http://www.w3.org/2000/svg" d="m30 27.25h-1.5v-.5c0-.689-.561-1.25-1.25-1.25h-2.5v-1.5h2.5c1.517 0 2.75 1.233 2.75 2.75z" fill="#000000" data-original="#000000" style="" class=""/><path xmlns="http://www.w3.org/2000/svg" d="m10 23c-1.103 0-2-.897-2-2s.897-2 2-2 2 .897 2 2-.897 2-2 2zm0-2.5c-.276 0-.5.225-.5.5s.224.5.5.5.5-.225.5-.5-.224-.5-.5-.5z" fill="#000000" data-original="#000000" style="" class=""/><path xmlns="http://www.w3.org/2000/svg" d="m7.5 27.25h-1.5v-.5c0-1.517 1.233-2.75 2.75-2.75h2.5v1.5h-2.5c-.689 0-1.25.561-1.25 1.25z" fill="#000000" data-original="#000000" style="" class=""/><path xmlns="http://www.w3.org/2000/svg" d="m18 23.5c-1.654 0-3-1.346-3-3s1.346-3 3-3 3 1.346 3 3-1.346 3-3 3zm0-4.5c-.827 0-1.5.673-1.5 1.5s.673 1.5 1.5 1.5 1.5-.673 1.5-1.5-.673-1.5-1.5-1.5z" fill="#000000" data-original="#000000" style="" class=""/><path xmlns="http://www.w3.org/2000/svg" d="m23.5 29.25h-1.5v-1.5c0-.689-.561-1.25-1.25-1.25h-5.5c-.689 0-1.25.561-1.25 1.25v1.5h-1.5v-1.5c0-1.517 1.233-2.75 2.75-2.75h5.5c1.517 0 2.75 1.233 2.75 2.75z" fill="#000000" data-original="#000000" style="" class=""/><path xmlns="http://www.w3.org/2000/svg" d="m15.391 16c-.151 0-.301-.046-.43-.136-.235-.164-.356-.449-.311-.732l.432-2.7-1.867-1.897c-.197-.201-.266-.495-.177-.762.088-.268.318-.462.596-.506l2.54-.396 1.135-2.437c.123-.264.386-.433.677-.434h.002c.29 0 .554.167.678.429l1.152 2.43 2.542.378c.278.042.51.235.6.502.09.266.024.561-.172.763l-1.854 1.911.45 2.697c.047.283-.071.568-.306.734-.234.165-.542.184-.794.047l-2.269-1.243-2.26 1.258c-.113.063-.238.094-.364.094zm-.082-5.477 1.108 1.126c.167.17.244.409.206.645l-.248 1.55 1.272-.708c.226-.125.5-.126.725-.003l1.278.7-.258-1.548c-.039-.234.036-.475.201-.646l1.101-1.135-1.493-.222c-.248-.037-.46-.195-.567-.421l-.639-1.349-.63 1.353c-.105.227-.317.386-.564.425z" fill="#000000" data-original="#000000" style="" class=""/><path xmlns="http://www.w3.org/2000/svg" d="m24.053 15c-.151 0-.301-.046-.43-.136-.235-.164-.356-.449-.311-.732l.375-2.351 1.481.236-.132.826.656-.365c.226-.125.5-.126.725-.003l.658.361-.138-.825c-.039-.234.036-.475.201-.646l.603-.621-.802-.119c-.248-.037-.46-.195-.567-.421l-.328-.691-.323.693-1.359-.633.997-2.141c.124-.262.388-.431.679-.432h.002c.29 0 .554.167.678.429l.84 1.772 1.851.275c.278.042.51.235.6.502s.024.561-.172.763l-1.356 1.397.329 1.975c.047.283-.071.568-.306.734-.234.165-.542.184-.794.047l-1.649-.904-1.643.915c-.114.064-.239.095-.365.095z" fill="#000000" data-original="#000000" style="" class=""/><path xmlns="http://www.w3.org/2000/svg" d="m11.947 15c-.125 0-.251-.031-.365-.095l-1.643-.915-1.649.905c-.253.137-.561.118-.794-.047-.234-.166-.353-.451-.306-.734l.329-1.975-1.356-1.397c-.196-.202-.262-.496-.172-.763s.322-.46.6-.502l1.851-.275.84-1.772c.124-.263.388-.43.678-.43h.002c.291.001.555.17.677.434l.997 2.141-1.359.633-.323-.694-.328.691c-.107.226-.32.384-.567.421l-.802.119.603.621c.166.171.24.411.201.646l-.138.825.658-.361c.227-.124.5-.123.725.003l.656.365-.132-.826 1.481-.236.375 2.351c.045.283-.075.568-.311.732-.127.089-.277.135-.428.135z" fill="#000000" data-original="#000000" style="" class=""/></g></svg>
