<svg xmlns="http://www.w3.org/2000/svg" version="1.1" xmlns:xlink="http://www.w3.org/1999/xlink" xmlns:svgjs="http://svgjs.com/svgjs" width="512" height="512" x="0" y="0" viewBox="0 0 36 36" style="enable-background:new 0 0 512 512" xml:space="preserve" class=""><g><path xmlns="http://www.w3.org/2000/svg" d="m4.1666665 8.3767748c0 6.916666-3.5833333 11.666667-3.5833333 14.999999s1.9166668 10.3333359 17.2500008 10.3333359 17.583334-9.4166679 17.583334-13.0833359c-.0000001-17.166666-31.2500015-24.4999993-31.2500015-12.249999z" fill="#efefef" data-original="#efefef" class=""></path><path xmlns="http://www.w3.org/2000/svg" d="m4.75 5.625h2v1h-2z" fill="#a4afc1" data-original="#a4afc1"></path><path xmlns="http://www.w3.org/2000/svg" d="m7.75 2.375h1v2h-1z" fill="#a4afc1" data-original="#a4afc1"></path><path xmlns="http://www.w3.org/2000/svg" d="m13.5 17.5v2.9429436c0 .3463173.1762228.678791.4736452.8562031 2.6842375 1.6011372 5.3684721 1.6011372 8.0527086 0 .2974244-.1774121.4736462-.5098858.4736462-.8562031v-2.9429436z" fill="#2f74df" data-original="#2fdf84" class=""></path><path xmlns="http://www.w3.org/2000/svg" d="m11.5 16.5 6.5-3 6.5 3-6.5 3z" fill="#2f74df" data-original="#2fdf84" class=""></path><path xmlns="http://www.w3.org/2000/svg" d="m15.9736328 21.2994747c-.2974243-.1774292-.4736328-.5098877-.4736328-.8562012v-2.9429321h-2v2.9429321c0 .3463135.1762085.678772.4736328.8562012 1.6754761.9993897 3.3509522 1.3745117 5.0263672 1.1262818-1.0087891-.1494141-2.0175781-.5245362-3.0263672-1.1262818z" fill="#115dbd" data-original="#00b871" class=""></path><path xmlns="http://www.w3.org/2000/svg" d="m13.5 16.5001144 5.5-2.5384531-1-.4615478-6.5 3.0000009 6.5 3 1-.4615478z" fill="#115dbd" data-original="#00b871" class=""></path><path xmlns="http://www.w3.org/2000/svg" d="m18 23c-1.4306641 0-2.8613281-.4238281-4.2822266-1.2714844-.4433593-.2636718-.7177734-.7563476-.7177734-1.2856445v-2.9428711c0-.2763672.2236328-.5.5-.5s.5.2236328.5.5v2.9428711c0 .1762695.0898438.34375.2294922.4272461 2.5380859 1.5131836 5.0048828 1.5131836 7.5410156 0 .1396485-.0834961.2294922-.2509766.2294922-.4272461v-2.9428711c0-.2763672.2236328-.5.5-.5s.5.2236328.5.5v2.9428711c0 .5292969-.2744141 1.0219727-.7177734 1.2856445-1.4208985.8476563-2.8515625 1.2714844-4.2822266 1.2714844z" fill="#000000" data-original="#000000" class=""></path><path xmlns="http://www.w3.org/2000/svg" d="m18 20c-.0712891 0-.1425781-.0151367-.2099609-.0458984l-6.5-3c-.1767578-.0820313-.2900391-.2592774-.2900391-.4541016s.1132813-.3720703.2900391-.4541016l6.5-3c.1347656-.0615234.2851563-.0615234.4199219 0l6.5 3c.1767578.0820313.290039.2592774.290039.4541016s-.1132813.3720703-.2900391.4541016l-6.5 3c-.0673828.0307617-.1386718.0458984-.2099609.0458984zm-5.3066406-3.5 5.3066406 2.4492188 5.3066406-2.4492188-5.3066406-2.4492187z" fill="#000000" data-original="#000000" class=""></path><path xmlns="http://www.w3.org/2000/svg" d="m6.7695313 21c-.2294922 0-.4355469-.1577148-.4882813-.390625-.1865234-.831543-.28125-1.7099609-.28125-2.609375 0-6.6166992 5.3828125-12 12-12 3.7998047 0 7.4082031 1.8295898 9.6533203 4.8945313.1630859.2226563.1152344.5356445-.1074219.6987305-.2246094.1630859-.5361328.1147461-.6992188-.1079102-2.0576171-2.8085938-5.3642577-4.4853516-8.8466796-4.4853516-6.0654297 0-11 4.9345703-11 11 0 .8261719.0869141 1.6303711.2578125 2.390625.0605469.269043-.109375.5366211-.3789063.597168-.0371093.0083008-.0732421.012207-.1093749.012207z" fill="#000000" data-original="#000000" class=""></path><path xmlns="http://www.w3.org/2000/svg" d="m18 30c-3.7998047 0-7.4082031-1.8295898-9.6533203-4.8945313-.1630859-.2226563-.1152344-.5356445.1074219-.6987305.2236328-.1635742.5361328-.1152344.6992188.1079102 2.0576171 2.8085938 5.3642577 4.4853516 8.8466796 4.4853516 6.0654297 0 11-4.9345703 11-11 0-.8388672-.0898438-1.6411133-.2666016-2.3842773-.0644531-.2685547.1015625-.5380859.3701172-.6020508.2714844-.065918.5390625.1015625.6025391.3706055.1953125.8188476.2939453 1.6992187.2939453 2.6157226 0 6.6166992-5.3828125 12-12 12z" fill="#000000" data-original="#000000" class=""></path><path xmlns="http://www.w3.org/2000/svg" d="m8.5498047 30c-.2744141 0-.4970703-.2207031-.5-.4951172l-.0498047-5c-.0009766-.1333008.0507813-.2617188.1445313-.3564453.09375-.0952148.2216796-.1484375.3554687-.1484375h5c.2763672 0 .5.2236328.5.5s-.2236328.5-.5.5h-4.4951172l.0449219 4.4951172c.0029297.2758789-.21875.5019531-.4951172.5048828-.0019531 0-.0029297 0-.0048828 0z" fill="#000000" data-original="#000000" class=""></path><path xmlns="http://www.w3.org/2000/svg" d="m27.5 12h-5c-.2763672 0-.5-.2236328-.5-.5s.2236328-.5.5-.5h4.5v-4.5c0-.2763672.2236328-.5.5-.5s.5.2236328.5.5v5c0 .2763672-.2236328.5-.5.5z" fill="#000000" data-original="#000000" class=""></path></g></svg>