<svg xmlns="http://www.w3.org/2000/svg" version="1.1" xmlns:xlink="http://www.w3.org/1999/xlink" xmlns:svgjs="http://svgjs.com/svgjs" width="512" height="512" x="0" y="0" viewBox="0 0 36 36" style="enable-background:new 0 0 512 512" xml:space="preserve" class=""><g><path xmlns="http://www.w3.org/2000/svg" d="m31.833334 8.3767748c0 6.916666 3.583334 11.666667 3.583334 14.999999s-1.916668 10.3333359-17.250002 10.3333359-17.5833327-9.4166679-17.5833327-13.0833359c0-17.166666 31.2500007-24.4999993 31.2500007-12.249999z" fill="#efefef" data-original="#efefef" class=""></path><g xmlns="http://www.w3.org/2000/svg" fill="#a4afc1"><path d="m27.952 2.684h1v2h-1z" transform="matrix(.707 -.707 .707 .707 5.722 21.19)" fill="#a4afc1" data-original="#a4afc1"></path><path d="m32.018 6.75h1v2h-1z" transform="matrix(.707 -.707 .707 .707 4.044 25.263)" fill="#a4afc1" data-original="#a4afc1"></path><path d="m31.341 3.184h2v1h-2z" transform="matrix(.707 -.707 .707 .707 6.867 23.947)" fill="#a4afc1" data-original="#a4afc1"></path></g><path xmlns="http://www.w3.org/2000/svg" d="m9.5 8.5h-2c-.5500002.0100002-1 .4499998-1 1v12c0 .5499992.4499998 1 1 1h7 12c.5522842 0 1-.4477158 1-1v-12c0-.5500002-.4500008-1-1-1h-2z" fill="#2f74df" data-original="#2fdf84" class=""></path><path xmlns="http://www.w3.org/2000/svg" d="m23.8868408 6.9244995c-2.2955932-1.5363159-5.5114136.8253174-6.8868408 1.4998779-1.3754272-.6745605-4.5912476-3.0361938-6.8868408-1.4998779-.3970947.2657471-.612915.7325439-.612915 1.2103882v11.5565186c0 .572998.550354.7279053 1.1164551.6394043 2.3831786-.3724976 4.7909545.9816284 6.3833007 1.5935668 1.5923462-.6119385 4.0001221-1.9660645 6.3833008-1.5935669.5661011.088501 1.1164551-.0664063 1.1164551-.6394043v-11.5565185c0-.4778442-.2158204-.9446411-.6129151-1.2103882z" fill="#f3f3f1" data-original="#f3f3f1" class=""></path><path xmlns="http://www.w3.org/2000/svg" d="m22.5900002 26.9300003c1.5499992-.2000008 2.8600006-.6300011 3.9099998-1.2600002v-2.1700001h2.2099991c.7400017-1.2399998.9700012-2.7700005.6600018-4.5100002-.0799999-.4300003-.5700016-.6399994-.9000015-.3600006-3.3899995 2.9300003-5.6099988 6.6200008-6.9699994 10.8700008z" fill="#2f74df" data-original="#2fdf84" class=""></path><path xmlns="http://www.w3.org/2000/svg" d="m29.4331665 19.5961304c-.0216675-.2023926-.026001-.397583-.0631714-.6061401-.0800171-.4299927-.5700073-.6400146-.9000244-.3599854-3.3899536 2.9299927-5.8799438 8.2999878-5.8799438 8.2999878.7479248-.0964966 1.4370117-.2492065 2.0709229-.4494629 1.1672973-2.5701294 2.7332763-4.8809815 4.7722167-6.8843994z" fill="#115dbd" data-original="#00b871" class=""></path><path xmlns="http://www.w3.org/2000/svg" d="m8.5 21.5v-12c0-.5499878.4500122-.9899902 1-1h-2c-.5499878.0100098-1 .4500122-1 1v12c0 .5499878.4500122 1 1 1h2c-.5499878 0-1-.4500122-1-1z" fill="#115dbd" data-original="#00b871" class=""></path><path xmlns="http://www.w3.org/2000/svg" d="m11.5002441 19.6914063v-11.5565186c0-.4778442.2158203-.9446411.612915-1.2103882.263855-.1765747.5409546-.2963867.8249512-.378479-.973999-.2255859-1.9641724-.1975708-2.8249512.378479-.3970947.2657471-.612915.7325439-.612915 1.2103882v11.5565186c0 .572998.550354.7279053 1.1164551.6394043.4780273-.074707.9555664-.065918 1.428833-.0216064-.3103637-.0701295-.5452881-.2514039-.5452881-.6177979z" fill="#d5dbe1" data-original="#d5dbe1" class=""></path><path xmlns="http://www.w3.org/2000/svg" d="m21.5 30c-.0507813 0-.1015625-.0078125-.1523438-.0234375-.2626953-.0849609-.4082031-.3662109-.3242188-.6289063 1.4726563-4.5986328 3.8007813-8.2275391 7.1191406-11.0957031.2871094-.2441406.6630859-.3125 1.0136719-.1894531.3632813.1298828.6337891.4501953.7050781.8359375.3320313 1.8662109.0888672 3.4990234-.7216797 4.8574219-.0908202.1513672-.2539061.2441406-.4296874.2441406h-1.7099609v1.6699219c0 .1757813-.0917969.3388672-.2431641.4287109-1.0908203.6542969-2.421875 1.09375-3.9580078 1.3076172-.2998047.7207031-.5742188 1.46875-.8222656 2.2460938-.0683594.2128906-.2646484.3476562-.4765625.3476562zm6.9697266-11.3701172.3271484.3779297c-2.328125 2.0126953-4.1494141 4.421875-5.5126953 7.3056641 1.0292969-.1953125 1.9394531-.5078125 2.7158203-.9335938v-1.8798828c0-.2763672.2236328-.5.5-.5h1.9169922c.5732422-1.0996094.7285156-2.4169922.4609375-3.921875z" fill="#000000" data-original="#000000" class=""></path><path xmlns="http://www.w3.org/2000/svg" d="m17 23c-.1171875 0-.234375-.0410156-.3291016-.1230469-1.8681641-1.6298828-3.8271484-2.3037109-5.984375-2.0595703-.4404297.0488281-.8691406-.0859375-1.1914063-.3740234-.314453-.2802735-.4951171-.6826172-.4951171-1.1035156v-11.75c0-.7480469.5595703-1.390625 1.3007813-1.4951172 2.3867187-.3535157 4.640625.3115234 6.6992187 1.9824218 2.0576172-1.6708984 4.3164063-2.3398438 6.703125-1.9814453.7373047.1035157 1.296875.7460938 1.296875 1.4941407v10.9101562c0 .2763672-.2236328.5-.5.5s-.5-.2236328-.5-.5v-10.9101562c0-.2529297-.1894531-.4697266-.4394531-.5048828-2.2539063-.3320313-4.2900391.328125-6.2314453 2.0224609-.1894531.1640625-.46875.1640625-.6582031 0-1.9414063-1.6953125-3.9775391-2.3574219-6.2275391-2.0234375-.2539063.0361328-.4433594.2529297-.4433594.5058594v11.75c0 .1386719.0566406.2646484.1601563.3574219.1103516.0976563.2587891.1464844.4121094.1259766 2.2958984-.2548829 4.4541015.4208983 6.4277343 2.0234374 1.8164063-1.4746094 3.8007813-2.1708984 5.8642578-2.0654297.2763672.0136719.4882813.2480469.4746094.5234375-.0126953.2753906-.2558594.5146484-.5234375.4746094-1.9619141-.0986328-3.7568359.5878906-5.4863281 2.0976563-.0947266.0820312-.2119141.1230468-.3291016.1230468z" fill="#000000" data-original="#000000" class=""></path><path xmlns="http://www.w3.org/2000/svg" d="m27.5 16c-.2763672 0-.5-.2236328-.5-.5v-6c0-.2753906-.2246094-.5-.5-.5h-2c-.2763672 0-.5-.2236328-.5-.5s.2236328-.5.5-.5h2c.8271484 0 1.5.6728516 1.5 1.5v6c0 .2763672-.2236328.5-.5.5z" fill="#000000" data-original="#000000" class=""></path><path xmlns="http://www.w3.org/2000/svg" d="m21.5 23h-14c-.8271484 0-1.5-.6728516-1.5-1.5v-12c0-.8125.6689453-1.4853516 1.4912109-1.5h2.0087891c.2763672 0 .5.2236328.5.5s-.2236328.5-.5.5h-2c-.2714844.0048828-.5.2294922-.5.5v12c0 .2753906.2246094.5.5.5h14c.2763672 0 .5.2236328.5.5s-.2236328.5-.5.5z" fill="#000000" data-original="#000000" class=""></path><path xmlns="http://www.w3.org/2000/svg" d="m17 23c-.2763672 0-.5-.2236328-.5-.5v-14c0-.2763672.2236328-.5.5-.5s.5.2236328.5.5v14c0 .2763672-.2236328.5-.5.5z" fill="#000000" data-original="#000000" class=""></path></g></svg>