<svg xmlns="http://www.w3.org/2000/svg" viewBox="0 0 465.36 512"><defs><style>.cls-1{fill:#f8fafc;}.cls-1,.cls-10,.cls-2,.cls-3,.cls-4,.cls-5,.cls-6,.cls-7,.cls-8,.cls-9{fill-rule:evenodd;}.cls-2{fill:#d15573;}.cls-3{fill:#fbf2e2;}.cls-4{fill:#faef93;}.cls-5{fill:#d6e1ef;}.cls-6{fill:#9ce3bf;}.cls-7{fill:#52cd8d;}.cls-8{fill:#c21d44;}.cls-9{fill:#f7e0ba;}.cls-10{fill:#efc17a;}.cls-11{fill:#fff;}</style></defs><title>2Asset 1</title><g id="Layer_2" data-name="Layer 2"><g id="Capa_1" data-name="Capa 1"><path class="cls-1" d="M7.5,7.5v497H307.86v-60h60v-127c-58.87-23.78-90-76.3-90-145v-30a30,30,0,0,0,30-30h60V7.5ZM187.68,248.75a37.61,37.61,0,0,1-37.5-37.5v-45a15,15,0,0,1,15-15h45a15,15,0,0,1,15,15v45A37.6,37.6,0,0,1,187.68,248.75Zm-52.5,85.5v-33a52.5,52.5,0,0,1,105,0v33Z"/><path class="cls-2" d="M187.68,248.75a52.66,52.66,0,0,0-52.5,52.5v33h105v-33a52.65,52.65,0,0,0-52.5-52.5Z"/><path class="cls-3" d="M150.18,211.25a37.5,37.5,0,0,0,75,0v-22.5l-37.5-7.5-37.5,7.5Z"/><path class="cls-4" d="M150.18,188.75l37.5-7.5,37.5,7.5v-22.5a15,15,0,0,0-15-15h-45a15,15,0,0,0-15,15Z"/><path class="cls-5" d="M367.86,444.5h-60v60Z"/><path class="cls-6" d="M277.86,172.5c0,68.7,31.13,121.22,90,145,58.88-23.78,90-76.3,90-145v-30a30,30,0,0,1-30-30h-120a30,30,0,0,1-30,30Zm105,72.5h-30V222.5h-22.5v-30h22.5V170h30v22.5h22.5v30h-22.5Z"/><path class="cls-7" d="M277.86,172.5c0,68.7,31.13,121.22,90,145a150.59,150.59,0,0,0,26.25-13.66c-69.71-23.44-93.75-74.14-93.75-143.9a52.49,52.49,0,0,0,30-47.44h-22.5a30,30,0,0,1-30,30Z"/><path class="cls-2" d="M330.36,192.5v30h22.5V245h30V222.5h22.5v-30h-22.5V170h-30v22.5Z"/><path class="cls-5" d="M7.5,7.5v497H30V7.5ZM367.86,341.77V317.5c-58.87-23.78-90-76.3-90-145v-30a30,30,0,0,0,30-30h60V90h-82.5v22.5a7.49,7.49,0,0,1-7.5,7.5h-22.5v52.5c0,74,33.5,137.35,104.07,165.86Z"/><path class="cls-8" d="M187.68,248.75a52.66,52.66,0,0,0-52.5,52.5v33h22.5v-33A52.7,52.7,0,0,1,198.93,250,52.2,52.2,0,0,0,187.68,248.75Z"/><path class="cls-9" d="M150.18,211.25A37.58,37.58,0,0,0,198.93,247a37.66,37.66,0,0,1-26.25-35.77v-27l-22.5,4.5Z"/><path class="cls-10" d="M150.18,188.75l22.5-4.5v-18a15,15,0,0,1,15-15h-22.5a15,15,0,0,0-15,15Z"/><path class="cls-11" d="M345.36,75h-15V60h15Zm0-30h-15V30h15Z"/><path d="M180.18,497h15v15h-15Z"/><path d="M457.86,135a22.52,22.52,0,0,1-22.5-22.5V105h-60V0H0V512H165.18V497H15V15H360.36v90h-60v7.5a22.52,22.52,0,0,1-22.5,22.5h-7.5v37.5c0,35.88,8.09,67.26,24,93.26,15.46,25.21,37.65,44.26,66,56.7V437h-60v60H210.18v15H311l64.39-64.39V322.47c26.55-11.66,47.75-29.18,63.05-52.14L425.93,262c-14,20.95-33.49,36.87-58.07,47.37-53.23-22.74-82.5-71.23-82.5-136.88V149.25A37.63,37.63,0,0,0,314.61,120H421.12a37.62,37.62,0,0,0,29.24,29.25V172.5c0,29.27-5.79,55.28-17.23,77.3l13.31,6.91c12.56-24.17,18.92-52.5,18.92-84.21V135ZM349.76,452l-34.4,34.39V452Z"/><path d="M390.36,252.5V230h22.5V185h-22.5V162.5h-45V185h-22.5v45h22.5v22.5ZM337.86,215V200h22.5V177.5h15V200h22.5v15h-22.5v22.5h-15V215Z"/><path d="M127.68,301.25v40.5h120v-40.5A60.07,60.07,0,0,0,214.3,247.5a44.94,44.94,0,0,0,18.38-36.25v-45a22.53,22.53,0,0,0-22.5-22.5h-45a22.53,22.53,0,0,0-22.5,22.5v45a44.94,44.94,0,0,0,18.38,36.25A60.07,60.07,0,0,0,127.68,301.25Zm37.5-142.5h45a7.51,7.51,0,0,1,7.5,7.5V179.6l-30-6-30,6V166.25A7.52,7.52,0,0,1,165.18,158.75Zm-7.5,52.5V194.9l30-6,30,6v16.35a30,30,0,0,1-60,0Zm30,45a45.05,45.05,0,0,1,45,45v25.5h-90v-25.5A45.05,45.05,0,0,1,187.68,256.25Z"/><path d="M93.93,76.25h187.5v15H93.93Z"/><path d="M150.18,50h75V65h-75Z"/><path d="M90.18,364.25h195v15h-195Z"/><path d="M90.18,424.25h195v15h-195Z"/><path d="M150.18,106.25h75v15h-75Z"/><path d="M90.18,394.25h195v15h-195Z"/></g></g></svg>