<svg xmlns="http://www.w3.org/2000/svg" version="1.1" xmlns:xlink="http://www.w3.org/1999/xlink" xmlns:svgjs="http://svgjs.com/svgjs" width="512" height="512" x="0" y="0" viewBox="0 0 36 36" style="enable-background:new 0 0 512 512" xml:space="preserve" class=""><g><path xmlns="http://www.w3.org/2000/svg" d="m8.3767748 4.1666665c6.916666 0 11.666667-3.5833333 14.999999-3.5833333s10.3333359 1.9166668 10.3333359 17.2500008-9.4166679 17.583334-13.0833359 17.583334c-17.166666-.0000001-24.4999993-31.2500015-12.249999-31.2500015z" fill="#efefef" data-original="#efefef" class=""></path><path xmlns="http://www.w3.org/2000/svg" d="m7.5 27.4150391c-.8271484 0-1.5-.6728516-1.5-1.5s.6728516-1.5 1.5-1.5 1.5.6728516 1.5 1.5-.6728516 1.5-1.5 1.5zm0-2c-.2753906 0-.5.2246094-.5.5s.2246094.5.5.5.5-.2246094.5-.5-.2246094-.5-.5-.5z" fill="#a4afc1" data-original="#a4afc1"></path><path xmlns="http://www.w3.org/2000/svg" d="m15.7200003 15.3100004c-2.1000004.1599998-4.1999998.5299997-6.29 1.1199999-.9300003.2600002-1.9000001-.2000008-2.3200002-1.1400003-.8099999-1.8599997-.8099999-3.7200003 0-5.5799999.4200001-.9399996 1.3899999-1.3999997 2.3200002-1.1400004 2.2799997.6400003 4.5699997 1.0300007 6.8699989 1.1500006h3.4000015c2.2999993-.1199999 4.5900002-.5100003 6.869999-1.1500006.9300003-.2599993 1.8999996.2000008 2.3199997 1.1400003.8100014 1.8599997.8100014 3.7200003 0 5.5799999-.4200001.9399996-1.3899994 1.4000006-2.3199997 1.1400004-2.0900002-.5900002-4.1900005-.96-6.289999-1.1199999z" fill="#2f74df" data-original="#2fdf84" class=""></path><path xmlns="http://www.w3.org/2000/svg" d="m25.5 8.675972-.6248016-1.5620022c-.205719-.5143003-.7886906-.7438059-1.3037682-.5400386-3.714283 1.4693875-7.4285774 1.4693875-11.1428595 0-.5150776-.2037673-1.0980501.0257382-1.3037701.5400386l-.6248006 1.5620022s8 3.050972 15 0z" fill="#f3f3f1" data-original="#f3f3f1" class=""></path><path xmlns="http://www.w3.org/2000/svg" d="m16.5 7.75-1 9.75 2.5-2 2.5 2-1-9.75z" fill="#f3f3f1" data-original="#f3f3f1" class=""></path><path xmlns="http://www.w3.org/2000/svg" d="m24.443676 19.3719425c-.3742542.3742542-.3754559.9798317-.0026836 1.3526039l.6749592.6749592-.6749592-.6749592-.8999462-.8999462c-.3727722-.3727722-.9783516-.3715706-1.3526058.0026836-.3742523.3742542-.3754539.9798317-.0026836 1.3526039l1.1249332 1.1249332-1.1249332-1.1249332-.4499722-.4499741c-.3727722-.3727703-.9783516-.3715687-1.3526039.0026855-.3742542.3742523-.3754559.9798317-.0026855 1.3526039l1.1249332 1.1249332-1.1249332-1.1249332-2.6998386-2.6998405c-.3734856-.3734856-.9776344-.3722858-1.3526039.0026836-.3749714.3749714-.3761702.9791183-.0026836 1.3526039l5.1746922 5.1746941s-2.0803661-.6194725-3.156971.4571304c-.6776428.6776447-.6625271 1.1445236-.4535522 1.3534985.5681248.5681248 1.0111809-.3362217 3.604166.893589 2.5929585 1.2298393 4.2639732 1.1197224 5.4114056-.0097466l1.129406-1.129406c.0084095-.0083008-.0082722.0084362.000082.000082 1.6075573-1.6075573 2.0760326-3.7968826.4698162-5.4030991-.0027466-.0027466-.0055199-.0055199-.0082932-.0082951l-2.6998405-2.6998386c-.3727725-.3727719-.97835-.3715703-1.3526042.0026839z" fill="#2f74df" data-original="#2fdf84" class=""></path><path xmlns="http://www.w3.org/2000/svg" d="m9.1099854 15.289978c-.8099976-1.8599854-.8099976-3.7199707 0-5.5800171.2008667-.4495239.5293579-.7852173.9172363-.9889526-.1990356-.052002-.3983765-.0952148-.597229-.151001-.9299927-.2600097-1.8999634.1999512-2.3200073 1.1399536-.8099976 1.8600464-.8099976 3.7200317 0 5.5800171.4200439.9400025 1.3900146 1.4000244 2.3200073 1.1400147.1981812-.0559692.3967896-.1002197.5951538-.1522217-.3869019-.2038574-.7146607-.5391235-.9151611-.987793z" fill="#115dbd" data-original="#00b871" class=""></path><path xmlns="http://www.w3.org/2000/svg" d="m12.375 8.916667.7498169-1.8027143c.0379028-.0948486.1000366-.1688843.1608276-.2434082-.2857056-.0956421-.5713501-.1835938-.8570557-.2966309-.5150757-.2037354-1.0980835.0257568-1.303772.5400391l-.6248168 1.5620117z" fill="#d5dbe1" data-original="#d5dbe1"></path><path xmlns="http://www.w3.org/2000/svg" d="m18.5 7.75h-2l-1 9.75 2.178772-1.743042z" fill="#d5dbe1" data-original="#d5dbe1"></path><path xmlns="http://www.w3.org/2000/svg" d="m23.500061 25.9153442-5.1746826-5.1746826c-.2548218-.2548828-.3213501-.614624-.2276001-.9381714l-.4171143-.4171143c-.3734741-.3735352-.9776611-.3723145-1.3526001.0026855-.375.374939-.3761597.9790649-.0026855 1.3526001l5.085083 5.085083c1.0074463-.2245482 2.0895996.0895997 2.0895996.0895997z" fill="#115dbd" data-original="#00b871" class=""></path><path xmlns="http://www.w3.org/2000/svg" d="m23.4937134 28.6195679c-2.5930176-1.2298584-3.0360718-.3255005-3.604187-.8936157-.2089844-.2089844-.2240601-.6758423.4535522-1.3535156.2613525-.2613525.5827637-.4196777.9182739-.5142212-.5645752-.1240234-2.0553589-.3486938-2.9182739.5142212-.6776123.6776733-.6625366 1.1445313-.4535522 1.3535156.5681152.5681152 1.0111694-.3362427 3.604187.8936157 1.7514648.8306885 3.0749512 1.0374146 4.1079102.7441406-.6281739-.135376-1.321045-.3709106-2.1079102-.7441406z" fill="#115dbd" data-original="#00b871" class=""></path><path xmlns="http://www.w3.org/2000/svg" d="m27.0849609 17.0009766c-.2148438 0-.4326172-.0292969-.6494141-.0898438-2.0322266-.5732422-4.1152344-.9443359-6.1933594-1.1025391-.2753906-.0214844-.4814453-.2617188-.4609375-.5371094.0214844-.2763672.2890625-.4814453.5371094-.4609375 2.1435547.1640625 4.2929688.546875 6.3876953 1.1376953.7021484.1953125 1.4130859-.15625 1.7265625-.8623047.7578125-1.7382813.7578125-3.4335938-.0009766-5.1757813-.3125-.7011719-1.0234375-1.0527344-1.7265625-.8583984-2.3330078.6542969-4.6816406 1.046875-6.9785156 1.1669922-.2666016.0332031-.5107422-.1972656-.5253906-.4726563-.0146484-.2763672.1972656-.5117188.4726563-.5253906 2.2246094-.1162109 4.4990234-.4970703 6.7617188-1.1318359 1.1728516-.3261719 2.3974609.2666016 2.9111328 1.4169922.8652344 1.9882813.8652344 4 .0009766 5.984375-.4199219.9404298-1.3115235 1.5107423-2.2626954 1.5107423z" fill="#000000" data-original="#000000"></path><path xmlns="http://www.w3.org/2000/svg" d="m8.9140625 17.0009766c-.9501953 0-1.8417969-.5693359-2.2607422-1.5068359-.8652344-1.9882813-.8652344-4-.0009766-5.984375.5146484-1.1533203 1.734375-1.7509766 2.9121094-1.4208984 2.2626953.6347656 4.5371094 1.015625 6.7617188 1.1318359.2753906.0136719.4873047.2490234.4726563.5253906-.0136719.2753906-.2421876.5039062-.5253907.4726562-2.296875-.1201172-4.6455078-.5126953-6.9785156-1.1669922-.7001953-.1943359-1.4140625.1572266-1.7275391.8623047-.7578125 1.7382813-.7578125 3.4335938.0009766 5.1757813.3125.7011719 1.0263672 1.0537109 1.7265625.8583984 2.09375-.5908203 4.2431641-.9736328 6.3867188-1.1376953.2451172-.0292969.515625.1845703.5371094.4609375.0205078.2753906-.1855469.515625-.4609375.5371094-2.078125.1582031-4.1611328.5292969-6.1923828 1.1025391-.216797.0605468-.435547.0898437-.6513673.0898437z" fill="#000000" data-original="#000000"></path><path xmlns="http://www.w3.org/2000/svg" d="m25.5 9.1757813c-.1982422 0-.3857422-.1191406-.4638672-.3144531l-.625-1.5615234c-.0996094-.2519531-.3896484-.3652344-.65625-.2607422-3.8183594 1.5097656-7.6914063 1.5097656-11.5097656 0-.2666016-.1044922-.5566406.0087891-.6552734.2607422l-.6259766 1.5615234c-.1025391.2558594-.3935547.3818359-.6494141.2783203-.2568359-.1025391-.3808594-.3935547-.2783203-.6494141l.625-1.5615234c.3017578-.7578125 1.1806641-1.1259766 1.9511719-.8193359 3.5742188 1.4140625 7.1992188 1.4140625 10.7753906 0 .7724609-.3066406 1.6494141.0615234 1.9521484.8193359l.6240234 1.5615234c.1025391.2558594-.0214844.546875-.2783203.6494141-.0605468.024414-.1240234.0361328-.1855468.0361328z" fill="#000000" data-original="#000000"></path><path xmlns="http://www.w3.org/2000/svg" d="m20.5 18c-.1113281 0-.2216797-.0371094-.3125-.109375l-2.1875-1.75-2.1875 1.75c-.1572266.125-.375.1425781-.5517578.0488281-.1767578-.0966797-.2783203-.2900391-.2578125-.4902344l1-9.75c.0283203-.2753906.2783203-.4755859.5478516-.446289.2753906.0283203.4746094.2734375.4462891.5478516l-.8779297 8.5634766 1.5683593-1.2548829c.1835938-.1464844.4414063-.1464844.625 0l1.5683594 1.2548828-.8779297-8.5634766c-.0283203-.2744141.1708984-.5195313.4462891-.5478516.2724609-.0302734.5195313.1708984.5478516.4462891l1 9.75c.0205078.2001953-.0810547.3935547-.2578125.4902344-.0751954.0400391-.1572266.0605469-.2392579.0605469z" fill="#000000" data-original="#000000"></path><path xmlns="http://www.w3.org/2000/svg" d="m24.6777344 29.9941406c-.9736328 0-2.1015625-.3085938-3.3984375-.9228516-1.4443359-.6855469-2.1445313-.6650391-2.6035156-.6396484-.3720703.0097656-.7587891.0273438-1.1396484-.3525391-.1337891-.1337891-.7431641-.8642578.453125-2.0605469.5966797-.5966797 1.4160156-.7685547 2.1279297-.7792969l-4.1455079-4.1455077c-.5673828-.5673828-.5654297-1.4912109.0029297-2.0595703.2763672-.2763672.6425781-.4287109 1.0322266-.4287109h.0009766c.3876953.0009766.7529297.1523438 1.0273438.4267578l1.7216797 1.7216797c.0693359-.1367188.1611328-.2636719.2724609-.375.3955078-.3935547.9619141-.5175781 1.4628906-.3623047.0703125-.1982422.1845703-.3847656.3427734-.5429688.5410156-.5429688 1.4091797-.5673828 1.9814453-.0761719.0683594-.1367188.1591797-.2646484.2734375-.3789063 0 0 0 0 0-.0009766.2763672-.2744141.6416016-.4257813 1.0292969-.4267578h.0039063c.3886719 0 .7529297.1503906 1.0273438.4248047l2.6992188 2.7001953c1.6923828 1.6923828 1.5068359 4.1416016-.4501953 6.1064453l-.0009766.0009766c-.0068359.0078125-.0146484.0146484-.0224609.0224609l-1.1171875 1.1171875c-.6982424.6875001-1.5537112 1.0312501-2.5810549 1.0312501zm-5.7314453-2.5693359c.5458984 0 1.3847656.0898438 2.7617188.7421875 2.9833984 1.4160156 4.1953125.7265625 4.8466797.0859375l1.1259766-1.1259766c.0058594-.0058594.0117188-.0117188.0175781-.0166016 1.1914063-1.2158203 1.9960938-3.1357422.453125-4.6796875l-2.7089844-2.7080078c-.0849609-.0849609-.1982422-.1318359-.3193359-.1318359h-.0009766c-.1220703 0-.2382813.0478516-.3251953.1347656-.1787109.1787109-.1796875.4677734-.0019531.6455078l.6748047.6748047c.0976563.0976563.1464844.2255859.1464844.3535156s-.0488281.2558594-.1464844.3535156c-.1953125.1953125-.5117188.1953125-.7070313 0l-1.5751954-1.5751952c-.1767578-.1767578-.4667969-.1767578-.6455078.0029297-.1787109.1787109-.1796875.46875-.0029297.6455078l1.125 1.125c.0976563.0976563.1464844.2255859.1464844.3535156s-.0488281.2558594-.1464844.3535156c-.1953125.1953125-.5117188.1953125-.7070313 0l-1.5751953-1.5751953c-.1777344-.1777344-.4677734-.1757813-.6455078.0039063-.0869141.0859375-.1347656.2011719-.1347656.3242188 0 .1210938.046875.234375.1328125.3193359v.0009766l1.125 1.125c.0976563.0976563.1464844.2255859.1464844.3535156s-.0488281.2558594-.1464844.3535156c-.1953125.1953125-.5117188.1953125-.7070313 0l-1.125-1.125c-.0009765-.0009766-.0009765-.0009766-.0019531-.0019532l-2.6982422-2.6972656c-.0859375-.0859375-.1992188-.1337891-.3203125-.1337891-.1220703 0-.2382813.0488281-.3251953.1357422-.1787109.1787109-.1796875.46875-.0029297.6455078l5.1748047 5.1748047c.1611328.1611328.1923828.4121094.0761719.6083984s-.3515625.2880859-.5712891.2246094c-.0175781-.0048828-1.8115234-.5175781-2.6621094.3310547-.3867188.3867188-.4443359.625-.4335938.6787109.0439453.0302734.0517578.0410156.3740234.0273438.091797-.0029297.1943361-.0068359.3095705-.0068359z" fill="#000000" data-original="#000000"></path></g></svg>