<svg xmlns="http://www.w3.org/2000/svg" viewBox="0 0 500 368.71"><defs><style>.cls-1{fill:#ebebeb;}.cls-2{fill:#e6e6e6;}.cls-3{fill:#f0f0f0;}.cls-4{fill:#fafafa;}.cls-5{fill:#e0e0e0;}.cls-6{fill:#f5f5f5;}.cls-7{fill:#407bff;}.cls-12,.cls-18,.cls-28,.cls-8{opacity:0.2;}.cls-11,.cls-12,.cls-14,.cls-17,.cls-20,.cls-21,.cls-30,.cls-33,.cls-9{fill:#fff;}.cls-10,.cls-18{fill:#263238;}.cls-11,.cls-13,.cls-22{opacity:0.3;}.cls-11,.cls-12,.cls-14,.cls-15,.cls-17,.cls-18,.cls-20,.cls-21,.cls-22,.cls-23,.cls-25,.cls-26,.cls-27,.cls-28,.cls-30,.cls-33{isolation:isolate;}.cls-14,.cls-23{opacity:0.7;}.cls-15,.cls-20{opacity:0.6;}.cls-16{fill:#ffc3bd;}.cls-17,.cls-26,.cls-31{opacity:0.5;}.cls-19{fill:#ed893e;}.cls-21,.cls-27{opacity:0.4;}.cls-24{fill:#ff8b7b;}.cls-25{opacity:0.1;}.cls-29{fill:#ff5652;}.cls-30{opacity:0.8;}.cls-32{fill:#1a2e35;}.cls-33{opacity:0.9;}</style></defs><title>2Asset 1</title><g id="Layer_2" data-name="Layer 2"><g id="Layer_1-2" data-name="Layer 1"><g id="freepik--background-complete--inject-11"><rect class="cls-1" x="416.78" y="343.49" width="33.12" height="0.25"/><rect class="cls-1" x="322.53" y="346.21" width="8.69" height="0.25"/><rect class="cls-1" x="396.59" y="334.21" width="19.19" height="0.25"/><rect class="cls-1" x="52.46" y="335.89" width="43.19" height="0.25"/><rect class="cls-1" x="104.56" y="335.89" width="6.33" height="0.25"/><rect class="cls-1" x="131.47" y="340.11" width="93.68" height="0.25"/><path class="cls-1" d="M237,282.8H43.92a5.71,5.71,0,0,1-5.71-5.71V5.66A5.72,5.72,0,0,1,43.92,0H237a5.71,5.71,0,0,1,5.71,5.71h0V277.09A5.71,5.71,0,0,1,237,282.8ZM43.92.2a5.48,5.48,0,0,0-5.46,5.46V277.09a5.48,5.48,0,0,0,5.46,5.46H237a5.48,5.48,0,0,0,5.46-5.46V5.66A5.48,5.48,0,0,0,237,.2Z"/><path class="cls-1" d="M453.31,282.8H260.21a5.73,5.73,0,0,1-5.71-5.71V5.66A5.72,5.72,0,0,1,260.21,0h193.1A5.71,5.71,0,0,1,459,5.66V277.09A5.7,5.7,0,0,1,453.31,282.8ZM260.21.2a5.48,5.48,0,0,0-5.46,5.46V277.09a5.48,5.48,0,0,0,5.46,5.46h193.1a5.48,5.48,0,0,0,5.46-5.46V5.66A5.48,5.48,0,0,0,453.31.2Z"/><rect class="cls-1" y="327.4" width="500" height="0.25"/><rect class="cls-2" x="88.31" y="81.56" width="103.5" height="245.67"/><rect class="cls-3" x="92.71" y="86.01" width="94.7" height="241.22"/><polygon class="cls-4" points="128.61 206.17 145.26 99.32 137.82 99.32 121.17 206.17 128.61 206.17"/><polygon class="cls-4" points="153.11 206.17 180.75 206.17 180.75 99.32 169.76 99.32 153.11 206.17"/><polygon class="cls-4" points="130.76 99.32 99.87 99.32 99.87 206.17 114.11 206.17 130.76 99.32"/><rect class="cls-1" x="99.87" y="232.88" width="80.87" height="88.34"/><rect class="cls-2" x="99.87" y="210.14" width="6.9" height="17.99"/><rect class="cls-5" x="106.77" y="210.15" width="1.36" height="17.99"/><circle class="cls-5" cx="101.59" cy="217.21" r="2.91"/><rect class="cls-5" x="102.44" y="222.25" width="1.5" height="3.64"/><path class="cls-1" d="M103.09,217.21A4.07,4.07,0,1,1,99,213.14a4.07,4.07,0,0,1,4.09,4.07Z"/><rect class="cls-1" x="242.9" y="263.78" width="159.26" height="52.33"/><rect class="cls-2" x="245.66" y="319.66" width="10.01" height="7.56"/><rect class="cls-2" x="404.3" y="257.4" width="10.01" height="69.82"/><path class="cls-6" d="M401.75,257.4H240.32v69.82h5.34v-5.78H399.08v5.78h5.34V257.4Zm-156.09,9.34h74V312.1h-74Zm79.38,0h74V312.1H325Z"/></g><g id="freepik--Shadow--inject-11"><ellipse id="freepik--path--inject-11" class="cls-6" cx="245.18" cy="357.39" rx="193.89" ry="11.32"/></g><g id="freepik--Plant--inject-11"><path class="cls-7" d="M339.1,268.64s-17.64-1.84-8.13-13.76a23.48,23.48,0,0,1,5.31-4.83c.08,3.08.59,9.48,3.41,8.24,3.08-1.35,6-9.88,6.93-12.68a48.73,48.73,0,0,1,13.45-1.45,81.89,81.89,0,0,1,.07,9c-2.11,1.26-6.22,4-6.4,6.08s3.92,1.68,5.73,1.35a48.4,48.4,0,0,1-2.39,10c-2.56-.73-6.45-1.56-7.63-.22s1.52,5.61,3.22,7.85a14.65,14.65,0,0,1-2.95,2.49C337.11,288.48,339.1,268.64,339.1,268.64Z"/><g class="cls-8"><path class="cls-9" d="M340.58,267.15c1.64-8.46,10.94-15.53,17.4-20.1.79-.55-.19-1.69-1-1.13-6.83,4.82-16.19,12.19-17.92,21.1-.19.94,1.3,1.07,1.49.13Z"/></g><path class="cls-7" d="M339.09,310.63l.86-.06c-1.72-25.45,2.07-33.72,5.55-36.18a4.23,4.23,0,0,1,3.87-.68l.34-.78a5,5,0,0,0-4.7.76C341.35,276.27,337.35,284.78,339.09,310.63Z"/><path class="cls-7" d="M343.93,308.05c.84-21.65-2.91-29.73-6.21-32.69a5.21,5.21,0,0,0-3.92-1.61l.12.85a4.47,4.47,0,0,1,3.28,1.4c3.13,2.87,6.7,10.75,5.88,32Z"/><path class="cls-7" d="M340.28,308.07l.85-.06c-.88-13,.73-20.75,4.65-22.39,5.11-2.14,12.75,6.42,12.83,6.5l.64-.56c-.33-.37-8.12-9.1-13.8-6.73C341.1,286.65,339.36,294.46,340.28,308.07Z"/><path class="cls-7" d="M342.44,308.89c0-8-1.66-12.93-4.94-14.66-3.7-1.94-8,.94-8.15,1.06l.48.7s4-2.71,7.27-1c3,1.57,4.49,6.25,4.48,13.9Z"/><g class="cls-8"><path d="M339.09,310.63l.86-.06c-1.72-25.45,2.07-33.72,5.55-36.18a4.23,4.23,0,0,1,3.87-.68l.34-.78a5,5,0,0,0-4.7.76C341.35,276.27,337.35,284.78,339.09,310.63Z"/><path d="M343.93,308.05c.84-21.65-2.91-29.73-6.21-32.69a5.21,5.21,0,0,0-3.92-1.61l.12.85a4.47,4.47,0,0,1,3.28,1.4c3.13,2.87,6.7,10.75,5.88,32Z"/><path d="M340.28,308.07l.85-.06c-.88-13,.73-20.75,4.65-22.39,5.11-2.14,12.75,6.42,12.83,6.5l.64-.56c-.33-.37-8.12-9.1-13.8-6.73C341.1,286.65,339.36,294.46,340.28,308.07Z"/><path d="M342.44,308.89c0-8-1.66-12.93-4.94-14.66-3.7-1.94-8,.94-8.15,1.06l.48.7s4-2.71,7.27-1c3,1.57,4.49,6.25,4.48,13.9Z"/></g><path class="cls-10" d="M360.89,350.71,364,306.6H322.31l3.06,44.11a9.53,9.53,0,0,0,9.52,8.88h16.48A9.55,9.55,0,0,0,360.89,350.71Z"/><path class="cls-7" d="M347.83,273.15s-8.66-14.55,6.59-14.76a23.37,23.37,0,0,1,6.49.89c-2,1.35-5.18,3.82-3.54,4.44s7.9-.59,10.88-1.25a48.37,48.37,0,0,1,12.91,11.62,84.64,84.64,0,0,1-9.85,7.86c-1.52-1.51-3.82-3.41-5.12-2.65s-2.73,4.81-3.6,7.7a31.91,31.91,0,0,1-9,2.8c.08-2.33,0-6.09-1.08-6.69s-5.16,3.25-7.43,5.59C333.4,283.67,347.83,273.15,347.83,273.15Z"/><path class="cls-11" d="M347.83,273.15s-8.66-14.55,6.59-14.76a23.37,23.37,0,0,1,6.49.89c-2,1.35-5.18,3.82-3.54,4.44s7.9-.59,10.88-1.25a48.37,48.37,0,0,1,12.91,11.62,84.64,84.64,0,0,1-9.85,7.86c-1.52-1.51-3.82-3.41-5.12-2.65s-2.73,4.81-3.6,7.7a31.91,31.91,0,0,1-9,2.8c.08-2.33,0-6.09-1.08-6.69s-5.16,3.25-7.43,5.59C333.4,283.67,347.83,273.15,347.83,273.15Z"/><path class="cls-7" d="M327.8,284.08c-1.85-.53-4.13,3.14-5.32,5.35a40.09,40.09,0,0,1-10.5-6.8c.85-1.86,1.81-4.44,1.2-5.42s-3.94-.21-6.3.53a77.6,77.6,0,0,1-6-7.18,48.4,48.4,0,0,1,5.75-4c3.43.38,8.28.69,9.46-.49s-1.44-2.18-3.34-2.65a37.39,37.39,0,0,1,10-2.79c.45,1.55,1.45,3.94,3.31,3.94s3.79-2.07,5.07-3.61c14.33,3.08,3,13.33,3,13.33s12.33,14.63-2.33,16.59C331,288.38,329.53,284.57,327.8,284.08Z"/><path class="cls-12" d="M327.8,284.08c-1.85-.53-4.13,3.14-5.32,5.35a40.09,40.09,0,0,1-10.5-6.8c.85-1.86,1.81-4.44,1.2-5.42s-3.94-.21-6.3.53a77.6,77.6,0,0,1-6-7.18,48.4,48.4,0,0,1,5.75-4c3.43.38,8.28.69,9.46-.49s-1.44-2.18-3.34-2.65a37.39,37.39,0,0,1,10-2.79c.45,1.55,1.45,3.94,3.31,3.94s3.79-2.07,5.07-3.61c14.33,3.08,3,13.33,3,13.33s12.33,14.63-2.33,16.59C331,288.38,329.53,284.57,327.8,284.08Z"/><path class="cls-7" d="M311.53,294.2c1.75.94,5.07,2.45,6.41,1.11s-.71-7-1.71-9.3a15.86,15.86,0,0,1,5.73-4.54c13.57-6,9,13.47,9,13.47s17,4.12,6,14.63a21.05,21.05,0,0,1-2.54,2.07c-.86-2-2.53-5.35-4.2-4.89s-1,4.78-.49,7.47a34.18,34.18,0,0,1-9,2.32c-.4-1.9-1.16-4.42-2.38-4.35s-3,2.81-4,4.69a46.94,46.94,0,0,1-7.67-.69S307.41,304.28,311.53,294.2Z"/><path class="cls-7" d="M357.51,290.8s9.18-15.17,15.92-1.5a23.37,23.37,0,0,1,2.1,6.87c-2.81-1.24-8.82-3.51-8.9-.42-.1,3.36,6.36,9.66,8.52,11.67a49.05,49.05,0,0,1-4.43,12.78,80.77,80.77,0,0,1-8.13-3.75c-.25-2.45-1-7.33-2.77-8.38s-3.2,2.83-3.67,4.61a48,48,0,0,1-8-6.42c1.76-2,4.17-5.17,3.45-6.81-.78-1.8-5.72-1-8.47-.44a14.13,14.13,0,0,1-1-3.72C340.42,280.54,357.51,290.8,357.51,290.8Z"/><g class="cls-13"><path class="cls-9" d="M350.08,273.58c8.42-3.58,19.1-1.69,27.42.88.92.28,1.31-1.16.39-1.44-8.79-2.72-19.72-4.49-28.56-.74-.88.38-.12,1.67.75,1.3Z"/></g><g class="cls-13"><path class="cls-9" d="M304.13,271.74c8.55-1.46,18.75-1.63,26.5,2.64.85.47,1.6-.82.76-1.29-8.16-4.49-18.69-4.32-27.66-2.79C302.73,270.46,303.19,271.9,304.13,271.74Z"/></g><g class="cls-8"><path class="cls-9" d="M329.83,295.25c-10.09,1.09-17.73,10.44-21.73,18.94-.41.87.88,1.63,1.29.76,3.74-7.94,10.92-17.17,20.44-18.21.95-.1,1-1.6,0-1.49Z"/></g><g class="cls-8"><path class="cls-9" d="M358.23,292.77c7,5.09,9.39,16.52,10.77,24.31.17.95,1.61.55,1.44-.39-1.45-8.24-4.13-19.85-11.45-25.21-.78-.57-1.53.73-.76,1.29Z"/></g></g><g id="freepik--character-2--inject-11"><rect class="cls-7" x="312.39" y="36.83" width="109.27" height="96.74" rx="8.54"/><rect class="cls-14" x="312.39" y="36.83" width="109.27" height="96.74" rx="8.54"/><path class="cls-10" d="M373.73,59.83S371.42,80,379,81.57c9.4,2,7.13-15.95,7.13-15.95L379,55.28Z"/><path class="cls-15" d="M373.73,59.83S371.42,80,379,81.57c9.4,2,7.13-15.95,7.13-15.95L379,55.28Z"/><path class="cls-10" d="M397.16,64.79s11.42,8.12,6.54,14.56-13-2.66-13.15-7.71S397.16,64.79,397.16,64.79Z"/><path class="cls-16" d="M362.67,113.81l-6.89.66s-8-3.26-10.56-2.49c-1.77.53-4.33,4.54-3.82,6.32.19.66,1.77,1.19,2.45,1.25.9.08,2.55-2,3.45-2.06,1.2-.1,3.54,1.92,4.75,1.94a34.29,34.29,0,0,0,4.28-.66l8.12.19Z"/><path class="cls-10" d="M359.88,113.54l1.64,5.89s11.88,1.62,16.54-.43,1.15-36.51-3.34-36.13-2,19.45-2,25.44C372.7,112.88,359.88,113.54,359.88,113.54Z"/><path class="cls-17" d="M359.88,113.54l1.64,5.89s11.88,1.62,16.54-.43,1.15-36.51-3.34-36.13-2,19.45-2,25.44C372.7,112.88,359.88,113.54,359.88,113.54Z"/><path class="cls-10" d="M373.83,82.91c-4.5,6.44,5.84,16.54,6.06,50.67h33.38c1-9.22,4.43-45.34-.38-52.16C407.36,73.59,378.12,76.78,373.83,82.91Z"/><path class="cls-12" d="M373.83,82.91c-4.5,6.44,5.84,16.54,6.06,50.67h33.38c1-9.22,4.43-45.34-.38-52.16C407.36,73.59,378.12,76.78,373.83,82.91Z"/><path class="cls-16" d="M383.69,73.86l6.7-7.28c.64,5.58,3.61,10.16,4.2,10.34l-.73,2.56c-8.12,9.13-10,.36-10,.36C385.85,78.19,383.69,73.86,383.69,73.86Z"/><path class="cls-16" d="M393.48,63.27a6,6,0,0,1-1.68,4c-1.39,1.42-3,.35-3.34-1.51-.32-1.69,0-4.45,1.77-5.15S393.49,61.4,393.48,63.27Z"/><path class="cls-16" d="M385.89,115l-6.89.66s-7.8-3.91-10.55-3.54c-1.78.24-5.2,4.49-4.89,6.26.12.68,1.79,1.09,2.46,1.25,1.09.27,4.5-2,4.5-2s3.47,2.84,4.75,3a20.63,20.63,0,0,0,4.28-.67l8.12.2Z"/><path class="cls-10" d="M411.2,80.86c-2.22-1.51-4.59,0-7,13.76-2.84,16.38-4.74,17.12-21.11,20.07l1.78,5.89s14,1.72,20.74-2.68S417.17,84.94,411.2,80.86Z"/><path class="cls-17" d="M411.2,80.86c-2.22-1.51-4.59,0-7,13.76-2.84,16.38-4.74,17.12-21.11,20.07l1.78,5.89s14,1.72,20.74-2.68S417.17,84.94,411.2,80.86Z"/><path class="cls-16" d="M387.26,84.59c5.44-.11,10.34-6.61,7.65-7.76a62,62,0,0,0-10.69,1.32C382.64,79.35,381.63,84.71,387.26,84.59Z"/><path class="cls-18" d="M387.7,69.5l3.13-.32s-.14,9.36-6.54,10.17c1.19-1.89-.6-5.49-.6-5.49Z"/><path class="cls-16" d="M389.48,58.58c1.44,6.61,2.63,10.4.34,14.77a8.79,8.79,0,0,1-15.58.18c-3.05-5.38-4.91-15.29.64-19.9a8.9,8.9,0,0,1,14.6,5Z"/><path class="cls-10" d="M380.26,63.54c.16.52,0,1-.36,1.12s-.73-.23-.89-.75,0-1,.37-1.13S380.11,63,380.26,63.54Z"/><path class="cls-10" d="M374.36,65.45c.15.52,0,1-.36,1.12s-.74-.23-.89-.76,0-1,.36-1.13S374.21,64.91,374.36,65.45Z"/><path class="cls-10" d="M381.54,61a.27.27,0,0,0,.14-.07.32.32,0,0,0-.05-.44h0a3.1,3.1,0,0,0-2.89-.52.32.32,0,0,0-.18.41h0a.32.32,0,0,0,.41.18h0a2.48,2.48,0,0,1,2.25.39A.31.31,0,0,0,381.54,61Z"/><path class="cls-10" d="M371.24,64.21a.36.36,0,0,0,.18-.24,2.69,2.69,0,0,1,1.34-2,.31.31,0,0,0,.08-.44h0a.32.32,0,0,0-.36-.13h0a3.28,3.28,0,0,0-1.68,2.44.32.32,0,0,0,.25.37h0A.41.41,0,0,0,371.24,64.21Z"/><path class="cls-10" d="M380.67,71.7a6.27,6.27,0,0,1-.82.41.18.18,0,0,1-.24-.09h0a.19.19,0,0,1,.1-.24h0a4.91,4.91,0,0,0,3-3.29.17.17,0,0,1,.21-.14h0a.16.16,0,0,1,.14.19v0A5,5,0,0,1,380.67,71.7Z"/><path class="cls-19" d="M376.41,65.1a20.8,20.8,0,0,1-1.2,5.33,3.18,3.18,0,0,0,2.64-.31Z"/><path class="cls-10" d="M373.57,64.67h-1.5S373.11,65.57,373.57,64.67Z"/><path class="cls-10" d="M379.4,62.82h-1.51S378.92,63.68,379.4,62.82Z"/><path class="cls-10" d="M383,53.78s-2.4,8.29-13.78,7.27c0,0-3.62-13,10.54-13.14,0,0,11.17-4.88,14.3,7.32,0,0,9.87,11.35.55,15.39C387.68,73.62,383,53.78,383,53.78Z"/><path class="cls-10" d="M380.19,120.31H326.94a1.46,1.46,0,1,0-.24,2.91,1,1,0,0,0,.24,0h53.25a1.46,1.46,0,0,0,0-2.91Z"/><path class="cls-10" d="M327.73,122.33h18.2a.69.69,0,0,0,.69-.69.78.78,0,0,0,0-.22l-10-28.52a2,2,0,0,0-1.85-1.31h-18.2a.69.69,0,0,0-.69.69.59.59,0,0,0,0,.23l10,28.51A1.94,1.94,0,0,0,327.73,122.33Z"/><path class="cls-7" d="M326.85,122.33h18.2a.69.69,0,0,0,.69-.69.78.78,0,0,0,0-.22l-10-28.52a2,2,0,0,0-1.85-1.31h-18.2a.69.69,0,0,0-.69.69.59.59,0,0,0,0,.23L325,121A2,2,0,0,0,326.85,122.33Z"/><path class="cls-17" d="M329.91,108.91h2.31a.1.1,0,0,0,.09-.09,0,0,0,0,1,0,0l-1.3-3.61a.25.25,0,0,0-.24-.16h-2.3a.1.1,0,0,0-.09.07s0,0,0,0l1.26,3.61A.26.26,0,0,0,329.91,108.91Z"/><path class="cls-7" d="M348.27,123.22a1.46,1.46,0,1,1-.24-2.91,1,1,0,0,1,.24,0h31.92a1.46,1.46,0,0,1,0,2.91Z"/><path class="cls-7" d="M388.31,123.27H312.39V125a8.45,8.45,0,0,0,.45,2.73h75.47a2.25,2.25,0,0,0,0-4.49Z"/><path class="cls-7" d="M320.93,133.58h65.29v-5.82H312.84A8.53,8.53,0,0,0,320.93,133.58Z"/><path class="cls-20" d="M388.31,123.27H312.39V125a8.45,8.45,0,0,0,.45,2.73h75.47a2.25,2.25,0,0,0,0-4.49Z"/><path class="cls-21" d="M320.93,133.58h65.29v-5.82H312.84A8.53,8.53,0,0,0,320.93,133.58Z"/></g><g id="freepik--character-1--inject-11"><path class="cls-10" d="M111.26,283.82H99.5a12,12,0,0,1-11.84-10.94l-2.14-27.13L90,245.4l2.14,27.13a7.44,7.44,0,0,0,7.38,6.81h11.76Z"/><path class="cls-7" d="M105.32,248.65a5.15,5.15,0,0,0,4.59-5.64l-3.56-34.73a5.13,5.13,0,0,0-5.63-4.58h-34a3.41,3.41,0,0,0-3.06,3.74v0l3.9,38.12a3.43,3.43,0,0,0,3.76,3.07h34Z"/><path class="cls-22" d="M105.32,248.65a5.15,5.15,0,0,0,4.59-5.64l-3.56-34.73a5.13,5.13,0,0,0-5.63-4.58h-34a3.41,3.41,0,0,0-3.06,3.74v0l3.9,38.12a3.43,3.43,0,0,0,3.76,3.07h34Z"/><path class="cls-7" d="M67.55,245.58l-3.9-38.12a3.42,3.42,0,0,1,3-3.76h0a5.13,5.13,0,0,1,5.63,4.58h0L75.9,243a5.15,5.15,0,0,1-4.59,5.64h0A3.43,3.43,0,0,1,67.55,245.58Z"/><path class="cls-10" d="M106,349.57l.3-.92a2.88,2.88,0,0,1,2.74-2h31.8a2.89,2.89,0,0,1,2.82,2.26l.08.37a2.79,2.79,0,0,0,2.73,2.19h0a2.8,2.8,0,0,0,2.8-2.78,2.56,2.56,0,0,0-.07-.62l-.08-.36a8.47,8.47,0,0,0-8.28-6.66H109a8.47,8.47,0,0,0-8,5.82l-.31.93a2.8,2.8,0,0,0,1.79,3.53,2.83,2.83,0,0,0,.87.14h0A2.81,2.81,0,0,0,106,349.57Z"/><rect class="cls-23" x="119.79" y="341.07" width="9.84" height="5.59"/><path class="cls-10" d="M124.71,350.86h0a2.8,2.8,0,0,1-2.8-2.8V273.72h5.59v74.34A2.81,2.81,0,0,1,124.71,350.86Z"/><path class="cls-7" d="M128.62,355.93a3.92,3.92,0,1,1-3.93-3.91h0A3.92,3.92,0,0,1,128.62,355.93Z"/><path class="cls-7" d="M104.48,355.93a3.92,3.92,0,1,1-3.93-3.91h0A3.93,3.93,0,0,1,104.48,355.93Z"/><path class="cls-7" d="M153.2,355.93a3.92,3.92,0,1,1-3.93-3.91h0A3.92,3.92,0,0,1,153.2,355.93Z"/><rect class="cls-23" x="121.91" y="278.05" width="5.59" height="13.23"/><path class="cls-10" d="M142.86,284.42H106a6.62,6.62,0,0,1-6.44-5.18l-1.1-5H151l-1.86,5.64A6.61,6.61,0,0,1,142.86,284.42Z"/><path class="cls-17" d="M142.86,284.42H106a6.62,6.62,0,0,1-6.44-5.18l-1.1-5H151l-1.86,5.64A6.61,6.61,0,0,1,142.86,284.42Z"/><path class="cls-7" d="M97.3,269.19h54.81a4.6,4.6,0,0,1,4.59,4.59v1.31a3.06,3.06,0,0,1-3.06,3.06H95.78a3.06,3.06,0,0,1-3.06-3.06v-1.31A4.59,4.59,0,0,1,97.3,269.19Z"/><path class="cls-24" d="M163.38,247.1s23-1.15,24.66,6.53-1.84,98-1.84,98l-7.25.45s-12.55-72.36-6.38-84.76l-18.29.25Z"/><path class="cls-25" d="M187.58,311c-4.49-.05-9.53.06-14.49.27.51,4.44,1.07,8.85,1.64,13a107.8,107.8,0,0,0,12.53-3.15C187.37,317.89,187.47,314.48,187.58,311Z"/><path class="cls-7" d="M188,351.35a.19.19,0,0,1-.16-.14.18.18,0,0,1,.08-.2c.11-.08,2.75-1.85,4.09-1.58a1,1,0,0,1,.62.39.71.71,0,0,1,.07.81,3.33,3.33,0,0,1-2.27.77A13.16,13.16,0,0,1,188,351.35Zm.59-.29c1.48.07,3.46-.08,3.79-.62a.42.42,0,0,0-.07-.41.48.48,0,0,0-.38-.23h-.36a8.59,8.59,0,0,0-3,1.26Z"/><path class="cls-7" d="M187.85,351.35a.17.17,0,0,1-.09-.16c0-.1.06-2.24,1-3.14a1.39,1.39,0,0,1,1-.39c.51,0,.69.26.73.47.23.88-1.54,2.72-2.45,3.2H188Zm1.83-3.33a.94.94,0,0,0-.63.28,4.39,4.39,0,0,0-.87,2.49c.93-.65,2.08-2.07,2-2.6,0-.05,0-.18-.39-.19h-.1Z"/><path class="cls-10" d="M187.07,350.31l-8.59.62a.69.69,0,0,0-.64.59l-1.05,7.1a1.14,1.14,0,0,0,1,1.31H178c3.09-.28,5.84-.65,9.69-.92,4.55-.33,3.44.3,8.8,0,3.22-.19,3.55-3.9,2.17-4-6.32-.33-7.1-2.18-9.68-4.24A2.75,2.75,0,0,0,187.07,350.31Z"/><path class="cls-24" d="M149.37,247.84s23.06,1.1,24.32,8.86-7.7,95.48-7.7,95.48l-7.27.1s-9.05-72.88-2.29-85l-18.28-.63Z"/><path class="cls-25" d="M168.69,324.71c.41-4.28.84-8.82,1.27-13.45-5.5,0-10.85,0-15.12.11.32,4.88.71,9.71,1.11,14.26C158.56,325.58,163.16,325.38,168.69,324.71Z"/><path class="cls-7" d="M167.59,352.07a.17.17,0,0,1-.15-.15.18.18,0,0,1,.08-.19c.12-.08,2.83-1.73,4.15-1.41a1,1,0,0,1,.61.42.71.71,0,0,1,0,.81,3.35,3.35,0,0,1-2.31.67A13.53,13.53,0,0,1,167.59,352.07Zm.6-.27c1.48.14,3.46.07,3.82-.46.05-.06.09-.18,0-.41a.59.59,0,0,0-.38-.25h-.36a8.92,8.92,0,0,0-3.08,1.12Z"/><path class="cls-7" d="M167.49,352.07a.19.19,0,0,1-.08-.17c0-.1.15-2.24,1.13-3.09a1.35,1.35,0,0,1,1-.35c.51,0,.68.29.71.5.19.88-1.65,2.65-2.58,3.1h-.18Zm2-3.26a1,1,0,0,0-.63.26,4.36,4.36,0,0,0-1,2.45c1-.61,2.16-2,2.1-2.52,0-.05,0-.18-.38-.2Z"/><path class="cls-10" d="M166.75,351l-8.61.27a.69.69,0,0,0-.66.56l-1.34,7.05a1.15,1.15,0,0,0,.9,1.36h.25c3.1-.15,5.86-.4,9.72-.52,4.57-.13,3.43.45,8.79.36,3.23-.06,3.71-3.75,2.34-3.89-6.3-.59-7-2.47-9.5-4.64A2.78,2.78,0,0,0,166.75,351Z"/><path class="cls-10" d="M99.36,231.52a51.39,51.39,0,0,1-2.22,8.35c-2.94,8.43-3.6,22,2.34,26.87,9.36,7.64,45.43-1.09,50.66,4.53,4.36,4.69,2,49.13,2,49.13a381.19,381.19,0,0,0,38.75-3.63s-2-11.6-1.12-33.85,3.06-34.18-10.46-35.71-37.62-6.14-40.61-10.74c-2-3.09-1.07-4.86-1.07-4.86Z"/><path class="cls-26" d="M179.44,318.31c-.84-4-1.87-13.89-.41-37.38.94-15.12,4.12-31.1-9-31.1a9,9,0,0,1,7.21,9.1c0,6.76-3.56,48.54-4.56,60.07C174.88,318.8,177.14,318.57,179.44,318.31Z"/><path class="cls-26" d="M138.51,236.09c-1.7-2.85-.84-4.48-.84-4.48l-38.31-.09a48.2,48.2,0,0,1-1.54,6.27c4.94.43,15.17,1.13,21.52.78,8.89-.48,20.47,2.5,20.47,2.5S135.71,238.05,138.51,236.09Z"/><path class="cls-10" d="M151.69,155.64s-2.47,6.13-.68,15.58c1.44,7.56-11.59,4.43-15.87,0S148.47,155,148.47,155Z"/><path class="cls-27" d="M151.69,155.64s-2.47,6.13-.68,15.58c1.44,7.56-11.59,4.43-15.87,0S148.47,155,148.47,155Z"/><path class="cls-24" d="M152.77,219.5l5.37,1.45s7.17-4,9.67-3.46c1.37.31,3.43,2.58,4.93,4.42a2,2,0,0,1-.36,2.8,2.09,2.09,0,0,1-.7.35h0a1.89,1.89,0,0,1-1,0L167,224s-4.11,1.83-5.73,1.93c-2.84.18-10.64-2-10.64-2Z"/><path class="cls-7" d="M143.42,176c2.29.36,6.78,2.83,1.93,23.12-.76,3.21-2.12,9.31-1.07,12.44,1.89,5.65,12.15,8.18,12.15,8.18l-1.16,5.75s-19-4.08-20.91-10.69C132.49,208.42,133.2,174.42,143.42,176Z"/><path class="cls-20" d="M143.42,176c2.29.36,6.78,2.83,1.93,23.12-.76,3.21-2.12,9.31-1.07,12.44,1.89,5.65,12.15,8.18,12.15,8.18l-1.16,5.75s-19-4.08-20.91-10.69C132.49,208.42,133.2,174.42,143.42,176Z"/><path class="cls-7" d="M98.12,233.38a150.48,150.48,0,0,0,40,0s-1.41-8.52,1.33-22.68c.34-1.73,3.13-12,3.63-13.69,5.4-18.18,8.38-22.79-16.39-24.56-21.29-1.51-24.53,3.82-25.08,16.4S98.12,233.38,98.12,233.38Z"/><path class="cls-21" d="M98.12,233.38a150.48,150.48,0,0,0,40,0s-1.41-8.52,1.33-22.68c.34-1.73,3.13-12,3.63-13.69,5.4-18.18,8.38-22.79-16.39-24.56-21.29-1.51-24.53,3.82-25.08,16.4S98.12,233.38,98.12,233.38Z"/><path class="cls-24" d="M120.37,219l5.44,2.39s7.25-4.07,9.79-3.5c1.62.37,4.68,4.73,4.68,4.73a1.76,1.76,0,0,1,.07,2.49,1.73,1.73,0,0,1-.9.51h0a1.76,1.76,0,0,1-.91,0l-3.78-1.08s-4.17,1.85-5.81,2c-2.87.19-10.77-2.93-10.77-2.93Z"/><path class="cls-7" d="M123.37,171.63c-3,.78-4.75,2.89-3.6,10.92a2.88,2.88,0,0,1,4-.66,3,3,0,0,1,.66.66c2.42,2.81,6.75,7.42,6.75,7.42a63.86,63.86,0,0,0,6-6.2c2.3-2.89,3.66.47,3.66.47s1.93-9-2.83-11C133.68,171.42,127,170.69,123.37,171.63Z"/><path class="cls-20" d="M123.37,171.63c-3,.78-4.75,2.89-3.6,10.92a2.88,2.88,0,0,1,4-.66,3,3,0,0,1,.66.66c2.42,2.81,6.75,7.42,6.75,7.42a63.86,63.86,0,0,0,6-6.2c2.3-2.89,3.66.47,3.66.47s1.93-9-2.83-11C133.68,171.42,127,170.69,123.37,171.63Z"/><path class="cls-25" d="M101.6,188.85c-.31,7-1.34,19.91-2.21,30,41,16.51,15.14-2.21,15.14-2.21s-8.21-5.6-4.36-19,2.68-21.78,2.68-21.78L111.54,173C103.63,175,102,180.2,101.6,188.85Z"/><path class="cls-7" d="M109.4,173.79c5.32-.28,7,1.87-.84,21.25-1.25,3.09-3.27,9.42-2.21,12.59,1.92,5.72,18.8,12.52,18.8,12.52l-2.47,5.73S94.5,216.5,95.19,209.79,100.67,174.26,109.4,173.79Z"/><path class="cls-20" d="M109.4,173.79c5.32-.28,7,1.87-.84,21.25-1.25,3.09-3.27,9.42-2.21,12.59,1.92,5.72,18.8,12.52,18.8,12.52l-2.47,5.73S94.5,216.5,95.19,209.79,100.67,174.26,109.4,173.79Z"/><path class="cls-24" d="M131.61,187.77s10.87-9.33,6.72-13c-2.09-1.86-8.53-3.54-14.19-2.24C122.78,172.83,121.54,176.83,131.61,187.77Z"/><path class="cls-24" d="M138.25,178.24a13.75,13.75,0,0,0-.36-3c-1-.51-2.73-2.4-.86-5.36l-6-10.61c-1.14,4.82-2.13,12.58-6.58,14.13,0,0-1.4,3.65,5,11.53Z"/><path class="cls-28" d="M131,159.27c-.38,1.61-.75,3.55-1.23,5.48a10.49,10.49,0,0,0,7,9.52c-.66-.93-1-2.41.24-4.36Z"/><path class="cls-24" d="M129.75,150.14c-1.31,8.18-2,11.6,1.11,16.65,4.74,7.6,15.07,7.41,18.8-.2,3.35-6.86,4.94-19.12-2.26-24.05a11.29,11.29,0,0,0-17.65,7.6Z"/><path class="cls-10" d="M142.84,156.52c-.2.65,0,1.28.39,1.41s.93-.28,1.13-.92,0-1.27-.39-1.41S143.06,155.93,142.84,156.52Z"/><path class="cls-10" d="M150.08,158.83c-.21.66,0,1.28.39,1.41s.93-.28,1.13-.92,0-1.27-.39-1.4S150.28,158.2,150.08,158.83Z"/><path class="cls-10" d="M151,157.9h1.68S151.52,158.9,151,157.9Z"/><path class="cls-29" d="M147.47,159.29a18.07,18.07,0,0,0,1,4.82,2.93,2.93,0,0,1-2.43-.3Z"/><path class="cls-10" d="M141.76,165.22a5.16,5.16,0,0,0,.92.36.2.2,0,0,0,.25-.1h0a.2.2,0,0,0-.13-.25h0a5.33,5.33,0,0,1-3.51-3.3.21.21,0,0,0-.27-.1.2.2,0,0,0-.11.21A5.46,5.46,0,0,0,141.76,165.22Z"/><path class="cls-10" d="M140.38,154.14a.39.39,0,0,0,.46-.07,4.71,4.71,0,0,1,3.62-.94.41.41,0,0,0,.47-.33.4.4,0,0,0-.32-.45h0a5.38,5.38,0,0,0-4.33,1.17.39.39,0,0,0,0,.55h0A.18.18,0,0,0,140.38,154.14Z"/><path class="cls-10" d="M153.31,156.18a.41.41,0,0,0,.4,0,.4.4,0,0,0,.13-.54h0a3.85,3.85,0,0,0-3.13-1.87.38.38,0,0,0-.39.35h0a.38.38,0,0,0,.37.39h0a3.18,3.18,0,0,1,2.43,1.5A.42.42,0,0,0,153.31,156.18Z"/><path class="cls-10" d="M143.74,155.64h1.68S144.27,156.6,143.74,155.64Z"/><path class="cls-10" d="M129,153.84s4.56,5.89,7,.62,11.86-7.34,10.06-10.4a22.67,22.67,0,0,1,6.33,6.13.5.5,0,0,0,.67.18.5.5,0,0,0,.24-.48c-.25-3.53-1.64-10.49-8.7-10.22,0,0-7.39-5.5-13.71-1.12C124.85,142.71,129,153.84,129,153.84Z"/><path class="cls-10" d="M142.55,139.49s-10.86-7.27-17.85,6.24-17.16,16.41-11,24.43,17.5,6.22,17.56,1.9-2.78-8.07-.94-13.94S142.55,139.49,142.55,139.49Z"/><path class="cls-24" d="M126.17,155.85a5.94,5.94,0,0,0,2.2,4c1.65,1.27,3.26,0,3.47-2,.17-1.78-.47-4.59-2.43-5.12a2.67,2.67,0,0,0-3.22,2,2.58,2.58,0,0,0,0,1.14Z"/></g><g id="freepik--Desk--inject-11"><path class="cls-10" d="M229.29,354.71l-19.62-5.39-2.46-118.86h-7L197.8,349.32l-19.62,5.39a5.49,5.49,0,0,0-4,5.29h59.17A5.49,5.49,0,0,0,229.29,354.71Z"/><path class="cls-17" d="M229.29,354.71l-19.62-5.39-2.46-118.86h-7L197.8,349.32l-19.62,5.39a5.49,5.49,0,0,0-4,5.29h59.17A5.49,5.49,0,0,0,229.29,354.71Z"/><path class="cls-12" d="M195.71,360v-3.16a2.92,2.92,0,0,1,1.28-2.42l6.74-4.6V235.15h-2V349.82l-9.86,4.67a2.92,2.92,0,0,0-1.68,2.65V360Z"/><rect class="cls-10" x="136.26" y="233.12" width="150.62" height="4.06"/><rect class="cls-11" x="136.26" y="233.12" width="150.62" height="4.06"/><rect class="cls-28" x="211.77" y="233.12" width="75.1" height="4.06"/><rect class="cls-10" x="127.17" y="229.06" width="168.79" height="4.06"/><rect class="cls-22" x="202.69" y="229.06" width="93.27" height="4.06"/></g><g id="freepik--Arrows--inject-11"><path class="cls-7" d="M330.16,205.32v-26.5h0v-4.9a12.43,12.43,0,0,0-12.41-12.41H243.4A12.43,12.43,0,0,0,231,173.92v42.16h3.27V173.92a9.15,9.15,0,0,1,9.14-9.14h74.34a9.15,9.15,0,0,1,9.14,9.14v31.4H323l5.52,9,5.52-9Z"/><rect class="cls-7" x="187.38" y="215.57" width="213.56" height="3.27"/></g><g id="freepik--Codes--inject-11"><path class="cls-7" d="M243.37,233.43h-25.3a2.64,2.64,0,0,1-2.64-2.64h0v-36a2.64,2.64,0,0,1,2.64-2.64h29.22a2.64,2.64,0,0,1,2.64,2.64v36a2.64,2.64,0,0,1-2.64,2.64h-3.92Z"/><path class="cls-30" d="M243.37,233.43h-25.3a2.64,2.64,0,0,1-2.64-2.64h0v-36a2.64,2.64,0,0,1,2.64-2.64h29.22a2.64,2.64,0,0,1,2.64,2.64v36a2.64,2.64,0,0,1-2.64,2.64h-3.92Z"/><path class="cls-10" d="M247.29,192.16H218.07a2.64,2.64,0,0,0-2.64,2.64v3.88h34.5V194.8a2.64,2.64,0,0,0-2.64-2.64Z"/><circle class="cls-7" cx="246.01" cy="195.59" r="1.1"/><circle class="cls-7" cx="241.62" cy="195.59" r="1.1"/><circle class="cls-7" cx="237.24" cy="195.59" r="1.1"/><path class="cls-10" d="M229.69,205.31l-3.86,1.42,3.86,1.4v1.45l-5.52-2.1V206l5.52-2.11Z"/><path class="cls-10" d="M233.85,201h1.61l-3.83,11H230Z"/><path class="cls-10" d="M241.19,206v1.5l-5.52,2.1v-1.45l3.86-1.4-3.86-1.42v-1.44Z"/><rect class="cls-10" x="218.5" y="215.69" width="7.74" height="1.72" rx="0.79"/><rect class="cls-10" x="227.77" y="215.69" width="9.67" height="1.72" rx="0.79"/><rect class="cls-10" x="238.98" y="215.69" width="7.87" height="1.72" rx="0.79"/><rect class="cls-10" x="218.5" y="219.97" width="8.38" height="1.72" rx="0.79"/><rect class="cls-10" x="228.42" y="219.97" width="10.32" height="1.72" rx="0.79"/><rect class="cls-10" x="240.27" y="219.97" width="6.58" height="1.72" rx="0.79"/><rect class="cls-10" x="218.5" y="224.24" width="7.09" height="1.72" rx="0.79"/><rect class="cls-10" x="227.13" y="224.24" width="9.67" height="1.72" rx="0.79"/><rect class="cls-10" x="238.33" y="224.24" width="8.52" height="1.72" rx="0.79"/><rect class="cls-10" x="218.5" y="228.51" width="9.67" height="1.72" rx="0.79"/><rect class="cls-10" x="229.71" y="228.51" width="9.03" height="1.72" rx="0.79"/><rect class="cls-10" x="240.27" y="228.51" width="6.58" height="1.72" rx="0.79"/><path class="cls-7" d="M339.46,180.88h-25.3a2.64,2.64,0,0,1-2.64-2.64h0v-36a2.64,2.64,0,0,1,2.64-2.64h29.22a2.64,2.64,0,0,1,2.64,2.64h0v36a2.64,2.64,0,0,1-2.64,2.64h-3.92Z"/><path class="cls-30" d="M339.46,180.88h-25.3a2.64,2.64,0,0,1-2.64-2.64h0v-36a2.64,2.64,0,0,1,2.64-2.64h29.22a2.64,2.64,0,0,1,2.64,2.64h0v36a2.64,2.64,0,0,1-2.64,2.64h-3.92Z"/><path class="cls-10" d="M343.38,139.61H314.16a2.64,2.64,0,0,0-2.64,2.64h0v3.89H346v-3.89A2.64,2.64,0,0,0,343.38,139.61Z"/><circle class="cls-7" cx="342.1" cy="143.05" r="1.1"/><circle class="cls-7" cx="337.72" cy="143.05" r="1.1"/><circle class="cls-7" cx="333.33" cy="143.05" r="1.1"/><path class="cls-10" d="M325.79,152.77l-3.87,1.41,3.87,1.41V157l-5.53-2.1v-1.51l5.53-2.1Z"/><path class="cls-10" d="M329.94,148.47h1.61l-3.83,10.94h-1.61Z"/><path class="cls-10" d="M337.29,153.43v1.51l-5.53,2.1v-1.45l3.87-1.41-3.87-1.41v-1.44Z"/><rect class="cls-10" x="314.6" y="163.15" width="7.74" height="1.72" rx="0.79"/><rect class="cls-10" x="323.87" y="163.15" width="9.67" height="1.72" rx="0.79"/><rect class="cls-10" x="335.07" y="163.15" width="7.87" height="1.72" rx="0.79"/><rect class="cls-10" x="314.6" y="167.42" width="8.38" height="1.72" rx="0.79"/><rect class="cls-10" x="324.51" y="167.42" width="10.32" height="1.72" rx="0.79"/><rect class="cls-10" x="336.36" y="167.42" width="6.58" height="1.72" rx="0.79"/><rect class="cls-10" x="314.6" y="171.69" width="7.09" height="1.72" rx="0.79"/><rect class="cls-10" x="323.22" y="171.69" width="9.67" height="1.72" rx="0.79"/><rect class="cls-10" x="334.42" y="171.69" width="8.52" height="1.72" rx="0.79"/><rect class="cls-10" x="314.6" y="175.96" width="9.67" height="1.72" rx="0.79"/><rect class="cls-10" x="325.8" y="175.96" width="9.03" height="1.72" rx="0.79"/><rect class="cls-10" x="336.36" y="175.96" width="6.58" height="1.72" rx="0.79"/><path class="cls-7" d="M408.64,233.43h-25.3a2.64,2.64,0,0,1-2.64-2.64h0v-36a2.64,2.64,0,0,1,2.64-2.64h29.22a2.64,2.64,0,0,1,2.64,2.64h0v36a2.64,2.64,0,0,1-2.64,2.64h-3.92Z"/><path class="cls-30" d="M408.64,233.43h-25.3a2.64,2.64,0,0,1-2.64-2.64h0v-36a2.64,2.64,0,0,1,2.64-2.64h29.22a2.64,2.64,0,0,1,2.64,2.64h0v36a2.64,2.64,0,0,1-2.64,2.64h-3.92Z"/><path class="cls-10" d="M412.56,192.16H383.34a2.64,2.64,0,0,0-2.64,2.64h0v3.88h34.5V194.8A2.64,2.64,0,0,0,412.56,192.16Z"/><circle class="cls-7" cx="411.28" cy="195.59" r="1.1"/><circle class="cls-7" cx="406.9" cy="195.59" r="1.1"/><circle class="cls-7" cx="402.51" cy="195.59" r="1.1"/><path class="cls-10" d="M395,205.31l-3.87,1.42,3.87,1.4v1.45l-5.53-2.1V206l5.53-2.11Z"/><path class="cls-10" d="M399.12,201h1.62l-3.83,11h-1.62Z"/><path class="cls-10" d="M406.47,206v1.5L401,209.6v-1.45l3.86-1.4L401,205.31v-1.44Z"/><rect class="cls-10" x="383.78" y="215.69" width="7.74" height="1.72" rx="0.79"/><rect class="cls-10" x="393.05" y="215.69" width="9.67" height="1.72" rx="0.79"/><rect class="cls-10" x="404.25" y="215.69" width="7.87" height="1.72" rx="0.79"/><rect class="cls-10" x="383.78" y="219.97" width="8.38" height="1.72" rx="0.79"/><rect class="cls-10" x="393.69" y="219.97" width="10.32" height="1.72" rx="0.79"/><rect class="cls-10" x="405.54" y="219.97" width="6.58" height="1.72" rx="0.79"/><rect class="cls-10" x="383.78" y="224.24" width="7.09" height="1.72" rx="0.79"/><rect class="cls-10" x="392.4" y="224.24" width="9.67" height="1.72" rx="0.79"/><rect class="cls-10" x="403.61" y="224.24" width="8.52" height="1.72" rx="0.79"/><rect class="cls-10" x="383.78" y="228.51" width="9.67" height="1.72" rx="0.79"/><rect class="cls-10" x="394.98" y="228.51" width="9.03" height="1.72" rx="0.79"/><rect class="cls-10" x="405.54" y="228.51" width="6.58" height="1.72" rx="0.79"/><path class="cls-7" d="M296.37,233.43h-25.3a2.64,2.64,0,0,1-2.64-2.64h0v-36a2.64,2.64,0,0,1,2.64-2.64h29.22a2.64,2.64,0,0,1,2.64,2.64h0v36a2.64,2.64,0,0,1-2.64,2.64h-3.92Z"/><path class="cls-30" d="M296.37,233.43h-25.3a2.64,2.64,0,0,1-2.64-2.64h0v-36a2.64,2.64,0,0,1,2.64-2.64h29.22a2.64,2.64,0,0,1,2.64,2.64h0v36a2.64,2.64,0,0,1-2.64,2.64h-3.92Z"/><path class="cls-10" d="M300.29,192.16H271.07a2.64,2.64,0,0,0-2.64,2.64h0v3.88h34.5V194.8A2.64,2.64,0,0,0,300.29,192.16Z"/><circle class="cls-7" cx="299.01" cy="195.59" r="1.1"/><circle class="cls-7" cx="294.63" cy="195.59" r="1.1"/><circle class="cls-7" cx="290.24" cy="195.59" r="1.1"/><path class="cls-10" d="M282.7,205.31l-3.87,1.42,3.87,1.4v1.45l-5.53-2.1V206l5.53-2.11Z"/><path class="cls-10" d="M286.85,201h1.62l-3.83,11H283Z"/><path class="cls-10" d="M294.2,206v1.5l-5.52,2.1v-1.45l3.86-1.4-3.86-1.42v-1.44Z"/><rect class="cls-10" x="271.51" y="215.69" width="9.67" height="1.72" rx="0.79"/><rect class="cls-10" x="282.71" y="215.69" width="9.67" height="1.72" rx="0.79"/><rect class="cls-10" x="293.92" y="215.69" width="5.94" height="1.72" rx="0.79"/><rect class="cls-10" x="271.51" y="219.97" width="7.74" height="1.72" rx="0.79"/><rect class="cls-10" x="280.78" y="219.97" width="10.32" height="1.72" rx="0.79"/><rect class="cls-10" x="292.63" y="219.97" width="7.23" height="1.72" rx="0.79"/><rect class="cls-10" x="271.51" y="224.24" width="9.67" height="1.72" rx="0.79"/><rect class="cls-10" x="282.71" y="224.24" width="9.67" height="1.72" rx="0.79"/><rect class="cls-10" x="293.92" y="224.24" width="5.94" height="1.72" rx="0.79"/><rect class="cls-10" x="271.51" y="228.51" width="6.45" height="1.72" rx="0.79"/><rect class="cls-10" x="279.49" y="228.51" width="10.96" height="1.72" rx="0.79"/><rect class="cls-10" x="291.98" y="228.51" width="7.87" height="1.72" rx="0.79"/><circle class="cls-10" cx="360.63" cy="217.21" r="8.93"/><path class="cls-7" d="M359.83,222.55,354.28,217a1.07,1.07,0,0,1,0-1.51h0a1.07,1.07,0,0,1,1.51,0h0l4,4,9.57-9.58a1.07,1.07,0,0,1,1.51,0h0a1.07,1.07,0,0,1,0,1.51h0Z"/><g class="cls-31"><path class="cls-9" d="M359.83,222.55,354.28,217a1.07,1.07,0,0,1,0-1.51h0a1.07,1.07,0,0,1,1.51,0h0l4,4,9.57-9.58a1.07,1.07,0,0,1,1.51,0h0a1.07,1.07,0,0,1,0,1.51h0Z"/></g><circle class="cls-10" cx="360.63" cy="163.15" r="8.93"/><path class="cls-7" d="M366.06,157.71h0a1.07,1.07,0,0,0-1.51,0h0l-3.91,3.92-3.92-3.92a1.07,1.07,0,0,0-1.51,0h0a1.09,1.09,0,0,0,0,1.52l3.92,3.92-3.92,3.91a1.09,1.09,0,0,0,0,1.52h0a1.07,1.07,0,0,0,1.51,0h0l3.92-3.91,3.91,3.91a1.07,1.07,0,0,0,1.51,0h0a1.07,1.07,0,0,0,0-1.51h0l-3.91-3.91,3.91-3.92a1.07,1.07,0,0,0,0-1.51Z"/><path class="cls-17" d="M366.06,157.71h0a1.07,1.07,0,0,0-1.51,0h0l-3.91,3.92-3.92-3.92a1.07,1.07,0,0,0-1.51,0h0a1.09,1.09,0,0,0,0,1.52l3.92,3.92-3.92,3.91a1.09,1.09,0,0,0,0,1.52h0a1.07,1.07,0,0,0,1.51,0h0l3.92-3.91,3.91,3.91a1.07,1.07,0,0,0,1.51,0h0a1.07,1.07,0,0,0,0-1.51h0l-3.91-3.91,3.91-3.92a1.07,1.07,0,0,0,0-1.51Z"/><path class="cls-10" d="M356,164.24H345.77a1.09,1.09,0,0,1-1.09-1.09h0a1.09,1.09,0,0,1,1.09-1.09H356Z"/></g><g id="freepik--Button--inject-11"><path class="cls-7" d="M299.36,150.76l-34.48,8.71-34.47-8.71a9,9,0,0,1-6.75-8.67v-14a8.93,8.93,0,0,1,8.93-8.93h64.58a8.93,8.93,0,0,1,8.93,8.93v14A9,9,0,0,1,299.36,150.76Z"/><path class="cls-9" d="M233.57,132.49a2.27,2.27,0,0,1,1.12,3l-.12.22a2.16,2.16,0,0,1-1,.79,3.49,3.49,0,0,1-1.46.28h-1.27v1.74h-1.46v-6.32h2.73A3.49,3.49,0,0,1,233.57,132.49Zm-.53,2.82a1.13,1.13,0,0,0,0-1.6l0,0a1.55,1.55,0,0,0-1-.29h-1.19v2.2H232a1.55,1.55,0,0,0,1-.29Z"/><path class="cls-9" d="M236.57,137.89a2.89,2.89,0,0,1-.75-2.14v-3.54h1.46v3.48c0,1.14.47,1.7,1.41,1.7a1.3,1.3,0,0,0,1.05-.41,1.91,1.91,0,0,0,.36-1.29v-3.48h1.44v3.54a3,3,0,0,1-5,2.14Z"/><path class="cls-9" d="M243,132.21h1.46v5.13h3.17v1.19H243Z"/><path class="cls-9" d="M248.44,132.21h1.46v5.13h3.17v1.19h-4.63Z"/><path class="cls-9" d="M260.48,138.53l-1.22-1.76h-1.35v1.76h-1.46v-6.32h2.74a3.44,3.44,0,0,1,1.45.28,2.06,2.06,0,0,1,1.29,2,2.19,2.19,0,0,1-.34,1.22,2,2,0,0,1-1,.78l1.42,2Zm-.37-4.84a1.55,1.55,0,0,0-1-.29h-1.19v2.2h1.19a1.6,1.6,0,0,0,1-.28,1.15,1.15,0,0,0,0-1.63Z"/><path class="cls-9" d="M268,137.36v1.17h-4.89v-6.32h4.77v1.17h-3.32v1.38h2.93v1.13h-2.93v1.47Z"/><path class="cls-9" d="M276,139.21a2,2,0,0,1-.74.58,2.47,2.47,0,0,1-1,.19,2.74,2.74,0,0,1-1.28-.3,5.58,5.58,0,0,1-1.3-1.07,3.49,3.49,0,0,1-1.53-.55,3,3,0,0,1-1-1.14,3.22,3.22,0,0,1-.37-1.55,3.15,3.15,0,0,1,.45-1.67,3.08,3.08,0,0,1,1.23-1.17,3.9,3.9,0,0,1,3.55,0,3.14,3.14,0,0,1,1.23,1.17,3.07,3.07,0,0,1,.46,1.67,3.19,3.19,0,0,1-2.26,3.09,1.62,1.62,0,0,0,.44.34,1,1,0,0,0,.45.1,1.38,1.38,0,0,0,1-.47Zm-5.49-2.79a1.89,1.89,0,0,0,.71.72,2.13,2.13,0,0,0,2,0,2,2,0,0,0,.71-.72,2.35,2.35,0,0,0,0-2.1,2,2,0,0,0-.71-.72,2.12,2.12,0,0,0-2,0,1.89,1.89,0,0,0-.71.72A2.23,2.23,0,0,0,270.51,136.42Z"/><path class="cls-9" d="M277.45,137.89a2.86,2.86,0,0,1-.76-2.14v-3.54h1.47v3.48c0,1.14.47,1.7,1.4,1.7a1.3,1.3,0,0,0,1.05-.41,1.91,1.91,0,0,0,.36-1.29v-3.48h1.45v3.54a3,3,0,0,1-5,2.14Z"/><path class="cls-9" d="M288.76,137.36v1.17h-4.9v-6.32h4.78v1.17h-3.32v1.38h2.93v1.13h-2.93v1.47Z"/><path class="cls-9" d="M290.55,138.44a3.65,3.65,0,0,1-1.13-.53l.5-1.1a3.39,3.39,0,0,0,1,.47,3.55,3.55,0,0,0,1.12.18,1.83,1.83,0,0,0,.92-.18.56.56,0,0,0,.3-.49.46.46,0,0,0-.18-.38,1.31,1.31,0,0,0-.45-.24c-.19-.06-.43-.12-.75-.19a10,10,0,0,1-1.18-.35,1.83,1.83,0,0,1-.79-.55,1.46,1.46,0,0,1-.33-1,1.78,1.78,0,0,1,.3-1,2,2,0,0,1,.9-.71,3.81,3.81,0,0,1,1.46-.26,4.79,4.79,0,0,1,1.19.15,3.35,3.35,0,0,1,1,.41l-.45,1.11a3.57,3.57,0,0,0-1.75-.49,1.68,1.68,0,0,0-.91.19.6.6,0,0,0-.3.53.52.52,0,0,0,.34.48,5,5,0,0,0,1,.31,10,10,0,0,1,1.18.35,1.81,1.81,0,0,1,.79.54,1.46,1.46,0,0,1,.33,1,1.78,1.78,0,0,1-.3,1,2.12,2.12,0,0,1-.91.71,3.9,3.9,0,0,1-1.47.26A5.33,5.33,0,0,1,290.55,138.44Z"/><path class="cls-9" d="M296.9,133.4h-2v-1.19h5.51v1.19h-2v5.13H296.9Z"/></g><g id="freepik--Device--inject-11"><path class="cls-32" d="M128.23,226h60.32a1.47,1.47,0,0,1,0,2.93H128.23a1.47,1.47,0,0,1-1.59-1.34A1.48,1.48,0,0,1,128,226Z"/><path class="cls-32" d="M187.75,228h-25a.7.7,0,0,1-.7-.7.59.59,0,0,1,0-.23l10.07-28.75A2,2,0,0,1,174,197h25a.7.7,0,0,1,.7.7.59.59,0,0,1,0,.23l-10.07,28.75A2,2,0,0,1,187.75,228Z"/><path class="cls-32" d="M188.64,228h-25a.7.7,0,0,1-.69-.71.78.78,0,0,1,0-.22l10.06-28.75a2,2,0,0,1,1.87-1.33h25a.7.7,0,0,1,.69.72.76.76,0,0,1,0,.21L190.5,226.68A2,2,0,0,1,188.64,228Z"/><path class="cls-14" d="M188.64,228h-25a.7.7,0,0,1-.69-.71.78.78,0,0,1,0-.22l10.06-28.75a2,2,0,0,1,1.87-1.33h25a.7.7,0,0,1,.69.72.76.76,0,0,1,0,.21L190.5,226.68A2,2,0,0,1,188.64,228Z"/><path class="cls-14" d="M160.42,228.9a1.47,1.47,0,0,0,1.59-1.34,1.48,1.48,0,0,0-1.35-1.59H128.23a1.47,1.47,0,0,0-1.59,1.34A1.48,1.48,0,0,0,128,228.9h32.43Z"/><polygon class="cls-7" points="192.18 198.19 199.12 198.19 198.54 199.86 191.59 199.86 192.18 198.19"/></g><g id="freepik--Icon--inject-11"><circle class="cls-7" cx="187.41" cy="91.59" r="41.48"/><circle class="cls-11" cx="187.41" cy="91.59" r="41.48"/><path class="cls-33" d="M174.62,103.44V81.07a8.45,8.45,0,1,0-5.37,0v22.37a8.44,8.44,0,1,0,5.37,0ZM171.93,70a3.07,3.07,0,1,1-3.06,3.08h0A3.07,3.07,0,0,1,171.93,70Zm0,44.5a3.07,3.07,0,1,1,3.07-3.07h0a3.06,3.06,0,0,1-3.06,3.06Z"/><path class="cls-33" d="M209.4,103.44V81.5a11.13,11.13,0,0,0-11.11-11.11h-8V66l-7.08,7.08,7.08,7.09v-4.4h8A5.75,5.75,0,0,1,204,81.5v21.94a8.45,8.45,0,1,0,5.37,0Zm-2.68,11.06a3.07,3.07,0,1,1,3.07-3.07h0a3.06,3.06,0,0,1-3.06,3.06Z"/></g></g></g></svg>