<svg width="442" height="416" viewBox="0 0 442 416" fill="none" xmlns="http://www.w3.org/2000/svg">
<g filter="url(#filter0_d)">
<path fill-rule="evenodd" clip-rule="evenodd" d="M397.141 249.409V254.688C397.141 254.688 397.697 258.009 394.919 259.188L346.582 289.769C341.631 293.064 335.702 294.199 331.257 291.527L270.465 260.966C266.997 259.045 264.353 255.1 269.354 251.267L324.358 220.141C324.358 220.141 328.525 217.54 336.581 222.07C344.637 226.601 397.141 249.409 397.141 249.409Z" fill="white"/>
<path fill-rule="evenodd" clip-rule="evenodd" d="M397.141 249.409V254.688C397.141 254.688 397.697 258.009 394.919 259.188L346.582 289.769C341.631 293.064 335.702 294.199 331.257 291.527L270.465 260.966C266.997 259.045 264.353 255.1 269.354 251.267L324.358 220.141C324.358 220.141 328.525 217.54 336.581 222.07C344.637 226.601 397.141 249.409 397.141 249.409Z" stroke="#979797" stroke-width="2"/>
</g>
<path d="M394.263 248.366L342.547 286.566C338.38 288.889 333.703 289.835 328.147 286.912L268.976 257.212C266.753 255.598 267.587 252.521 267.587 252.521" stroke="#979797"/>
<path fill-rule="evenodd" clip-rule="evenodd" d="M440.662 275.682L441 146.545C440.834 143.776 442.173 133.622 431.958 128.499L272.386 51.5099C264.739 47.6311 261.774 49.5661 259.138 51.8283C256.502 54.0904 256.832 56.4724 256.832 62.3213C256.832 94.6129 256.729 194.835 256.832 198.755C256.949 203.228 260.707 205.743 260.707 205.743L428.81 287.903C437.047 291.33 440.671 283.976 440.662 275.682Z" fill="white" stroke="#9E9E9E" stroke-width="2"/>
<path d="M256.501 59.1727C256.501 50.6044 264.079 52.7292 265.397 53.3566L427.32 131.582C436.387 137.238 435.724 139.386 435.717 151.922C435.717 151.922 435.722 238.482 435.725 281.761C435.726 288.435 432.106 289.142 432.106 289.142" stroke="#D3D3D3"/>
<path d="M438.365 139.376L436.717 139.745" stroke="#979797" stroke-width="2" stroke-linecap="round"/>
<path opacity="0.787139" d="M437.706 137.414L436.388 137.775" stroke="#979797" stroke-linecap="round"/>
<path d="M428.64 277.417V142.261L264.25 61.8612V197.017L428.64 277.417Z" fill="#EEEEEE" stroke="#D8D8D8"/>
<path fill-rule="evenodd" clip-rule="evenodd" d="M279.734 182.831V90.3843L416.307 157.381V248.366L279.734 182.831Z" fill="white"/>
<path fill-rule="evenodd" clip-rule="evenodd" d="M279.733 182.83V90.5786L302.696 101.469L302.696 194.519L279.733 182.83Z" fill="#3387BE"/>
<path fill-rule="evenodd" clip-rule="evenodd" d="M302.697 127.247V194.325L332.308 208.513V142.959L302.697 127.247Z" fill="#F9F9F9"/>
<path fill-rule="evenodd" clip-rule="evenodd" d="M337.142 145.487V210.943L416.306 248.712V185.231L337.142 145.487Z" fill="#F9F9F9"/>
<path fill-rule="evenodd" clip-rule="evenodd" d="M380.814 214.402C380.148 214.064 379.36 214.547 379.36 215.294V219.42C379.36 220.167 379.776 220.851 380.439 221.195L408.719 235.868C409.385 236.214 410.18 235.731 410.18 234.981V230.573C410.18 229.82 409.757 229.132 409.087 228.79L380.814 214.402Z" fill="#2D8ECF"/>
<path fill-rule="evenodd" clip-rule="evenodd" d="M310.729 117.754C310.063 117.4 309.26 117.883 309.26 118.637V123.554C309.26 124.299 309.675 124.983 310.336 125.327L339.222 140.383C339.888 140.73 340.684 140.247 340.684 139.496V134.869C340.684 134.13 340.276 133.45 339.622 133.103L310.729 117.754Z" fill="#EEEEEE"/>
<path fill-rule="evenodd" clip-rule="evenodd" d="M345.297 163.629L368.101 175.306C368.645 175.585 369.087 176.243 369.087 176.783C369.087 177.321 368.647 177.53 368.101 177.251L345.297 165.574C344.752 165.295 344.311 164.637 344.311 164.096C344.311 163.559 344.751 163.349 345.297 163.629Z" fill="#D8D8D8"/>
<path fill-rule="evenodd" clip-rule="evenodd" d="M345.297 171.485L368.101 183.162C368.645 183.441 369.087 184.099 369.087 184.639C369.087 185.177 368.647 185.386 368.101 185.107L345.297 173.43C344.752 173.151 344.311 172.493 344.311 171.952C344.311 171.415 344.751 171.205 345.297 171.485Z" fill="#D8D8D8"/>
<g filter="url(#filter1_d)">
<path fill-rule="evenodd" clip-rule="evenodd" d="M306.937 304.916V310.496C306.937 310.496 307.525 314.006 304.584 315.252L253.403 347.575C248.162 351.057 241.884 352.256 237.178 349.432L172.809 317.131C169.137 315.101 166.338 310.931 171.632 306.88L229.872 273.982C229.872 273.982 234.284 271.233 242.814 276.021C251.344 280.81 306.937 304.916 306.937 304.916Z" fill="white"/>
<path fill-rule="evenodd" clip-rule="evenodd" d="M306.937 304.916V310.496C306.937 310.496 307.525 314.006 304.584 315.252L253.403 347.575C248.162 351.057 241.884 352.256 237.178 349.432L172.809 317.131C169.137 315.101 166.338 310.931 171.632 306.88L229.872 273.982C229.872 273.982 234.284 271.233 242.814 276.021C251.344 280.81 306.937 304.916 306.937 304.916Z" stroke="#979797" stroke-width="2"/>
</g>
<path d="M303.889 303.814L249.131 344.189C244.719 346.644 239.767 347.644 233.884 344.554L171.232 313.163C168.879 311.458 169.761 308.206 169.761 308.206" stroke="#979797"/>
<path fill-rule="evenodd" clip-rule="evenodd" d="M353.017 332.685L353.375 196.197C353.2 193.27 354.617 182.537 343.801 177.123L174.842 95.7509C166.746 91.6513 163.606 93.6964 160.815 96.0874C158.025 98.4783 158.373 100.996 158.373 107.178C158.373 141.308 158.265 247.235 158.373 251.379C158.498 256.106 162.477 258.765 162.477 258.765L340.468 345.602C349.189 349.224 353.027 341.451 353.017 332.685Z" fill="white" stroke="#9E9E9E" stroke-width="2"/>
<path d="M158.023 103.849C158.023 94.793 166.046 97.0387 167.441 97.7019L338.889 180.38C348.49 186.359 347.788 188.629 347.78 201.879C347.78 201.879 347.786 293.366 347.789 339.11C347.79 346.163 343.957 346.911 343.957 346.911" stroke="#D3D3D3"/>
<path d="M350.585 188.618L348.841 189.008" stroke="#979797" stroke-width="2" stroke-linecap="round"/>
<path opacity="0.787139" d="M349.888 186.545L348.492 186.927" stroke="#979797" stroke-linecap="round"/>
<path d="M339.582 334.416V191.711L166.742 106.832V249.537L339.582 334.416Z" fill="#EEEEEE" stroke="#D8D8D8"/>
<path fill-rule="evenodd" clip-rule="evenodd" d="M178.732 240.468V139.333L327.391 212.627V312.164L178.732 240.468Z" fill="white"/>
<path fill-rule="evenodd" clip-rule="evenodd" d="M178.732 166.377V239.869L236.168 268.133V197.252L178.732 166.377Z" fill="#F9F9F9"/>
<path fill-rule="evenodd" clip-rule="evenodd" d="M249.448 206.202V274.387L327.391 312.164V244.618L249.448 206.202Z" fill="#F9F9F9"/>
<path fill-rule="evenodd" clip-rule="evenodd" d="M249.448 206.202V274.387L274.869 286.708L274.869 219.247L274.869 218.716L249.448 206.202Z" fill="#EEEEEE"/>
<path fill-rule="evenodd" clip-rule="evenodd" d="M238.421 227.443V233.999L247.43 237.609V231.276L238.421 227.443Z" fill="#DEDEDE"/>
<path fill-rule="evenodd" clip-rule="evenodd" d="M238.421 237.609V244.165L247.43 247.776V242.422V241.443L238.421 237.609Z" fill="#DEDEDE"/>
<path fill-rule="evenodd" clip-rule="evenodd" d="M226.129 176.976C225.463 176.622 224.66 177.105 224.66 177.859V182.776C224.66 183.521 225.074 184.205 225.735 184.549L254.621 199.605C255.287 199.952 256.083 199.469 256.083 198.719V194.092C256.083 193.352 255.675 192.672 255.022 192.325L226.129 176.976Z" fill="#EEEEEE"/>
<path fill-rule="evenodd" clip-rule="evenodd" d="M188.057 157.033C187.391 156.68 186.588 157.162 186.588 157.917V162.834C186.588 163.579 187.002 164.263 187.663 164.607L216.55 179.663C217.215 180.01 218.012 179.527 218.012 178.776V174.149C218.012 173.409 217.603 172.73 216.95 172.383L188.057 157.033Z" fill="#EEEEEE"/>
<path fill-rule="evenodd" clip-rule="evenodd" d="M188.807 187.801L212.167 199.478C212.725 199.757 213.177 200.415 213.177 200.956C213.177 201.493 212.726 201.703 212.167 201.423L188.807 189.746C188.249 189.467 187.796 188.809 187.796 188.268C187.796 187.731 188.248 187.522 188.807 187.801Z" fill="#D8D8D8"/>
<path fill-rule="evenodd" clip-rule="evenodd" d="M188.807 195.053L212.167 206.73C212.725 207.009 213.177 207.666 213.177 208.207C213.177 208.744 212.726 208.954 212.167 208.675L188.807 196.998C188.249 196.719 187.796 196.061 187.796 195.52C187.796 194.983 188.248 194.773 188.807 195.053Z" fill="#D8D8D8"/>
<path fill-rule="evenodd" clip-rule="evenodd" d="M289.565 275.437C288.9 275.098 288.112 275.582 288.112 276.328V280.455C288.112 281.201 288.528 281.886 289.19 282.23L317.471 296.903C318.136 297.248 318.931 296.765 318.931 296.015V291.608C318.931 290.855 318.509 290.166 317.838 289.825L289.565 275.437Z" fill="#2D8ECF"/>
<g filter="url(#filter2_d)">
<path fill-rule="evenodd" clip-rule="evenodd" d="M209.212 361.285V366.917C209.212 366.917 209.806 370.46 206.837 371.717L155.183 404.343C149.892 407.858 143.556 409.069 138.807 406.218L73.8418 373.614C70.1358 371.565 67.3108 367.357 72.6544 363.267L131.433 330.061C131.433 330.061 135.886 327.286 144.495 332.12C153.104 336.953 209.212 361.285 209.212 361.285Z" fill="white"/>
<path fill-rule="evenodd" clip-rule="evenodd" d="M209.212 361.285V366.917C209.212 366.917 209.806 370.46 206.837 371.717L155.183 404.343C149.892 407.858 143.556 409.069 138.807 406.218L73.8418 373.614C70.1358 371.565 67.3108 367.357 72.6544 363.267L131.433 330.061C131.433 330.061 135.886 327.286 144.495 332.12C153.104 336.953 209.212 361.285 209.212 361.285Z" stroke="#979797" stroke-width="2"/>
</g>
<path d="M206.137 360.172L150.872 400.925C146.419 403.404 141.421 404.413 135.484 401.294L72.2516 369.609C69.8767 367.888 70.7673 364.605 70.7673 364.605" stroke="#979797"/>
<path fill-rule="evenodd" clip-rule="evenodd" d="M255.72 389.314L256.082 251.547C255.904 248.593 257.335 237.76 246.419 232.295L75.8956 150.161C67.724 146.022 64.5554 148.087 61.7388 150.5C58.9223 152.914 59.2743 155.455 59.2743 161.694C59.2743 196.144 59.1645 303.064 59.2743 307.246C59.3997 312.018 63.4157 314.702 63.4157 314.702L243.055 402.352C251.857 406.008 255.73 398.162 255.72 389.314Z" fill="white" stroke="#9E9E9E" stroke-width="2"/>
<path d="M58.9199 158.334C58.9199 149.193 67.0175 151.46 68.4258 152.13L241.461 235.583C251.151 241.617 250.443 243.908 250.434 257.283C250.434 257.283 250.441 349.627 250.444 395.799C250.444 402.919 246.576 403.673 246.576 403.673" stroke="#D3D3D3"/>
<path d="M253.265 243.898L251.504 244.292" stroke="#979797" stroke-width="2" stroke-linecap="round"/>
<path opacity="0.787139" d="M252.562 241.806L251.153 242.191" stroke="#979797" stroke-linecap="round"/>
<path d="M242.288 391.216V247L67.0332 161.223V305.439L242.288 391.216Z" fill="#EEEEEE" stroke="#D8D8D8"/>
<path fill-rule="evenodd" clip-rule="evenodd" d="M77.2535 291.445V186.756L231.864 262.625V365.659L124.089 313.926L77.2535 291.445Z" fill="white"/>
<path fill-rule="evenodd" clip-rule="evenodd" d="M85.6675 223.331V230.453L169.666 273.488V267.012L85.6675 223.331Z" fill="#EEEEEE"/>
<path opacity="0.592704" fill-rule="evenodd" clip-rule="evenodd" d="M85.6564 216.994V285.765L175.924 329.268V264.12L85.6564 216.994Z" stroke="#E3E3E3"/>
<path fill-rule="evenodd" clip-rule="evenodd" d="M184.504 265.709V343.092L231.864 365.659V289.279L184.504 265.709Z" fill="#F9F9F9"/>
<path fill-rule="evenodd" clip-rule="evenodd" d="M193.466 329.79C192.801 329.465 192.026 329.948 192.026 330.688V334.821C192.026 335.579 192.454 336.272 193.133 336.61L222.608 351.326C223.272 351.658 224.054 351.175 224.054 350.432V346.016C224.054 345.253 223.619 344.556 222.934 344.22L193.466 329.79Z" fill="#2D8ECF"/>
<path fill-rule="evenodd" clip-rule="evenodd" d="M85.6679 203.389V208.885L175.924 255.299V249.331L85.6679 203.389Z" fill="#5FCBA0"/>
<path fill-rule="evenodd" clip-rule="evenodd" d="M93.3155 280.863L109.444 288.99C109.996 289.268 110.444 289.926 110.444 290.467C110.444 291.004 109.996 291.213 109.444 290.935L93.3155 282.808C92.7629 282.53 92.3149 281.873 92.3149 281.332C92.3149 280.795 92.7631 280.585 93.3155 280.863Z" fill="#D8D8D8"/>
<path fill-rule="evenodd" clip-rule="evenodd" d="M93.3426 265.154L122.711 279.7C123.279 279.981 123.739 280.64 123.739 281.181C123.739 281.718 123.283 281.928 122.711 281.645L93.3426 267.1C92.775 266.819 92.3149 266.159 92.3149 265.618C92.3149 265.081 92.7713 264.872 93.3426 265.154Z" fill="#D8D8D8"/>
<path fill-rule="evenodd" clip-rule="evenodd" d="M93.3155 273.007L109.444 281.134C109.996 281.412 110.444 282.07 110.444 282.611C110.444 283.148 109.996 283.357 109.444 283.079L93.3155 274.953C92.7629 274.674 92.3149 274.017 92.3149 273.476C92.3149 272.939 92.7631 272.729 93.3155 273.007Z" fill="#D8D8D8"/>
<path fill-rule="evenodd" clip-rule="evenodd" d="M93.3426 248.838L122.711 263.383C123.279 263.664 123.739 264.324 123.739 264.865C123.739 265.402 123.283 265.611 122.711 265.328L93.3426 250.783C92.775 250.502 92.3149 249.843 92.3149 249.302C92.3149 248.765 92.7713 248.555 93.3426 248.838Z" fill="#D8D8D8"/>
<path fill-rule="evenodd" clip-rule="evenodd" d="M93.3155 257.295L109.444 265.422C109.996 265.7 110.444 266.358 110.444 266.899C110.444 267.436 109.996 267.646 109.444 267.367L93.3155 259.241C92.7629 258.962 92.3149 258.305 92.3149 257.764C92.3149 257.227 92.7631 257.017 93.3155 257.295Z" fill="#D8D8D8"/>
<path fill-rule="evenodd" clip-rule="evenodd" d="M144.136 305.036L168.608 316.713C169.193 316.992 169.667 317.65 169.667 318.191C169.667 318.728 169.194 318.938 168.608 318.659L144.136 306.982C143.551 306.703 143.077 306.045 143.077 305.504C143.077 304.967 143.55 304.757 144.136 305.036Z" fill="#D8D8D8"/>
<path d="M58.527 216.609C23.9501 166.659 10.515 113.896 94.2799 89.1065" stroke="#979797"/>
<path fill-rule="evenodd" clip-rule="evenodd" d="M108.368 31.7848L123.522 53.4623L113.399 87.7172L147.119 86.0777L161.129 107.496L215.551 61.0948L108.368 31.7848Z" fill="white" stroke="#9E9E9E" stroke-width="3"/>
<path d="M160.998 107.541L136.079 68.986L113.939 88.0078" stroke="#9E9E9E" stroke-width="3"/>
<path fill-rule="evenodd" clip-rule="evenodd" d="M123.795 53.9976L214.449 61.8484L136.315 68.5725" fill="white"/>
<path d="M123.795 53.9976L214.449 61.8484L136.315 68.5725" stroke="#9E9E9E" stroke-width="2"/>
<defs>
<filter id="filter0_d" x="265.585" y="218.398" width="132.601" height="82.6179" filterUnits="userSpaceOnUse" color-interpolation-filters="sRGB">
<feFlood flood-opacity="0" result="BackgroundImageFix"/>
<feColorMatrix in="SourceAlpha" type="matrix" values="0 0 0 0 0 0 0 0 0 0 0 0 0 0 0 0 0 0 127 0"/>
<feOffset dy="7"/>
<feColorMatrix type="matrix" values="0 0 0 0 0.592157 0 0 0 0 0.592157 0 0 0 0 0.592157 0 0 0 0.251189 0"/>
<feBlend mode="normal" in2="BackgroundImageFix" result="effect1_dropShadow"/>
<feBlend mode="normal" in="SourceGraphic" in2="effect1_dropShadow" result="shape"/>
</filter>
<filter id="filter1_d" x="167.702" y="272.197" width="140.283" height="86.8089" filterUnits="userSpaceOnUse" color-interpolation-filters="sRGB">
<feFlood flood-opacity="0" result="BackgroundImageFix"/>
<feColorMatrix in="SourceAlpha" type="matrix" values="0 0 0 0 0 0 0 0 0 0 0 0 0 0 0 0 0 0 127 0"/>
<feOffset dy="7"/>
<feColorMatrix type="matrix" values="0 0 0 0 0.592157 0 0 0 0 0.592157 0 0 0 0 0.592157 0 0 0 0.251189 0"/>
<feBlend mode="normal" in2="BackgroundImageFix" result="effect1_dropShadow"/>
<feBlend mode="normal" in="SourceGraphic" in2="effect1_dropShadow" result="shape"/>
</filter>
<filter id="filter2_d" x="68.6968" y="328.269" width="141.564" height="87.5378" filterUnits="userSpaceOnUse" color-interpolation-filters="sRGB">
<feFlood flood-opacity="0" result="BackgroundImageFix"/>
<feColorMatrix in="SourceAlpha" type="matrix" values="0 0 0 0 0 0 0 0 0 0 0 0 0 0 0 0 0 0 127 0"/>
<feOffset dy="7"/>
<feColorMatrix type="matrix" values="0 0 0 0 0.592157 0 0 0 0 0.592157 0 0 0 0 0.592157 0 0 0 0.251189 0"/>
<feBlend mode="normal" in2="BackgroundImageFix" result="effect1_dropShadow"/>
<feBlend mode="normal" in="SourceGraphic" in2="effect1_dropShadow" result="shape"/>
</filter>
</defs>
</svg>
