<?xml version="1.0"?>
<svg xmlns="http://www.w3.org/2000/svg" xmlns:xlink="http://www.w3.org/1999/xlink" xmlns:svgjs="http://svgjs.com/svgjs" version="1.1" width="512" height="512" x="0" y="0" viewBox="0 0 36 36" style="enable-background:new 0 0 512 512" xml:space="preserve" class=""><g><g xmlns="http://www.w3.org/2000/svg"><path d="m27.623 31.833c-6.917 0-11.667 3.583-15 3.583s-10.333-1.916-10.333-17.249 9.417-17.584 13.083-17.584c17.167 0 24.5 31.25 12.25 31.25z" fill="#efefef" data-original="#efefef" style="" class=""/></g><g xmlns="http://www.w3.org/2000/svg"><g><path d="m2.556 3.967h1v2h-1z" fill="#a4afc1" transform="matrix(.707 -.707 .707 .707 -2.617 3.615)" data-original="#a4afc1" style="" class=""/></g><g><path d="m6.621 8.033h1v2h-1z" fill="#a4afc1" transform="matrix(.707 -.707 .707 .707 -4.301 7.679)" data-original="#a4afc1" style="" class=""/></g><g><path d="m1.879 8.533h2v1h-2z" fill="#a4afc1" transform="matrix(.707 -.707 .707 .707 -5.544 4.681)" data-original="#a4afc1" style="" class=""/></g><g><path d="m5.944 4.467h2v1h-2z" fill="#a4afc1" transform="matrix(.707 -.707 .707 .707 -1.478 6.365)" data-original="#a4afc1" style="" class=""/></g></g><g xmlns="http://www.w3.org/2000/svg"><path d="m12.75 19.25h6v4l3-4h6.5c.552 0 1-.448 1-1v-10.5c0-.552-.448-1-1-1h-15.5c-.552 0-1 .448-1 1v10.5c0 .552.448 1 1 1z" fill="#f3f3f1" data-original="#f3f3f1" style=""/></g><g xmlns="http://www.w3.org/2000/svg"><path d="m22.75 9.75h2.5v6.5h-2.5z" fill="#2f84df" data-original="#2fdf84" style="" class=""/></g><g xmlns="http://www.w3.org/2000/svg"><path d="m16.75 13.75h2.5v2.5h-2.5z" fill="#2f84df" data-original="#2fdf84" style="" class=""/></g><g xmlns="http://www.w3.org/2000/svg"><circle cx="11.5" cy="20.5" fill="#2f84df" r="2.25" data-original="#2fdf84" style="" class=""/></g><g xmlns="http://www.w3.org/2000/svg"><path d="m16.25 29.25v-1.5c0-1.105-.895-2-2-2h-5.5c-1.105 0-2 .895-2 2v1.5z" fill="#2f84df" data-original="#2fdf84" style="" class=""/></g><g xmlns="http://www.w3.org/2000/svg"><path d="m14 18.25v-10.5c0-.552.448-1 1-1h-2.25c-.552 0-1 .448-1 1v10.5c0 .552.448 1 1 1h2.25c-.552 0-1-.448-1-1z" fill="#d5dbe1" data-original="#d5dbe1" style="" class=""/></g><g xmlns="http://www.w3.org/2000/svg"><path d="m22.75 9.75h2.25v6.5h-2.25z" fill="#0062b8" data-original="#00b871" style="" class=""/></g><g xmlns="http://www.w3.org/2000/svg"><path d="m16.75 13.75h2.25v2.5h-2.25z" fill="#0062b8" data-original="#00b871" style="" class=""/></g><g xmlns="http://www.w3.org/2000/svg"><path d="m11.5 20.5c0-.831.455-1.548 1.125-1.938-.332-.193-.713-.312-1.125-.312-1.243 0-2.25 1.007-2.25 2.25s1.007 2.25 2.25 2.25c.412 0 .793-.119 1.125-.312-.67-.39-1.125-1.107-1.125-1.938z" fill="#0062b8" data-original="#00b871" style="" class=""/></g><g xmlns="http://www.w3.org/2000/svg"><path d="m11 25.75h-2.25c-1.105 0-2 .895-2 2v1.5h2.25v-1.5c0-1.105.895-2 2-2z" fill="#0062b8" data-original="#00b871" style="" class=""/></g><g xmlns="http://www.w3.org/2000/svg"><path d="m25.25 17h-2.5c-.414 0-.75-.336-.75-.75v-6.5c0-.414.336-.75.75-.75h2.5c.414 0 .75.336.75.75v6.5c0 .414-.336.75-.75.75zm-1.75-1.5h1v-5h-1z" fill="#000000" data-original="#000000" style=""/></g><g xmlns="http://www.w3.org/2000/svg"><path d="m19.25 17h-2.5c-.414 0-.75-.336-.75-.75v-2.5c0-.414.336-.75.75-.75h2.5c.414 0 .75.336.75.75v2.5c0 .414-.336.75-.75.75zm-1.75-1.5h1v-1h-1z" fill="#000000" data-original="#000000" style=""/></g><g xmlns="http://www.w3.org/2000/svg"><path d="m15 15.5h12v1.5h-12z" fill="#000000" data-original="#000000" style=""/></g><g xmlns="http://www.w3.org/2000/svg"><path d="m18.75 24c-.079 0-.159-.013-.237-.039-.306-.102-.513-.388-.513-.711v-3.25h-1.25v-1.5h2c.414 0 .75.336.75.75v1.75l1.65-2.2c.142-.188.363-.3.6-.3h6.5c.138 0 .25-.112.25-.25v-10.5c0-.138-.112-.25-.25-.25h-15.5c-.138 0-.25.112-.25.25v6.5h-1.5v-6.5c0-.965.785-1.75 1.75-1.75h15.5c.965 0 1.75.785 1.75 1.75v10.5c0 .965-.785 1.75-1.75 1.75h-6.125l-2.775 3.7c-.144.193-.369.3-.6.3z" fill="#000000" data-original="#000000" style=""/></g><g xmlns="http://www.w3.org/2000/svg"><path d="m11.5 23.5c-1.654 0-3-1.346-3-3s1.346-3 3-3 3 1.346 3 3-1.346 3-3 3zm0-4.5c-.827 0-1.5.673-1.5 1.5s.673 1.5 1.5 1.5 1.5-.673 1.5-1.5-.673-1.5-1.5-1.5z" fill="#000000" data-original="#000000" style=""/></g><g xmlns="http://www.w3.org/2000/svg"><path d="m17 29.25h-1.5v-1.5c0-.689-.561-1.25-1.25-1.25h-5.5c-.689 0-1.25.561-1.25 1.25v1.5h-1.5v-1.5c0-1.517 1.233-2.75 2.75-2.75h5.5c1.517 0 2.75 1.233 2.75 2.75z" fill="#000000" data-original="#000000" style=""/></g><g xmlns="http://www.w3.org/2000/svg"><path d="m2 27.75h32v1.5h-32z" fill="#000000" data-original="#000000" style=""/></g></g></svg>
