<?xml version="1.0"?>
<svg xmlns="http://www.w3.org/2000/svg" xmlns:xlink="http://www.w3.org/1999/xlink" xmlns:svgjs="http://svgjs.com/svgjs" version="1.1" width="512" height="512" x="0" y="0" viewBox="0 0 36 36" style="enable-background:new 0 0 512 512" xml:space="preserve" class=""><g><path xmlns="http://www.w3.org/2000/svg" d="m4.1666665 27.6232262c0-6.9166679-3.5833333-11.666667-3.5833333-15.000001s1.9166668-10.333333 17.2500008-10.333333 17.583334 9.416667 17.583334 13.083333c-.0000001 17.1666651-31.2500015 24.500001-31.2500015 12.250001z" fill="#efefef" data-original="#efefef" style="" class=""/><g xmlns="http://www.w3.org/2000/svg" fill="#a4afc1"><path d="m28.655 1.901h1v2h-1z" transform="matrix(.707 -.707 .707 .707 6.488 21.466)" fill="#a4afc1" data-original="#a4afc1" style=""/><path d="m32.722 5.967h1v2h-1z" transform="matrix(.707 -.707 .707 .707 4.801 25.527)" fill="#a4afc1" data-original="#a4afc1" style=""/><path d="m32.045 2.401h2v1h-2z" transform="matrix(.707 -.707 .707 .707 7.627 24.216)" fill="#a4afc1" data-original="#a4afc1" style=""/></g><path xmlns="http://www.w3.org/2000/svg" d="m27.5 29.5h-19c-1.1045694 0-2-.8954296-2-2v-19c0-1.1045694.8954306-2 2-2h19c1.1045704 0 2 .8954306 2 2v19c0 1.1045704-.8954296 2-2 2z" fill="#f3f3f1" data-original="#f3f3f1" style="" class=""/><circle xmlns="http://www.w3.org/2000/svg" cx="18" cy="12" fill="#2f63df" r="2.5" data-original="#2fdf84" style="" class=""/><path xmlns="http://www.w3.org/2000/svg" d="m22.5 20.5v-2c0-1.1045704-.8954296-2-2-2h-5c-1.1045694 0-2 .8954296-2 2v2z" fill="#2f63df" data-original="#2fdf84" style="" class=""/><path xmlns="http://www.w3.org/2000/svg" d="m6.5 23.5v4c0 1.1045532.8954468 2 2 2h19c1.1045532 0 2-.8954468 2-2v-4z" fill="#2f63df" data-original="#2fdf84" style="" class=""/><path xmlns="http://www.w3.org/2000/svg" d="m17.5 12c0-1.0246582.6177368-1.9028931 1.5-2.2889404-.3065796-.1341553-.6439209-.2110596-1-.2110596-1.3807373 0-2.5 1.1192627-2.5 2.5 0 1.3806763 1.1192627 2.5 2.5 2.5.3560791 0 .6934204-.0769043 1-.2110596-.8822632-.3861084-1.5-1.2643432-1.5-2.2889404z" fill="#0051b8" data-original="#00b871" style="" class=""/><path xmlns="http://www.w3.org/2000/svg" d="m17.5 16.5h-2c-1.1045532 0-2 .8953857-2 2v2h2v-2c0-1.1046143.8954468-2 2-2z" fill="#0051b8" data-original="#00b871" style="" class=""/><path xmlns="http://www.w3.org/2000/svg" d="m8.5 27.5v-19c0-1.1046143.8954468-2 2-2h-2c-1.1045532 0-2 .8953857-2 2v19c0 1.1045532.8954468 2 2 2h2c-1.1045532 0-2-.8954468-2-2z" fill="#d5dbe1" data-original="#d5dbe1" style="" class=""/><path xmlns="http://www.w3.org/2000/svg" d="m8.5 27.5v-4h-2v4c0 1.1045532.8954468 2 2 2h2c-1.1045532 0-2-.8954468-2-2z" fill="#0051b8" data-original="#00b871" style="" class=""/><path xmlns="http://www.w3.org/2000/svg" d="m27.5 30h-19c-1.3789062 0-2.5-1.121582-2.5-2.5v-19c0-1.378418 1.1210938-2.5 2.5-2.5h19c1.3789063 0 2.5 1.121582 2.5 2.5v19c0 1.378418-1.1210937 2.5-2.5 2.5zm-19-23c-.8271484 0-1.5.6728516-1.5 1.5v19c0 .8271484.6728516 1.5 1.5 1.5h19c.8271484 0 1.5-.6728516 1.5-1.5v-19c0-.8271484-.6728516-1.5-1.5-1.5z" fill="#000000" data-original="#000000" style="" class=""/><path xmlns="http://www.w3.org/2000/svg" d="m29.5 24h-23c-.2763672 0-.5-.2236328-.5-.5s.2236328-.5.5-.5h23c.2763672 0 .5.2236328.5.5s-.2236328.5-.5.5z" fill="#000000" data-original="#000000" style="" class=""/><path xmlns="http://www.w3.org/2000/svg" d="m26.5 27h-17c-.2763672 0-.5-.2236328-.5-.5s.2236328-.5.5-.5h17c.2763672 0 .5.2236328.5.5s-.2236328.5-.5.5z" fill="#000000" data-original="#000000" style="" class=""/><path xmlns="http://www.w3.org/2000/svg" d="m14.5 28c-.2763672 0-.5-.2236328-.5-.5v-2c0-.2763672.2236328-.5.5-.5s.5.2236328.5.5v2c0 .2763672-.2236328.5-.5.5z" fill="#000000" data-original="#000000" style="" class=""/><path xmlns="http://www.w3.org/2000/svg" d="m18 15c-1.6542969 0-3-1.3457031-3-3s1.3457031-3 3-3 3 1.3457031 3 3-1.3457031 3-3 3zm0-5c-1.1025391 0-2 .8969727-2 2s.8974609 2 2 2 2-.8969727 2-2-.8974609-2-2-2z" fill="#000000" data-original="#000000" style="" class=""/><path xmlns="http://www.w3.org/2000/svg" d="m22.5 21h-9c-.2763672 0-.5-.2236328-.5-.5v-2c0-1.378418 1.1210938-2.5 2.5-2.5h5c1.3789063 0 2.5 1.121582 2.5 2.5v2c0 .2763672-.2236328.5-.5.5zm-8.5-1h8v-1.5c0-.8271484-.6728516-1.5-1.5-1.5h-5c-.8271484 0-1.5.6728516-1.5 1.5z" fill="#000000" data-original="#000000" style="" class=""/></g></svg>
