<svg xmlns="http://www.w3.org/2000/svg" version="1.1" xmlns:xlink="http://www.w3.org/1999/xlink" xmlns:svgjs="http://svgjs.com/svgjs" width="1440" height="560" preserveAspectRatio="none" viewBox="0 0 1440 560"><g mask="url(&quot;#SvgjsMask1031&quot;)" fill="none"><rect width="1440" height="560" x="0" y="0" fill="transparent"></rect><path d="M0,479.886C91.525,476.83,106.611,334.748,179.51,279.323C243.597,230.597,342.421,241.625,394.324,180.082C451.349,112.466,502.936,15.083,472.355,-67.914C440.831,-153.47,313.646,-151.518,248.6,-215.413C191.574,-271.43,196.115,-384.9,121.22,-412.837C47.067,-440.498,-26.776,-371.813,-101.609,-346.048C-172.42,-321.668,-259.652,-324.011,-306.492,-265.577C-353.15,-207.369,-338.716,-123.452,-339.828,-48.86C-340.809,16.979,-339.488,82.653,-312.577,142.749C-285.535,203.138,-232.37,243.054,-187.384,291.575C-125.933,357.854,-90.333,482.903,0,479.886" fill="#04f"></path><path d="M1440 1056.7930000000001C1530.938 1044.426 1579.76 946.6 1652.434 890.554 1717.416 840.4390000000001 1797.673 812.097 1844.592 744.771 1897.132 669.379 1951.6190000000001 579.043 1932.103 489.246 1912.661 399.788 1814.434 355.823 1746.681 294.259 1687.463 240.45100000000002 1633.278 183.402 1560.0430000000001 151.17200000000003 1478.993 115.50299999999999 1389.64 74.19 1304.881 99.82900000000001 1220.2350000000001 125.43400000000003 1184.923 222.41500000000002 1121.339 283.878 1049.8609999999999 352.971 933.598 387.454 907.963 483.505 882.24 579.887 942.3050000000001 678.249 993.185 764.054 1040.245 843.4169999999999 1109.6979999999999 903.303 1186.876 953.8679999999999 1264.6390000000001 1004.816 1347.882 1069.321 1440 1056.7930000000001" fill="#04f"></path></g><defs><mask id="SvgjsMask1031"><rect width="1440" height="560" fill="#ffffff"></rect></mask></defs></svg>