<svg xmlns="http://www.w3.org/2000/svg" version="1.1" xmlns:xlink="http://www.w3.org/1999/xlink" xmlns:svgjs="http://svgjs.com/svgjs" width="1440" height="560" preserveAspectRatio="none" viewBox="0 0 1440 560"><g mask="url(&quot;#SvgjsMask1031&quot;)" fill="none"><rect width="1440" height="560" x="0" y="0" fill="transparent"></rect><path d="M0,479.886C91.525,476.83,106.611,334.748,179.51,279.323C243.597,230.597,342.421,241.625,394.324,180.082C451.349,112.466,502.936,15.083,472.355,-67.914C440.831,-153.47,313.646,-151.518,248.6,-215.413C191.574,-271.43,196.115,-384.9,121.22,-412.837C47.067,-440.498,-26.776,-371.813,-101.609,-346.048C-172.42,-321.668,-259.652,-324.011,-306.492,-265.577C-353.15,-207.369,-338.716,-123.452,-339.828,-48.86C-340.809,16.979,-339.488,82.653,-312.577,142.749C-285.535,203.138,-232.37,243.054,-187.384,291.575C-125.933,357.854,-90.333,482.903,0,479.886" fill="#04f"></path></g><defs><mask id="SvgjsMask1031"><rect width="1440" height="560" fill="#ffffff"></rect></mask></defs></svg>