<?xml version="1.0"?>
<svg xmlns="http://www.w3.org/2000/svg" xmlns:xlink="http://www.w3.org/1999/xlink" xmlns:svgjs="http://svgjs.com/svgjs" version="1.1" width="512" height="512" x="0" y="0" viewBox="0 0 36 36" style="enable-background:new 0 0 512 512" xml:space="preserve" class=""><g><g xmlns="http://www.w3.org/2000/svg"><path d="m31.833 8.377c0 6.917 3.583 11.667 3.583 15s-1.916 10.333-17.249 10.333-17.584-9.417-17.584-13.083c0-17.167 31.25-24.5 31.25-12.25z" fill="#efefef" data-original="#efefef" style="" class=""/></g><g xmlns="http://www.w3.org/2000/svg"><path d="m31.5 6c-.827 0-1.5-.673-1.5-1.5s.673-1.5 1.5-1.5 1.5.673 1.5 1.5-.673 1.5-1.5 1.5zm0-2c-.276 0-.5.224-.5.5s.224.5.5.5.5-.224.5-.5-.224-.5-.5-.5z" fill="#a4afc1" data-original="#a4afc1" style=""/></g><g xmlns="http://www.w3.org/2000/svg"><path d="m27.25 28.25h-18.5c-1.105 0-2-.895-2-2v-15h22.5v15c0 1.105-.895 2-2 2z" fill="#f3f3f1" data-original="#f3f3f1" style="" class=""/></g><g xmlns="http://www.w3.org/2000/svg"><path d="m29.25 11.25h-22.5v-1.5c0-1.105.895-2 2-2h18.5c1.105 0 2 .895 2 2z" fill="#2f7cdf" data-original="#2fdf84" style="" class=""/></g><g xmlns="http://www.w3.org/2000/svg"><path d="m16.25 25.25h-5.5c-.552 0-1-.448-1-1v-8.5c0-.552.448-1 1-1h5.5c.552 0 1 .448 1 1v8.5c0 .552-.448 1-1 1z" fill="#2f7cdf" data-original="#2fdf84" style="" class=""/></g><g xmlns="http://www.w3.org/2000/svg"><path d="m17.25 22.34-.97-1.21c-.4-.51-1.16-.51-1.56 0l-.52.65c-.2.25-.49.37-.78.37-.265 0-.52-.094-.722-.302-.379-.391-1.074-.322-1.459.063l-1.489 1.489v.85c0 .552.448 1 1 1h5.5c.552 0 1-.448 1-1z" fill="#2f7cdf" data-original="#2fdf84" style="" class=""/></g><g xmlns="http://www.w3.org/2000/svg"><path d="m9.25 26.25v-15h-2.5v15c0 1.105.895 2 2 2h2.5c-1.105 0-2-.895-2-2z" fill="#d5dbe1" data-original="#d5dbe1" style=""/></g><g xmlns="http://www.w3.org/2000/svg"><path d="m11 7.75h-2.25c-1.105 0-2 .895-2 2v1.5h2.25v-1.5c0-1.105.895-2 2-2z" fill="#1954c5" data-original="#00b871" style="" class=""/></g><g xmlns="http://www.w3.org/2000/svg"><path d="m12 24.25v-8.5c0-.552.448-1 1-1h-2.25c-.552 0-1 .448-1 1v8.5c0 .552.448 1 1 1h2.25c-.552 0-1-.448-1-1z" fill="#1954c5" data-original="#00b871" style="" class=""/></g><g xmlns="http://www.w3.org/2000/svg"><path d="m12 24.25v-.85l1.277-1.277c-.212-.029-.415-.105-.579-.275-.379-.391-1.074-.322-1.459.063l-1.489 1.489v.85c0 .552.448 1 1 1h2.25c-.552 0-1-.448-1-1z" fill="#1954c5" data-original="#00b871" style="" class=""/></g><g xmlns="http://www.w3.org/2000/svg"><path d="m20 14.5h7v1.5h-7z" fill="#000000" data-original="#000000" style="" class=""/></g><g xmlns="http://www.w3.org/2000/svg"><path d="m20 17.5h7v1.5h-7z" fill="#000000" data-original="#000000" style="" class=""/></g><g xmlns="http://www.w3.org/2000/svg"><path d="m20 20.5h7v1.5h-7z" fill="#000000" data-original="#000000" style="" class=""/></g><g xmlns="http://www.w3.org/2000/svg"><path d="m20 23.5h7v1.5h-7z" fill="#000000" data-original="#000000" style="" class=""/></g><g xmlns="http://www.w3.org/2000/svg"><path d="m10.28 23.93-1.06-1.06 1.54-1.54c.685-.683 1.797-.683 2.48 0 .056.056.217.18.375-.018l.52-.65c.658-.839 2.067-.845 2.735.006l.965 1.204-1.17.938-.97-1.21c-.134-.17-.261-.164-.384-.006l-.525.656c-.623.779-1.902.845-2.606.142-.098-.097-.262-.097-.36 0z" fill="#000000" data-original="#000000" style="" class=""/></g><g xmlns="http://www.w3.org/2000/svg"><path d="m16.25 26h-5.5c-.965 0-1.75-.785-1.75-1.75v-8.5c0-.965.785-1.75 1.75-1.75h5.5c.965 0 1.75.785 1.75 1.75v8.5c0 .965-.785 1.75-1.75 1.75zm-5.5-10.5c-.138 0-.25.112-.25.25v8.5c0 .138.112.25.25.25h5.5c.138 0 .25-.112.25-.25v-8.5c0-.138-.112-.25-.25-.25z" fill="#000000" data-original="#000000" style="" class=""/></g><g xmlns="http://www.w3.org/2000/svg"><path d="m27.25 29h-18.5c-1.517 0-2.75-1.233-2.75-2.75v-16.5c0-1.517 1.233-2.75 2.75-2.75h18.5c1.517 0 2.75 1.233 2.75 2.75v16.5c0 1.517-1.233 2.75-2.75 2.75zm-18.5-20.5c-.689 0-1.25.561-1.25 1.25v16.5c0 .689.561 1.25 1.25 1.25h18.5c.689 0 1.25-.561 1.25-1.25v-16.5c0-.689-.561-1.25-1.25-1.25z" fill="#000000" data-original="#000000" style="" class=""/></g><g xmlns="http://www.w3.org/2000/svg"><path d="m6.75 10.5h22.5v1.5h-22.5z" fill="#000000" data-original="#000000" style="" class=""/></g><g xmlns="http://www.w3.org/2000/svg"><path d="m2 27.5h32v1.5h-32z" fill="#000000" data-original="#000000" style="" class=""/></g></g></svg>
