<svg xmlns="http://www.w3.org/2000/svg" viewBox="0 0 1116.79 319.07"><defs><style>.cls-1{fill:#4f46e5;}</style></defs><title>2Asset 15</title><g id="Layer_2" data-name="Layer 2"><g id="Layer_1-2" data-name="Layer 1"><path class="cls-1" d="M141.82,319.07A27.51,27.51,0,0,1,128,315.38L13.75,249.31A27.6,27.6,0,0,1,0,225.46l.07-132A27.63,27.63,0,0,1,13.85,69.61L128.22,3.67a27.62,27.62,0,0,1,27.53,0L270,69.76A27.57,27.57,0,0,1,283.79,93.6l-.07,132a27.61,27.61,0,0,1-13.78,23.83L155.57,315.4A27.56,27.56,0,0,1,141.82,319.07ZM142,32.17a10.41,10.41,0,0,0-5.21,1.39L35.44,92a10.46,10.46,0,0,0-5.21,9l-.07,116.94a10.43,10.43,0,0,0,5.21,9L136.61,285.5a10.47,10.47,0,0,0,10.43,0l101.31-58.42a10.44,10.44,0,0,0,5.21-9l.07-116.95a10.45,10.45,0,0,0-5.21-9L147.18,33.56A10.41,10.41,0,0,0,142,32.17Z"/><path class="cls-1" d="M140.37,111.82,114.7,162.28a5.71,5.71,0,0,1-4.71,3.38h0c-5.28.2-8.53-7.25-5.58-12.81l16.67-31.3c1-1.9-.06-4.45-1.87-4.46H92.45a15.39,15.39,0,0,0-5.44,1,6.49,6.49,0,0,0-3.42,3.15A15.62,15.62,0,0,0,82.28,127q-.27,4.38-1.37,14.66l-.25,2.89q-1,9.94-8.46,13.9c3.6,2.15,5.41,6.25,5.4,12.31,0,.72,0,1.93-.17,3.64l-.76,6.64q-1,9.4-1.19,11.77a17.84,17.84,0,0,0-.09,2q0,4.4,2,6.1t7.27,1.72a4.84,4.84,0,0,1,3.8,1.61,5.66,5.66,0,0,1,1.43,3.95,6,6,0,0,1-2.11,5c-1.41,1.1-3.81,1.66-7.19,1.65q-8.45,0-12.46-5t-4-14.24a43.3,43.3,0,0,1,.17-4.39c.17-1.92.35-3.72.55-5.4s.36-3.23.47-4.65l.77-7.71a16.47,16.47,0,0,0,.08-1.82c0-2.42-.6-4.19-1.81-5.29s-3.12-1.66-5.71-1.67a3.76,3.76,0,0,1-3.46-2.08,8.41,8.41,0,0,1-.93-5q.6-5.67,5.16-5.67t7-2.08c1.58-1.39,2.56-3.84,3-7.33q.09-.54,1.27-12.74l.52-5.67q1-9.52,6-14.23t13.06-4.7a1,1,0,0,1,.29,0l39.45,0h7.57C140.2,105.24,141.81,109,140.37,111.82Z"/><path class="cls-1" d="M144.21,207.43,169.88,157a5.69,5.69,0,0,1,4.7-3.37h0c5.29-.21,8.54,7.25,5.58,12.8L163.5,197.7c-1,1.9.06,4.45,1.86,4.45l26.76,0a15.35,15.35,0,0,0,5.44-1A6.45,6.45,0,0,0,201,198a15.65,15.65,0,0,0,1.32-5.78q.25-4.38,1.36-14.66l.25-2.89q1-9.94,8.46-13.9-5.4-3.22-5.4-12.31c0-.72.06-1.93.17-3.64l.77-6.64q1-9.42,1.19-11.77c.05-.5.08-1.17.08-2q0-4.4-2-6.1c-1.35-1.14-3.78-1.72-7.27-1.72a4.81,4.81,0,0,1-3.8-1.61,5.7,5.7,0,0,1-1.44-4,5.93,5.93,0,0,1,2.12-5c1.41-1.1,3.8-1.66,7.18-1.65q8.46,0,12.47,5t4,14.24a40.18,40.18,0,0,1-.17,4.38c-.17,1.93-.35,3.73-.55,5.41s-.35,3.22-.47,4.65l-.76,7.71a14,14,0,0,0-.09,1.82c0,2.42.61,4.19,1.82,5.29s3.11,1.66,5.7,1.66a3.8,3.8,0,0,1,3.47,2.09,8.47,8.47,0,0,1,.92,5q-.58,5.67-5.16,5.67t-7,2.08q-2.37,2.08-3,7.33-.09.54-1.28,12.73l-.51,5.68q-1,9.51-6,14.23t-13.06,4.7a1.35,1.35,0,0,1-.28,0l-39.46,0H147C144.37,214,142.76,210.27,144.21,207.43Z"/><path class="cls-1" d="M150.9,126.66l-32,64.33a6.53,6.53,0,0,0,4.41,9.18h0a7.38,7.38,0,0,0,8.59-3.61l32-64.33a6.54,6.54,0,0,0-4.4-9.19h0A7.41,7.41,0,0,0,150.9,126.66Z"/><path class="cls-1" d="M364.85,213.61q-22.91,0-34.9-12.74t-12-36.18a55.62,55.62,0,0,1,3.66-20.8,44.76,44.76,0,0,1,10-15.45,41.85,41.85,0,0,1,15.18-9.55,54.68,54.68,0,0,1,19.1-3.25,60.91,60.91,0,0,1,10.84.88,70.19,70.19,0,0,1,8.54,2,42.93,42.93,0,0,1,6.1,2.37c1.63.81,2.8,1.45,3.52,1.9l-6.1,17.07A51.79,51.79,0,0,0,378.74,136a48.37,48.37,0,0,0-13.08-1.62,29,29,0,0,0-9.55,1.62,21.69,21.69,0,0,0-8.27,5.22,26.19,26.19,0,0,0-5.76,9.28,39.08,39.08,0,0,0-2.17,13.82,49.2,49.2,0,0,0,1.43,12.13,25.78,25.78,0,0,0,4.6,9.69,22.14,22.14,0,0,0,8.34,6.44,29.67,29.67,0,0,0,12.47,2.37,57,57,0,0,0,8.26-.54,60.44,60.44,0,0,0,6.51-1.29,34.05,34.05,0,0,0,5-1.69c1.44-.63,2.76-1.22,3.93-1.76l5.83,16.93a49.11,49.11,0,0,1-12.61,4.88A73.18,73.18,0,0,1,364.85,213.61Z"/><path class="cls-1" d="M473.53,175.94a46.24,46.24,0,0,1-2.44,15.38,33.44,33.44,0,0,1-7,11.92,31.71,31.71,0,0,1-11,7.66,39.43,39.43,0,0,1-28.73,0,31.71,31.71,0,0,1-11-7.66,34.75,34.75,0,0,1-7.18-11.92,44,44,0,0,1-2.58-15.38,42.56,42.56,0,0,1,2.64-15.31,34.61,34.61,0,0,1,7.32-11.79,32.84,32.84,0,0,1,11.11-7.59,38,38,0,0,1,28.19,0,32.07,32.07,0,0,1,11,7.59A34.32,34.32,0,0,1,471,160.63,43.45,43.45,0,0,1,473.53,175.94Zm-20.6,0q0-9.34-3.73-14.7a12.18,12.18,0,0,0-10.63-5.36,12.37,12.37,0,0,0-10.71,5.36q-3.8,5.35-3.79,14.7t3.79,14.84a12.27,12.27,0,0,0,10.71,5.49,12.08,12.08,0,0,0,10.63-5.49Q452.94,185.29,452.93,175.94Z"/><path class="cls-1" d="M552,209.41q-2.72.81-6.23,1.56c-2.35.5-4.81.92-7.39,1.29s-5.2.65-7.86.88-5.22.34-7.66.34a44.66,44.66,0,0,1-15.71-2.58,31.56,31.56,0,0,1-11.66-7.38,32.13,32.13,0,0,1-7.25-11.66,44.5,44.5,0,0,1-2.5-15.38,52.82,52.82,0,0,1,2.16-15.65A34.17,34.17,0,0,1,494.13,149a26.73,26.73,0,0,1,10-7.45,33.31,33.31,0,0,1,13.48-2.58,31.78,31.78,0,0,1,7.52.82,41,41,0,0,1,6.71,2.3V109.81L552,106.56Zm-45.67-33.88q0,9.36,4.2,15t12.47,5.7q2.71,0,5-.21c1.54-.13,2.8-.29,3.8-.47V158.86a17.58,17.58,0,0,0-4.95-2,23.9,23.9,0,0,0-6.16-.81Q506.32,156,506.32,175.53Z"/><path class="cls-1" d="M567.57,176.62a43.41,43.41,0,0,1,2.92-16.6,35.49,35.49,0,0,1,7.65-11.86A31.78,31.78,0,0,1,589.05,141a34.06,34.06,0,0,1,12.67-2.44q15.18,0,24,9.28t8.8,27.31c0,1.17,0,2.46-.13,3.86s-.18,2.64-.27,3.72h-45.8a13.42,13.42,0,0,0,5.82,9.9c3.44,2.44,8,3.66,13.83,3.66a58.1,58.1,0,0,0,10.9-1,40.93,40.93,0,0,0,8.74-2.51l2.71,16.4a28.9,28.9,0,0,1-4.33,1.63,58.55,58.55,0,0,1-6,1.42q-3.33.6-7.12,1a68.93,68.93,0,0,1-7.59.41,45,45,0,0,1-16.73-2.84,32.67,32.67,0,0,1-11.79-7.8,30.79,30.79,0,0,1-6.91-11.72A46.39,46.39,0,0,1,567.57,176.62ZM615,168.89a20.73,20.73,0,0,0-.88-5,12.75,12.75,0,0,0-2.3-4.34,12.29,12.29,0,0,0-3.93-3.11,12.76,12.76,0,0,0-5.9-1.22,13.53,13.53,0,0,0-5.83,1.15,12,12,0,0,0-4.06,3,13.72,13.72,0,0,0-2.51,4.4,28.64,28.64,0,0,0-1.28,5.08Z"/><path class="cls-1" d="M716.36,176.07a45,45,0,0,1-2.5,15.45,32.72,32.72,0,0,1-7.25,11.79A31.94,31.94,0,0,1,695,210.83a43.83,43.83,0,0,1-15.72,2.65c-2.44,0-5-.12-7.65-.34s-5.29-.52-7.86-.88-5-.79-7.39-1.29-4.42-1-6.23-1.56v-99.6l20.19-3.25v35.5a38,38,0,0,1,7.05-2.3,36.18,36.18,0,0,1,7.86-.82,32.19,32.19,0,0,1,13.41,2.65,26.32,26.32,0,0,1,9.76,7.52,33.68,33.68,0,0,1,6,11.72A53.23,53.23,0,0,1,716.36,176.07Zm-20.6-.54q0-19.51-14.36-19.51a23.85,23.85,0,0,0-6.16.81,17.45,17.45,0,0,0-5,2v36.73c1,.18,2.26.34,3.79.47s3.21.21,5,.21q8.26,0,12.47-5.7T695.76,175.53Z"/><path class="cls-1" d="M792.79,209.28a111.72,111.72,0,0,1-13.28,2.77,108.87,108.87,0,0,1-17.07,1.29q-9.09,0-15.11-2.44a22.9,22.9,0,0,1-9.56-6.84,26.69,26.69,0,0,1-5-10.5,56.22,56.22,0,0,1-1.49-13.42v-39.7h20.19V177.7q0,9.75,2.57,14.09t9.62,4.34c1.45,0,3-.07,4.61-.2s3.07-.3,4.34-.48v-55h20.19Z"/><path class="cls-1" d="M850.92,173.91q0-9.76-2.51-13.83t-8.6-4.06c-1.27,0-2.58.07-3.93.2s-2.67.3-3.93.48v55H811.76V142.87q2.57-.68,6-1.42c2.3-.49,4.74-.95,7.32-1.35s5.21-.73,7.92-.95,5.38-.34,8-.34a33.76,33.76,0,0,1,12.53,2,28.22,28.22,0,0,1,7.93,4.68,37.72,37.72,0,0,1,20.33-6.64q8.53,0,14,2.37a21.08,21.08,0,0,1,8.74,6.71,25.43,25.43,0,0,1,4.48,10.3,66.68,66.68,0,0,1,1.21,13.28v40.24H890.08v-37.8q0-9.76-2.5-13.83C885.9,157.37,883,156,879,156a18.27,18.27,0,0,0-4.54.81,17.84,17.84,0,0,0-4.81,2,30.9,30.9,0,0,1,1.22,6.58q.27,3.45.27,7.38v38.89H850.92Z"/><path class="cls-1" d="M994.83,176.07a45,45,0,0,1-2.5,15.45,32.58,32.58,0,0,1-7.25,11.79,31.94,31.94,0,0,1-11.66,7.52,43.76,43.76,0,0,1-15.72,2.65c-2.44,0-5-.12-7.65-.34s-5.29-.52-7.86-.88-5-.79-7.39-1.29-4.42-1-6.23-1.56v-99.6l20.19-3.25v35.5a38,38,0,0,1,7-2.3,36.25,36.25,0,0,1,7.86-.82,32.16,32.16,0,0,1,13.41,2.65,26.24,26.24,0,0,1,9.76,7.52,33.68,33.68,0,0,1,6,11.72A53.23,53.23,0,0,1,994.83,176.07Zm-20.59-.54q0-19.51-14.37-19.51a23.85,23.85,0,0,0-6.16.81,17.58,17.58,0,0,0-5,2v36.73c1,.18,2.26.34,3.8.47s3.2.21,5,.21q8.26,0,12.47-5.7T974.24,175.53Z"/><path class="cls-1" d="M1038.87,213.07a50.19,50.19,0,0,1-14.29-1.9,21.11,21.11,0,0,1-8.67-4.94,16.41,16.41,0,0,1-4.34-7.73,41.5,41.5,0,0,1-1.15-10.23V109.81l20.19-3.25V184.2a25.77,25.77,0,0,0,.41,4.88,8.34,8.34,0,0,0,1.55,3.66,8.25,8.25,0,0,0,3.32,2.44,18.28,18.28,0,0,0,5.83,1.22Z"/><path class="cls-1" d="M1049.85,176.62a43.6,43.6,0,0,1,2.91-16.6,35.36,35.36,0,0,1,7.66-11.86,31.68,31.68,0,0,1,10.91-7.18,34.06,34.06,0,0,1,12.67-2.44q15.16,0,24,9.28t8.81,27.31c0,1.17,0,2.46-.13,3.86s-.19,2.64-.28,3.72h-45.8a13.4,13.4,0,0,0,5.83,9.9q5.14,3.66,13.82,3.66a58.13,58.13,0,0,0,10.91-1,40.93,40.93,0,0,0,8.74-2.51l2.71,16.4a28.66,28.66,0,0,1-4.34,1.63,57.33,57.33,0,0,1-6,1.42q-3.32.6-7.11,1a68.93,68.93,0,0,1-7.59.41,45,45,0,0,1-16.73-2.84A32.5,32.5,0,0,1,1059,203a30.81,30.81,0,0,1-6.92-11.72A46.39,46.39,0,0,1,1049.85,176.62Zm47.43-7.73a21.23,21.23,0,0,0-.88-5,12.6,12.6,0,0,0-2.31-4.34,12.29,12.29,0,0,0-3.93-3.11,12.69,12.69,0,0,0-5.89-1.22,13.53,13.53,0,0,0-5.83,1.15,12,12,0,0,0-4.06,3,13.53,13.53,0,0,0-2.51,4.4,28.67,28.67,0,0,0-1.29,5.08Z"/></g></g></svg>